G04 #@! TF.FileFunction,Copper,L2,Bot,Signal*
%FSLAX46Y46*%
G04 Gerber Fmt 4.6, Leading zero omitted, Abs format (unit mm)*
G04 Created by KiCad (PCBNEW 4.0.7) date 06/18/18 17:36:48*
%MOMM*%
%LPD*%
G01*
G04 APERTURE LIST*
%ADD10C,0.100000*%
%ADD11C,2.350000*%
%ADD12R,1.600000X1.600000*%
%ADD13O,1.600000X1.600000*%
%ADD14C,1.600000*%
%ADD15R,2.000000X2.000000*%
%ADD16C,2.000000*%
%ADD17R,1.800000X1.800000*%
%ADD18C,1.800000*%
%ADD19O,1.800000X1.800000*%
%ADD20R,3.000000X3.000000*%
%ADD21C,3.000000*%
%ADD22R,1.700000X1.700000*%
%ADD23O,1.700000X1.700000*%
%ADD24C,2.300000*%
%ADD25O,2.000000X2.000000*%
%ADD26C,1.524000*%
%ADD27C,0.600000*%
%ADD28C,1.000000*%
%ADD29C,2.000000*%
G04 APERTURE END LIST*
D10*
D11*
X75565000Y-39130000D03*
X75565000Y-44130000D03*
X75565000Y-29130000D03*
X75565000Y-24130000D03*
D12*
X46355000Y-52705000D03*
D13*
X51435000Y-45085000D03*
X48895000Y-52705000D03*
X48895000Y-45085000D03*
X51435000Y-52705000D03*
X46355000Y-45085000D03*
D14*
X87630000Y-120650000D03*
D13*
X87630000Y-110490000D03*
D14*
X47625000Y-109220000D03*
D13*
X47625000Y-119380000D03*
D12*
X45720000Y-67310000D03*
D13*
X53340000Y-72390000D03*
X45720000Y-69850000D03*
X53340000Y-69850000D03*
X45720000Y-72390000D03*
X53340000Y-67310000D03*
D14*
X90805000Y-116840000D03*
X90805000Y-119340000D03*
X93345000Y-116840000D03*
X93345000Y-119340000D03*
D15*
X35560000Y-124460000D03*
D16*
X40560000Y-124460000D03*
D14*
X87630000Y-93980000D03*
X90130000Y-93980000D03*
X142240000Y-112395000D03*
X139740000Y-112395000D03*
D17*
X80010000Y-107950000D03*
D18*
X80010000Y-105410000D03*
D17*
X85090000Y-107950000D03*
D18*
X85090000Y-105410000D03*
D17*
X158750000Y-121285000D03*
D19*
X161290000Y-121285000D03*
X163830000Y-121285000D03*
D20*
X27940000Y-38100000D03*
D21*
X27940000Y-43180000D03*
D22*
X111760000Y-70485000D03*
D23*
X111760000Y-73025000D03*
X109220000Y-70485000D03*
X109220000Y-73025000D03*
X106680000Y-70485000D03*
X106680000Y-73025000D03*
X104140000Y-70485000D03*
X104140000Y-73025000D03*
X101600000Y-70485000D03*
X101600000Y-73025000D03*
X99060000Y-70485000D03*
X99060000Y-73025000D03*
D22*
X119380000Y-73025000D03*
D23*
X119380000Y-70485000D03*
X121920000Y-73025000D03*
X121920000Y-70485000D03*
X124460000Y-73025000D03*
X124460000Y-70485000D03*
X127000000Y-73025000D03*
X127000000Y-70485000D03*
X129540000Y-73025000D03*
X129540000Y-70485000D03*
D22*
X51435000Y-86360000D03*
D23*
X51435000Y-88900000D03*
X51435000Y-91440000D03*
X51435000Y-93980000D03*
X51435000Y-96520000D03*
X51435000Y-99060000D03*
D22*
X133985000Y-127000000D03*
D23*
X136525000Y-127000000D03*
X139065000Y-127000000D03*
X141605000Y-127000000D03*
X144145000Y-127000000D03*
X146685000Y-127000000D03*
D20*
X162560000Y-131445000D03*
D21*
X167640000Y-131445000D03*
D12*
X62230000Y-80645000D03*
D13*
X80010000Y-73025000D03*
X64770000Y-80645000D03*
X77470000Y-73025000D03*
X67310000Y-80645000D03*
X74930000Y-73025000D03*
X69850000Y-80645000D03*
X72390000Y-73025000D03*
X72390000Y-80645000D03*
X69850000Y-73025000D03*
X74930000Y-80645000D03*
X67310000Y-73025000D03*
X77470000Y-80645000D03*
X64770000Y-73025000D03*
X80010000Y-80645000D03*
X62230000Y-73025000D03*
D17*
X135255000Y-73025000D03*
D19*
X135255000Y-70485000D03*
X135255000Y-67945000D03*
D12*
X92075000Y-80010000D03*
D13*
X84455000Y-64770000D03*
X92075000Y-77470000D03*
X84455000Y-67310000D03*
X92075000Y-74930000D03*
X84455000Y-69850000D03*
X92075000Y-72390000D03*
X84455000Y-72390000D03*
X92075000Y-69850000D03*
X84455000Y-74930000D03*
X92075000Y-67310000D03*
X84455000Y-77470000D03*
X92075000Y-64770000D03*
X84455000Y-80010000D03*
D12*
X136842500Y-115252500D03*
D13*
X144462500Y-122872500D03*
X136842500Y-117792500D03*
X144462500Y-120332500D03*
X136842500Y-120332500D03*
X144462500Y-117792500D03*
X136842500Y-122872500D03*
X144462500Y-115252500D03*
D12*
X173990000Y-108585000D03*
D13*
X181610000Y-113665000D03*
X173990000Y-111125000D03*
X181610000Y-111125000D03*
X173990000Y-113665000D03*
X181610000Y-108585000D03*
D24*
X97155000Y-113030000D03*
X92255000Y-113030000D03*
D14*
X120015000Y-111760000D03*
X120015000Y-109260000D03*
X110490000Y-55245000D03*
X112990000Y-55245000D03*
X64135000Y-66040000D03*
X66635000Y-66040000D03*
X149860000Y-71120000D03*
X152360000Y-71120000D03*
X144780000Y-81280000D03*
X144780000Y-83780000D03*
X121285000Y-92075000D03*
X121285000Y-94575000D03*
X148590000Y-102870000D03*
X148590000Y-105370000D03*
D17*
X88265000Y-134620000D03*
D19*
X85725000Y-134620000D03*
X83185000Y-134620000D03*
D17*
X97790000Y-36830000D03*
D19*
X97790000Y-39370000D03*
X97790000Y-41910000D03*
D17*
X62865000Y-35560000D03*
D19*
X62865000Y-38100000D03*
X62865000Y-40640000D03*
D17*
X145415000Y-35560000D03*
D19*
X145415000Y-38100000D03*
X145415000Y-40640000D03*
D17*
X179705000Y-35560000D03*
D19*
X179705000Y-38100000D03*
X179705000Y-40640000D03*
D17*
X191770000Y-70485000D03*
D19*
X189230000Y-70485000D03*
X186690000Y-70485000D03*
D17*
X193040000Y-107315000D03*
D19*
X190500000Y-107315000D03*
X187960000Y-107315000D03*
D11*
X27940000Y-58660000D03*
X27940000Y-53660000D03*
X27940000Y-68660000D03*
X27940000Y-73660000D03*
X181215000Y-128905000D03*
X176215000Y-128905000D03*
X191215000Y-128905000D03*
X196215000Y-128905000D03*
X136130000Y-134620000D03*
X131130000Y-134620000D03*
X146130000Y-134620000D03*
X151130000Y-134620000D03*
X40005000Y-39130000D03*
X40005000Y-44130000D03*
X40005000Y-29130000D03*
X40005000Y-24130000D03*
X117870000Y-29845000D03*
X122870000Y-29845000D03*
X107870000Y-29845000D03*
X102870000Y-29845000D03*
X156845000Y-39130000D03*
X156845000Y-44130000D03*
X156845000Y-29130000D03*
X156845000Y-24130000D03*
X190500000Y-39130000D03*
X190500000Y-44130000D03*
X190500000Y-29130000D03*
X190500000Y-24130000D03*
X181215000Y-81915000D03*
X176215000Y-81915000D03*
X191215000Y-81915000D03*
X196215000Y-81915000D03*
D22*
X104775000Y-106680000D03*
D23*
X104775000Y-109220000D03*
X104775000Y-111760000D03*
X104775000Y-114300000D03*
X104775000Y-116840000D03*
X104775000Y-119380000D03*
D20*
X102235000Y-133350000D03*
D21*
X107315000Y-133350000D03*
D22*
X120015000Y-40005000D03*
D23*
X117475000Y-40005000D03*
X114935000Y-40005000D03*
X112395000Y-40005000D03*
X109855000Y-40005000D03*
X107315000Y-40005000D03*
D20*
X88900000Y-32385000D03*
D21*
X83820000Y-32385000D03*
D22*
X71755000Y-50800000D03*
D23*
X69215000Y-50800000D03*
X66675000Y-50800000D03*
X64135000Y-50800000D03*
X61595000Y-50800000D03*
X59055000Y-50800000D03*
D20*
X53340000Y-32385000D03*
D21*
X48260000Y-32385000D03*
D22*
X157480000Y-55245000D03*
D23*
X154940000Y-55245000D03*
X152400000Y-55245000D03*
X149860000Y-55245000D03*
X147320000Y-55245000D03*
X144780000Y-55245000D03*
D20*
X135890000Y-32385000D03*
D21*
X130810000Y-32385000D03*
D22*
X160655000Y-86360000D03*
D23*
X160655000Y-83820000D03*
X160655000Y-81280000D03*
X160655000Y-78740000D03*
X160655000Y-76200000D03*
X160655000Y-73660000D03*
D20*
X170180000Y-32385000D03*
D21*
X165100000Y-32385000D03*
D22*
X137795000Y-101600000D03*
D23*
X137795000Y-99060000D03*
X137795000Y-96520000D03*
X137795000Y-93980000D03*
X137795000Y-91440000D03*
X137795000Y-88900000D03*
D20*
X195580000Y-61595000D03*
D21*
X195580000Y-56515000D03*
D22*
X165100000Y-109220000D03*
D23*
X165100000Y-106680000D03*
X165100000Y-104140000D03*
X165100000Y-101600000D03*
X165100000Y-99060000D03*
X165100000Y-96520000D03*
D20*
X195580000Y-98425000D03*
D21*
X195580000Y-93345000D03*
D14*
X103505000Y-50165000D03*
D13*
X93345000Y-50165000D03*
D14*
X81915000Y-42545000D03*
D13*
X92075000Y-42545000D03*
D14*
X56515000Y-55880000D03*
D13*
X46355000Y-55880000D03*
D14*
X46355000Y-42545000D03*
D13*
X56515000Y-42545000D03*
D14*
X141605000Y-62865000D03*
D13*
X141605000Y-52705000D03*
D14*
X128905000Y-43180000D03*
D13*
X139065000Y-43180000D03*
D14*
X163195000Y-57785000D03*
D13*
X163195000Y-47625000D03*
D14*
X163195000Y-40640000D03*
D13*
X173355000Y-40640000D03*
D14*
X173355000Y-66040000D03*
D13*
X173355000Y-55880000D03*
D14*
X180340000Y-50165000D03*
D13*
X190500000Y-50165000D03*
D14*
X170815000Y-99060000D03*
D13*
X170815000Y-88900000D03*
D14*
X176530000Y-89535000D03*
D13*
X186690000Y-89535000D03*
D12*
X117475000Y-106680000D03*
D13*
X109855000Y-114300000D03*
X114935000Y-106680000D03*
X112395000Y-114300000D03*
X112395000Y-106680000D03*
X114935000Y-114300000D03*
X109855000Y-106680000D03*
X117475000Y-114300000D03*
D12*
X126365000Y-120650000D03*
D13*
X121285000Y-128270000D03*
X123825000Y-120650000D03*
X123825000Y-128270000D03*
X121285000Y-120650000D03*
X126365000Y-128270000D03*
D12*
X115570000Y-52705000D03*
D13*
X107950000Y-45085000D03*
X115570000Y-50165000D03*
X107950000Y-47625000D03*
X115570000Y-47625000D03*
X107950000Y-50165000D03*
X115570000Y-45085000D03*
X107950000Y-52705000D03*
D12*
X81915000Y-52705000D03*
D13*
X86995000Y-45085000D03*
X84455000Y-52705000D03*
X84455000Y-45085000D03*
X86995000Y-52705000D03*
X81915000Y-45085000D03*
D12*
X69215000Y-63500000D03*
D13*
X61595000Y-55880000D03*
X69215000Y-60960000D03*
X61595000Y-58420000D03*
X69215000Y-58420000D03*
X61595000Y-60960000D03*
X69215000Y-55880000D03*
X61595000Y-63500000D03*
D12*
X154940000Y-68580000D03*
D13*
X147320000Y-60960000D03*
X154940000Y-66040000D03*
X147320000Y-63500000D03*
X154940000Y-63500000D03*
X147320000Y-66040000D03*
X154940000Y-60960000D03*
X147320000Y-68580000D03*
D12*
X128905000Y-53340000D03*
D13*
X133985000Y-45720000D03*
X131445000Y-53340000D03*
X131445000Y-45720000D03*
X133985000Y-53340000D03*
X128905000Y-45720000D03*
D12*
X147320000Y-86360000D03*
D13*
X154940000Y-78740000D03*
X149860000Y-86360000D03*
X152400000Y-78740000D03*
X152400000Y-86360000D03*
X149860000Y-78740000D03*
X154940000Y-86360000D03*
X147320000Y-78740000D03*
D12*
X166370000Y-51435000D03*
D13*
X171450000Y-43815000D03*
X168910000Y-51435000D03*
X168910000Y-43815000D03*
X171450000Y-51435000D03*
X166370000Y-43815000D03*
D12*
X123825000Y-97155000D03*
D13*
X131445000Y-89535000D03*
X126365000Y-97155000D03*
X128905000Y-89535000D03*
X128905000Y-97155000D03*
X126365000Y-89535000D03*
X131445000Y-97155000D03*
X123825000Y-89535000D03*
D12*
X176530000Y-55880000D03*
D13*
X184150000Y-60960000D03*
X176530000Y-58420000D03*
X184150000Y-58420000D03*
X176530000Y-60960000D03*
X184150000Y-55880000D03*
D12*
X151130000Y-107950000D03*
D13*
X158750000Y-100330000D03*
X153670000Y-107950000D03*
X156210000Y-100330000D03*
X156210000Y-107950000D03*
X153670000Y-100330000D03*
X158750000Y-107950000D03*
X151130000Y-100330000D03*
D12*
X176530000Y-95250000D03*
D13*
X184150000Y-100330000D03*
X176530000Y-97790000D03*
X184150000Y-97790000D03*
X176530000Y-100330000D03*
X184150000Y-95250000D03*
D14*
X50800000Y-109220000D03*
D13*
X50800000Y-119380000D03*
D14*
X47625000Y-132080000D03*
D13*
X47625000Y-121920000D03*
D14*
X81280000Y-120650000D03*
D13*
X81280000Y-110490000D03*
D14*
X78105000Y-120650000D03*
D13*
X78105000Y-110490000D03*
D14*
X84455000Y-120650000D03*
D13*
X84455000Y-110490000D03*
D14*
X50800000Y-132080000D03*
D13*
X50800000Y-121920000D03*
D14*
X66675000Y-125095000D03*
D13*
X76835000Y-125095000D03*
D14*
X66675000Y-128270000D03*
D13*
X76835000Y-128270000D03*
D14*
X55880000Y-80010000D03*
D13*
X55880000Y-69850000D03*
D14*
X157480000Y-113030000D03*
D13*
X167640000Y-113030000D03*
D14*
X182245000Y-121285000D03*
D13*
X172085000Y-121285000D03*
D14*
X107950000Y-119380000D03*
D13*
X118110000Y-119380000D03*
D14*
X116205000Y-132080000D03*
D13*
X126365000Y-132080000D03*
D14*
X45720000Y-76200000D03*
D13*
X35560000Y-76200000D03*
D14*
X45720000Y-63500000D03*
D13*
X35560000Y-63500000D03*
D25*
X41910000Y-72390000D03*
X36830000Y-67310000D03*
X36830000Y-72390000D03*
D15*
X41910000Y-67310000D03*
D16*
X60960000Y-106625000D03*
X60960000Y-111125000D03*
X54460000Y-106625000D03*
X54460000Y-111125000D03*
X60960000Y-115515000D03*
X60960000Y-120015000D03*
X54460000Y-115515000D03*
X54460000Y-120015000D03*
X60960000Y-124405000D03*
X60960000Y-128905000D03*
X54460000Y-124405000D03*
X54460000Y-128905000D03*
X60960000Y-133295000D03*
X60960000Y-137795000D03*
X54460000Y-133295000D03*
X54460000Y-137795000D03*
X74930000Y-108530000D03*
X74930000Y-113030000D03*
X68430000Y-108530000D03*
X68430000Y-113030000D03*
X74930000Y-117420000D03*
X74930000Y-121920000D03*
X68430000Y-117420000D03*
X68430000Y-121920000D03*
D12*
X62230000Y-100330000D03*
D13*
X110490000Y-85090000D03*
X64770000Y-100330000D03*
X107950000Y-85090000D03*
X67310000Y-100330000D03*
X105410000Y-85090000D03*
X69850000Y-100330000D03*
X102870000Y-85090000D03*
X72390000Y-100330000D03*
X100330000Y-85090000D03*
X74930000Y-100330000D03*
X97790000Y-85090000D03*
X77470000Y-100330000D03*
X95250000Y-85090000D03*
X80010000Y-100330000D03*
X92710000Y-85090000D03*
X82550000Y-100330000D03*
X90170000Y-85090000D03*
X85090000Y-100330000D03*
X87630000Y-85090000D03*
X87630000Y-100330000D03*
X85090000Y-85090000D03*
X90170000Y-100330000D03*
X82550000Y-85090000D03*
X92710000Y-100330000D03*
X80010000Y-85090000D03*
X95250000Y-100330000D03*
X77470000Y-85090000D03*
X97790000Y-100330000D03*
X74930000Y-85090000D03*
X100330000Y-100330000D03*
X72390000Y-85090000D03*
X102870000Y-100330000D03*
X69850000Y-85090000D03*
X105410000Y-100330000D03*
X67310000Y-85090000D03*
X107950000Y-100330000D03*
X64770000Y-85090000D03*
X110490000Y-100330000D03*
X62230000Y-85090000D03*
D26*
X25400000Y-113030000D03*
X40640000Y-113030000D03*
X35560000Y-83820000D03*
X30480000Y-83820000D03*
D27*
X102235000Y-117475000D03*
X95885000Y-117475000D03*
X120015000Y-114935000D03*
X120015000Y-118745000D03*
X145415000Y-103505000D03*
X145415000Y-111760000D03*
X151130000Y-97790000D03*
X140335000Y-97790000D03*
X147320000Y-71755000D03*
X147320000Y-76835000D03*
X157480000Y-50165000D03*
X147955000Y-50165000D03*
X145415000Y-68580000D03*
X145415000Y-59690000D03*
X129540000Y-62865000D03*
X129540000Y-55245000D03*
X93980000Y-64770000D03*
X93980000Y-54610000D03*
X99060000Y-79375000D03*
X107950000Y-79375000D03*
X114300000Y-78105000D03*
X114300000Y-73025000D03*
X129540000Y-106045000D03*
X120015000Y-106045000D03*
X114300000Y-61595000D03*
X114300000Y-70485000D03*
X124460000Y-102870000D03*
X124460000Y-99060000D03*
X115570000Y-61595000D03*
X115570000Y-55245000D03*
X163830000Y-83820000D03*
X163830000Y-91440000D03*
X168275000Y-97155000D03*
X168275000Y-106680000D03*
X163830000Y-77470000D03*
X163830000Y-74930000D03*
X159385000Y-70485000D03*
X156845000Y-70485000D03*
X137160000Y-69850000D03*
X142240000Y-69850000D03*
X58420000Y-70485000D03*
X58420000Y-80010000D03*
X54610000Y-100965000D03*
X54610000Y-92075000D03*
X97155000Y-108585000D03*
X87630000Y-108585000D03*
X109220000Y-67945000D03*
X95250000Y-67945000D03*
X106680000Y-66675000D03*
X93980000Y-66675000D03*
X116840000Y-65405000D03*
X116840000Y-93345000D03*
X115570000Y-64135000D03*
X115570000Y-92075000D03*
X106680000Y-83185000D03*
X97790000Y-83185000D03*
X104140000Y-75565000D03*
X104140000Y-78105000D03*
X149288500Y-124904500D03*
X131445000Y-124904500D03*
X161925000Y-110490000D03*
X161925000Y-98425000D03*
X141605000Y-94615000D03*
X149225000Y-94615000D03*
X144145000Y-74295000D03*
X144145000Y-76835000D03*
X144145000Y-71120000D03*
X144145000Y-64770000D03*
X55880000Y-60960000D03*
X55880000Y-64770000D03*
X112395000Y-104775000D03*
X124460000Y-104775000D03*
X133350000Y-102235000D03*
X133350000Y-111125000D03*
X134620000Y-103505000D03*
X134620000Y-107315000D03*
X119380000Y-48895000D03*
X156845000Y-63500000D03*
X161290000Y-63500000D03*
X124460000Y-48895000D03*
X134620000Y-113030000D03*
X132080000Y-113030000D03*
X123190000Y-103505000D03*
X120015000Y-103505000D03*
X136525000Y-104775000D03*
X136525000Y-111125000D03*
X140335000Y-104775000D03*
X144145000Y-104775000D03*
X147955000Y-92075000D03*
X147955000Y-89535000D03*
X158115000Y-75565000D03*
X158115000Y-89535000D03*
X120650000Y-51435000D03*
X124460000Y-51435000D03*
X117475000Y-50165000D03*
X120650000Y-50165000D03*
X56515000Y-92075000D03*
X56515000Y-100965000D03*
X88265000Y-81915000D03*
X105410000Y-81915000D03*
X59690000Y-60960000D03*
X59690000Y-64770000D03*
X65405000Y-69215000D03*
X67945000Y-69215000D03*
X140335000Y-93345000D03*
X149225000Y-93345000D03*
D28*
X74930000Y-121920000D02*
X74930000Y-123825000D01*
X74930000Y-123825000D02*
X60960000Y-137795000D01*
X74930000Y-121920000D02*
X74930000Y-120650000D01*
X70485000Y-115085000D02*
X68430000Y-113030000D01*
X70485000Y-116205000D02*
X70485000Y-115085000D01*
X74930000Y-120650000D02*
X70485000Y-116205000D01*
X74930000Y-113030000D02*
X78105000Y-116205000D01*
X78105000Y-116205000D02*
X78105000Y-118745000D01*
X74930000Y-121920000D02*
X76200000Y-120650000D01*
X76200000Y-120650000D02*
X78105000Y-120650000D01*
X40560000Y-124460000D02*
X40560000Y-128190000D01*
X50165000Y-137795000D02*
X54460000Y-137795000D01*
X40560000Y-128190000D02*
X50165000Y-137795000D01*
X54460000Y-128905000D02*
X58420000Y-128905000D01*
X58420000Y-128905000D02*
X60960000Y-128905000D01*
X54460000Y-120015000D02*
X58420000Y-120015000D01*
X58420000Y-120015000D02*
X60960000Y-120015000D01*
X93345000Y-119340000D02*
X94020000Y-119340000D01*
X94020000Y-119340000D02*
X95885000Y-117475000D01*
X102870000Y-111760000D02*
X104775000Y-111760000D01*
X102235000Y-112395000D02*
X102870000Y-111760000D01*
X102235000Y-117475000D02*
X102235000Y-112395000D01*
X123825000Y-120650000D02*
X123825000Y-118745000D01*
X120015000Y-114300000D02*
X118745000Y-113030000D01*
X120015000Y-114935000D02*
X120015000Y-114300000D01*
X123825000Y-118745000D02*
X120015000Y-118745000D01*
X104775000Y-111760000D02*
X106045000Y-111760000D01*
X115570000Y-109855000D02*
X118745000Y-113030000D01*
X107950000Y-109855000D02*
X115570000Y-109855000D01*
X106045000Y-111760000D02*
X107950000Y-109855000D01*
X120015000Y-111760000D02*
X118745000Y-113030000D01*
X118745000Y-113030000D02*
X117475000Y-114300000D01*
X143510000Y-113665000D02*
X145415000Y-111760000D01*
X146050000Y-102870000D02*
X148590000Y-102870000D01*
X145415000Y-103505000D02*
X146050000Y-102870000D01*
X139065000Y-127000000D02*
X139065000Y-125095000D01*
X139700000Y-117475000D02*
X143510000Y-113665000D01*
X139700000Y-124460000D02*
X139700000Y-117475000D01*
X139065000Y-125095000D02*
X139700000Y-124460000D01*
X144462500Y-115252500D02*
X144462500Y-114617500D01*
X144462500Y-114617500D02*
X143510000Y-113665000D01*
X143510000Y-113665000D02*
X142240000Y-112395000D01*
X173990000Y-111125000D02*
X175895000Y-111125000D01*
X175895000Y-105410000D02*
X172085000Y-101600000D01*
X175895000Y-111125000D02*
X175895000Y-105410000D01*
X140335000Y-96520000D02*
X140335000Y-97790000D01*
X151130000Y-97790000D02*
X151130000Y-100330000D01*
X137795000Y-96520000D02*
X140335000Y-96520000D01*
X140335000Y-96520000D02*
X141605000Y-96520000D01*
X142875000Y-83185000D02*
X144780000Y-81280000D01*
X141605000Y-96520000D02*
X144145000Y-93980000D01*
X144145000Y-93980000D02*
X144145000Y-85725000D01*
X144145000Y-85725000D02*
X142875000Y-84455000D01*
X142875000Y-84455000D02*
X142875000Y-83185000D01*
X165100000Y-104140000D02*
X163195000Y-104140000D01*
X151765000Y-104775000D02*
X149225000Y-102235000D01*
X162560000Y-104775000D02*
X151765000Y-104775000D01*
X163195000Y-104140000D02*
X162560000Y-104775000D01*
X148590000Y-102870000D02*
X149225000Y-102235000D01*
X149225000Y-102235000D02*
X151130000Y-100330000D01*
X176530000Y-97790000D02*
X174625000Y-97790000D01*
X169545000Y-104140000D02*
X165100000Y-104140000D01*
X173990000Y-99695000D02*
X172085000Y-101600000D01*
X172085000Y-101600000D02*
X169545000Y-104140000D01*
X173990000Y-98425000D02*
X173990000Y-99695000D01*
X174625000Y-97790000D02*
X173990000Y-98425000D01*
X137795000Y-96520000D02*
X136525000Y-96520000D01*
X136525000Y-96520000D02*
X133985000Y-93980000D01*
X133985000Y-93980000D02*
X124460000Y-93980000D01*
X124460000Y-93980000D02*
X121920000Y-91440000D01*
X121285000Y-92075000D02*
X121920000Y-91440000D01*
X121920000Y-91440000D02*
X123825000Y-89535000D01*
X176530000Y-58420000D02*
X171450000Y-58420000D01*
X168275000Y-55245000D02*
X168275000Y-53340000D01*
X171450000Y-58420000D02*
X168275000Y-55245000D01*
X147320000Y-78740000D02*
X147320000Y-76835000D01*
X147320000Y-71120000D02*
X148590000Y-69850000D01*
X147320000Y-71755000D02*
X147320000Y-71120000D01*
X152400000Y-55245000D02*
X152400000Y-52070000D01*
X168910000Y-52705000D02*
X168910000Y-51435000D01*
X168275000Y-53340000D02*
X168910000Y-52705000D01*
X164465000Y-53340000D02*
X168275000Y-53340000D01*
X163195000Y-52070000D02*
X164465000Y-53340000D01*
X163195000Y-50800000D02*
X163195000Y-52070000D01*
X162560000Y-50165000D02*
X163195000Y-50800000D01*
X157480000Y-50165000D02*
X162560000Y-50165000D01*
X149225000Y-51435000D02*
X147955000Y-50165000D01*
X151765000Y-51435000D02*
X149225000Y-51435000D01*
X152400000Y-52070000D02*
X151765000Y-51435000D01*
X160655000Y-81280000D02*
X158750000Y-81280000D01*
X147955000Y-83185000D02*
X145415000Y-80645000D01*
X156845000Y-83185000D02*
X147955000Y-83185000D01*
X158750000Y-81280000D02*
X156845000Y-83185000D01*
X144780000Y-81280000D02*
X145415000Y-80645000D01*
X145415000Y-80645000D02*
X147320000Y-78740000D01*
X131445000Y-55245000D02*
X132715000Y-55245000D01*
X145415000Y-68580000D02*
X147320000Y-68580000D01*
X137160000Y-59690000D02*
X145415000Y-59690000D01*
X132715000Y-55245000D02*
X137160000Y-59690000D01*
X152400000Y-55245000D02*
X152400000Y-59055000D01*
X152400000Y-59055000D02*
X151765000Y-59690000D01*
X151765000Y-59690000D02*
X151765000Y-66675000D01*
X151765000Y-66675000D02*
X148590000Y-69850000D01*
X149860000Y-71120000D02*
X148590000Y-69850000D01*
X148590000Y-69850000D02*
X147320000Y-68580000D01*
X131445000Y-53340000D02*
X131445000Y-55245000D01*
X129540000Y-55245000D02*
X131445000Y-55245000D01*
X84455000Y-52705000D02*
X84455000Y-54610000D01*
X84455000Y-54610000D02*
X93980000Y-54610000D01*
X108585000Y-54610000D02*
X109220000Y-53975000D01*
X93980000Y-54610000D02*
X107950000Y-54610000D01*
X107950000Y-54610000D02*
X108585000Y-54610000D01*
X114935000Y-40005000D02*
X114935000Y-40640000D01*
X112395000Y-50800000D02*
X109220000Y-53975000D01*
X112395000Y-43180000D02*
X112395000Y-50800000D01*
X114935000Y-40640000D02*
X112395000Y-43180000D01*
X107950000Y-52705000D02*
X109220000Y-53975000D01*
X109220000Y-53975000D02*
X110490000Y-55245000D01*
X48895000Y-52705000D02*
X48895000Y-60960000D01*
X48895000Y-60960000D02*
X51435000Y-63500000D01*
X66675000Y-50800000D02*
X66675000Y-52070000D01*
X66040000Y-60325000D02*
X62230000Y-64135000D01*
X66040000Y-52705000D02*
X66040000Y-60325000D01*
X66675000Y-52070000D02*
X66040000Y-52705000D01*
X64135000Y-66040000D02*
X62230000Y-64135000D01*
X62230000Y-64135000D02*
X61595000Y-63500000D01*
X61595000Y-63500000D02*
X51435000Y-63500000D01*
X50800000Y-72390000D02*
X53340000Y-72390000D01*
X50800000Y-64135000D02*
X50800000Y-72390000D01*
X51435000Y-63500000D02*
X50800000Y-64135000D01*
X111760000Y-73025000D02*
X114300000Y-73025000D01*
X99060000Y-79375000D02*
X99060000Y-73025000D01*
X107950000Y-78105000D02*
X107950000Y-79375000D01*
X114300000Y-78105000D02*
X107950000Y-78105000D01*
X96520000Y-64770000D02*
X97155000Y-64770000D01*
X97155000Y-64770000D02*
X99060000Y-62865000D01*
X129540000Y-62865000D02*
X129540000Y-70485000D01*
X99060000Y-62865000D02*
X129540000Y-62865000D01*
X92075000Y-64770000D02*
X93980000Y-64770000D01*
X93980000Y-64770000D02*
X96520000Y-64770000D01*
X96520000Y-73025000D02*
X99060000Y-73025000D01*
X96520000Y-64770000D02*
X96520000Y-73025000D01*
X135255000Y-70485000D02*
X129540000Y-70485000D01*
X84455000Y-77470000D02*
X85725000Y-77470000D01*
X85090000Y-83185000D02*
X85090000Y-85090000D01*
X86360000Y-81915000D02*
X85090000Y-83185000D01*
X86360000Y-78105000D02*
X86360000Y-81915000D01*
X85725000Y-77470000D02*
X86360000Y-78105000D01*
X92075000Y-64770000D02*
X84455000Y-64770000D01*
X84455000Y-77470000D02*
X84455000Y-74930000D01*
X84455000Y-74930000D02*
X84455000Y-72390000D01*
X80010000Y-73025000D02*
X84455000Y-73025000D01*
X84455000Y-73025000D02*
X84455000Y-72390000D01*
X84455000Y-72390000D02*
X84455000Y-69850000D01*
X84455000Y-69850000D02*
X84455000Y-67310000D01*
X84455000Y-67310000D02*
X84455000Y-64770000D01*
X53340000Y-72390000D02*
X53340000Y-77470000D01*
X47625000Y-91440000D02*
X51435000Y-91440000D01*
X47625000Y-83185000D02*
X47625000Y-91440000D01*
X53340000Y-77470000D02*
X47625000Y-83185000D01*
X80010000Y-73025000D02*
X77470000Y-73025000D01*
X77470000Y-73025000D02*
X74930000Y-73025000D01*
X74930000Y-73025000D02*
X72390000Y-73025000D01*
X72390000Y-73025000D02*
X69850000Y-73025000D01*
X69850000Y-73025000D02*
X67310000Y-73025000D01*
X67310000Y-73025000D02*
X64770000Y-73025000D01*
X64770000Y-73025000D02*
X62230000Y-73025000D01*
X62230000Y-73025000D02*
X60960000Y-72390000D01*
X60960000Y-72390000D02*
X53340000Y-72390000D01*
X40640000Y-113030000D02*
X45720000Y-113030000D01*
X45720000Y-113030000D02*
X48260000Y-113030000D01*
X54460000Y-119230000D02*
X54460000Y-120015000D01*
X48260000Y-113030000D02*
X54460000Y-119230000D01*
X90130000Y-93980000D02*
X85090000Y-88940000D01*
X85090000Y-88940000D02*
X85090000Y-85090000D01*
X90170000Y-100330000D02*
X90170000Y-94020000D01*
X90170000Y-94020000D02*
X90130000Y-93980000D01*
X93345000Y-119340000D02*
X90805000Y-119340000D01*
X90805000Y-119340000D02*
X87630000Y-119340000D01*
X87630000Y-119340000D02*
X87630000Y-119380000D01*
X87630000Y-118745000D02*
X87630000Y-113665000D01*
X90170000Y-111125000D02*
X90170000Y-100330000D01*
X87630000Y-113665000D02*
X90170000Y-111125000D01*
X78105000Y-120650000D02*
X78105000Y-118745000D01*
X78105000Y-118745000D02*
X87630000Y-118745000D01*
X87630000Y-118745000D02*
X87630000Y-119380000D01*
X87630000Y-119380000D02*
X87630000Y-120650000D01*
X40640000Y-124540000D02*
X40560000Y-124460000D01*
X58420000Y-137795000D02*
X54460000Y-137795000D01*
X58420000Y-128270000D02*
X58420000Y-137795000D01*
X58420000Y-137795000D02*
X60960000Y-137795000D01*
X58420000Y-120650000D02*
X58420000Y-128270000D01*
X60960000Y-111125000D02*
X58420000Y-113665000D01*
X58420000Y-113665000D02*
X58420000Y-120650000D01*
X58420000Y-113665000D02*
X58420000Y-113665000D01*
X76835000Y-128270000D02*
X74295000Y-128270000D01*
X35560000Y-126365000D02*
X35560000Y-124460000D01*
X48895000Y-139700000D02*
X35560000Y-126365000D01*
X62865000Y-139700000D02*
X48895000Y-139700000D01*
X74295000Y-128270000D02*
X62865000Y-139700000D01*
X120015000Y-109260000D02*
X120015000Y-106045000D01*
X104775000Y-109220000D02*
X106680000Y-109220000D01*
X116205000Y-108585000D02*
X117475000Y-107315000D01*
X107315000Y-108585000D02*
X116205000Y-108585000D01*
X106680000Y-109220000D02*
X107315000Y-108585000D01*
X117475000Y-107315000D02*
X118070000Y-107315000D01*
X118070000Y-107315000D02*
X120015000Y-109260000D01*
X111760000Y-70485000D02*
X114300000Y-70485000D01*
X139740000Y-112395000D02*
X139740000Y-111165000D01*
X139740000Y-111165000D02*
X138430000Y-109855000D01*
X138430000Y-109855000D02*
X133350000Y-109855000D01*
X133350000Y-109855000D02*
X129540000Y-106045000D01*
X123825000Y-98425000D02*
X123825000Y-97155000D01*
X129540000Y-106045000D02*
X126365000Y-102870000D01*
X126365000Y-102870000D02*
X124460000Y-102870000D01*
X124460000Y-99060000D02*
X123825000Y-98425000D01*
X136525000Y-127000000D02*
X136525000Y-125730000D01*
X138430000Y-123825000D02*
X138430000Y-113705000D01*
X136525000Y-125730000D02*
X138430000Y-123825000D01*
X136842500Y-115252500D02*
X136882500Y-115252500D01*
X136882500Y-115252500D02*
X138430000Y-113705000D01*
X138430000Y-113705000D02*
X139740000Y-112395000D01*
X112990000Y-55245000D02*
X115570000Y-55245000D01*
X165100000Y-106680000D02*
X168275000Y-106680000D01*
X165100000Y-91440000D02*
X163830000Y-91440000D01*
X168275000Y-94615000D02*
X165100000Y-91440000D01*
X168275000Y-97155000D02*
X168275000Y-94615000D01*
X137795000Y-99060000D02*
X140970000Y-99060000D01*
X145415000Y-88265000D02*
X147320000Y-86360000D01*
X145415000Y-94615000D02*
X145415000Y-88265000D01*
X140970000Y-99060000D02*
X145415000Y-94615000D01*
X165100000Y-106680000D02*
X160655000Y-106680000D01*
X151765000Y-106045000D02*
X150495000Y-107315000D01*
X160020000Y-106045000D02*
X151765000Y-106045000D01*
X160655000Y-106680000D02*
X160020000Y-106045000D01*
X150495000Y-107315000D02*
X151130000Y-107950000D01*
X148590000Y-105370000D02*
X148590000Y-105410000D01*
X148590000Y-105410000D02*
X151130000Y-107950000D01*
X144780000Y-83780000D02*
X144780000Y-83820000D01*
X137795000Y-99060000D02*
X136525000Y-99060000D01*
X132715000Y-95250000D02*
X121920000Y-95250000D01*
X136525000Y-99060000D02*
X132715000Y-95250000D01*
X121285000Y-94575000D02*
X121285000Y-94615000D01*
X121285000Y-94615000D02*
X121920000Y-95250000D01*
X121920000Y-95250000D02*
X123825000Y-97155000D01*
X160655000Y-83820000D02*
X163830000Y-83820000D01*
X156845000Y-70485000D02*
X154940000Y-68580000D01*
X163830000Y-83820000D02*
X163830000Y-77470000D01*
X163830000Y-74930000D02*
X163830000Y-71120000D01*
X163830000Y-71120000D02*
X163195000Y-70485000D01*
X163195000Y-70485000D02*
X159385000Y-70485000D01*
X152360000Y-71120000D02*
X152360000Y-72985000D01*
X152360000Y-72985000D02*
X152320000Y-73025000D01*
X152320000Y-73025000D02*
X145415000Y-73025000D01*
X145415000Y-73025000D02*
X145415000Y-69850000D01*
X145415000Y-69850000D02*
X142240000Y-69850000D01*
X160655000Y-83820000D02*
X158750000Y-83820000D01*
X145415000Y-84455000D02*
X145415000Y-84415000D01*
X145455000Y-84455000D02*
X145415000Y-84455000D01*
X146685000Y-84455000D02*
X145455000Y-84455000D01*
X158115000Y-84455000D02*
X146685000Y-84455000D01*
X158750000Y-83820000D02*
X158115000Y-84455000D01*
X144780000Y-83780000D02*
X145415000Y-84415000D01*
X145415000Y-84415000D02*
X147320000Y-86320000D01*
X147320000Y-86320000D02*
X147320000Y-86360000D01*
X154940000Y-55245000D02*
X154940000Y-58420000D01*
X153035000Y-68580000D02*
X153035000Y-70485000D01*
X153035000Y-60325000D02*
X153035000Y-68580000D01*
X154940000Y-58420000D02*
X153035000Y-60325000D01*
X152360000Y-71120000D02*
X152400000Y-71120000D01*
X152400000Y-71120000D02*
X153035000Y-70485000D01*
X153035000Y-70485000D02*
X154940000Y-68580000D01*
X117475000Y-40005000D02*
X117475000Y-40640000D01*
X113665000Y-52070000D02*
X114915000Y-53320000D01*
X113665000Y-44450000D02*
X113665000Y-52070000D01*
X114300000Y-43815000D02*
X113665000Y-44450000D01*
X117475000Y-40640000D02*
X114300000Y-43815000D01*
X114915000Y-53320000D02*
X115570000Y-52705000D01*
X115570000Y-52705000D02*
X115530000Y-52705000D01*
X115530000Y-52705000D02*
X112990000Y-55245000D01*
X69215000Y-50800000D02*
X69215000Y-51435000D01*
X67310000Y-62865000D02*
X68580000Y-64135000D01*
X67310000Y-53340000D02*
X67310000Y-62865000D01*
X69215000Y-51435000D02*
X67310000Y-53340000D01*
X68580000Y-64135000D02*
X69215000Y-63500000D01*
X66635000Y-66040000D02*
X66635000Y-70485000D01*
X66635000Y-70485000D02*
X66675000Y-70485000D01*
X66635000Y-66040000D02*
X66675000Y-66040000D01*
X66675000Y-66040000D02*
X69215000Y-63500000D01*
X135255000Y-67945000D02*
X131445000Y-67945000D01*
X131445000Y-61595000D02*
X115570000Y-61595000D01*
X131445000Y-67945000D02*
X131445000Y-61595000D01*
X115570000Y-61595000D02*
X114300000Y-61595000D01*
X114300000Y-61595000D02*
X98425000Y-61595000D01*
X75565000Y-70485000D02*
X66675000Y-70485000D01*
X83185000Y-62865000D02*
X75565000Y-70485000D01*
X97155000Y-62865000D02*
X83185000Y-62865000D01*
X98425000Y-61595000D02*
X97155000Y-62865000D01*
X58420000Y-80010000D02*
X55880000Y-80010000D01*
X66675000Y-70485000D02*
X58420000Y-70485000D01*
X137160000Y-67945000D02*
X135255000Y-67945000D01*
X137160000Y-69850000D02*
X137160000Y-67945000D01*
X84455000Y-80010000D02*
X82550000Y-81915000D01*
X82550000Y-81915000D02*
X82550000Y-85090000D01*
X47625000Y-119380000D02*
X47625000Y-121920000D01*
X51435000Y-88900000D02*
X54610000Y-88900000D01*
X44450000Y-106680000D02*
X31750000Y-119380000D01*
X48895000Y-106680000D02*
X44450000Y-106680000D01*
X54610000Y-100965000D02*
X48895000Y-106680000D01*
X54610000Y-88900000D02*
X54610000Y-92075000D01*
X55880000Y-80010000D02*
X53340000Y-80010000D01*
X53340000Y-80010000D02*
X49530000Y-83820000D01*
X49530000Y-83820000D02*
X49530000Y-88900000D01*
X49530000Y-88900000D02*
X51435000Y-88900000D01*
X87630000Y-93980000D02*
X82550000Y-88900000D01*
X82550000Y-88900000D02*
X82550000Y-85090000D01*
X87630000Y-100330000D02*
X87630000Y-93980000D01*
X87630000Y-100330000D02*
X87630000Y-108585000D01*
X86360000Y-122555000D02*
X84455000Y-120650000D01*
X88900000Y-122555000D02*
X86360000Y-122555000D01*
X90170000Y-121285000D02*
X88900000Y-122555000D01*
X94615000Y-121285000D02*
X90170000Y-121285000D01*
X99695000Y-116205000D02*
X94615000Y-121285000D01*
X99695000Y-111125000D02*
X99695000Y-116205000D01*
X97155000Y-108585000D02*
X99695000Y-111125000D01*
X76835000Y-125095000D02*
X78105000Y-123825000D01*
X78105000Y-123825000D02*
X81280000Y-120650000D01*
X81280000Y-120650000D02*
X84455000Y-120650000D01*
X76835000Y-125095000D02*
X76835000Y-128270000D01*
X50800000Y-121920000D02*
X47625000Y-121920000D01*
X47625000Y-121920000D02*
X36830000Y-121920000D01*
X36830000Y-121920000D02*
X35560000Y-123190000D01*
X50800000Y-119380000D02*
X47625000Y-119380000D01*
X25400000Y-113030000D02*
X31750000Y-119380000D01*
X31750000Y-119380000D02*
X35560000Y-123190000D01*
X35560000Y-123190000D02*
X35560000Y-124460000D01*
D29*
X154305000Y-21590000D02*
X156845000Y-24130000D01*
X111125000Y-21590000D02*
X154305000Y-21590000D01*
X107870000Y-24845000D02*
X111125000Y-21590000D01*
X107870000Y-29845000D02*
X107870000Y-24845000D01*
X102870000Y-29845000D02*
X107870000Y-29845000D01*
X97155000Y-24130000D02*
X102870000Y-29845000D01*
X75565000Y-24130000D02*
X97155000Y-24130000D01*
X75565000Y-24130000D02*
X75565000Y-29130000D01*
X74295000Y-22860000D02*
X75565000Y-24130000D01*
X41275000Y-22860000D02*
X74295000Y-22860000D01*
X40005000Y-24130000D02*
X41275000Y-22860000D01*
X40005000Y-29130000D02*
X40005000Y-24130000D01*
X36275000Y-29130000D02*
X40005000Y-29130000D01*
X27940000Y-37465000D02*
X36275000Y-29130000D01*
X27940000Y-38100000D02*
X27940000Y-37465000D01*
X191215000Y-128905000D02*
X191215000Y-132635000D01*
X154940000Y-138430000D02*
X151130000Y-134620000D01*
X185420000Y-138430000D02*
X154940000Y-138430000D01*
X191215000Y-132635000D02*
X185420000Y-138430000D01*
X151130000Y-134620000D02*
X146130000Y-134620000D01*
X196215000Y-81915000D02*
X196215000Y-85090000D01*
X196215000Y-124460000D02*
X196215000Y-128905000D01*
X205105000Y-115570000D02*
X196215000Y-124460000D01*
X205105000Y-93980000D02*
X205105000Y-115570000D01*
X196215000Y-85090000D02*
X205105000Y-93980000D01*
X196215000Y-128905000D02*
X191215000Y-128905000D01*
X191215000Y-81915000D02*
X196215000Y-81915000D01*
X196215000Y-81915000D02*
X203200000Y-74930000D01*
X203200000Y-74930000D02*
X203200000Y-36830000D01*
X203200000Y-36830000D02*
X195500000Y-29130000D01*
X195500000Y-29130000D02*
X190500000Y-29130000D01*
X156845000Y-24130000D02*
X190500000Y-24130000D01*
X190500000Y-24130000D02*
X190500000Y-29130000D01*
X156845000Y-24130000D02*
X156845000Y-29130000D01*
X27940000Y-53660000D02*
X27940000Y-50165000D01*
X31750000Y-38100000D02*
X27940000Y-38100000D01*
X31750000Y-46355000D02*
X31750000Y-38100000D01*
X27940000Y-50165000D02*
X31750000Y-46355000D01*
X27940000Y-53660000D02*
X27940000Y-58660000D01*
D28*
X78105000Y-110490000D02*
X80010000Y-110490000D01*
X80010000Y-107950000D02*
X80010000Y-110490000D01*
X80010000Y-110490000D02*
X81280000Y-110490000D01*
X80010000Y-100330000D02*
X80010000Y-105410000D01*
X85090000Y-107950000D02*
X84455000Y-108585000D01*
X84455000Y-108585000D02*
X84455000Y-110490000D01*
X87630000Y-110490000D02*
X84455000Y-110490000D01*
X82550000Y-100330000D02*
X82550000Y-102870000D01*
X82550000Y-102870000D02*
X85090000Y-105410000D01*
D29*
X83820000Y-32385000D02*
X83820000Y-30480000D01*
X127635000Y-25400000D02*
X130810000Y-28575000D01*
X113665000Y-25400000D02*
X127635000Y-25400000D01*
X113665000Y-33655000D02*
X113665000Y-25400000D01*
X99060000Y-33655000D02*
X113665000Y-33655000D01*
X94615000Y-29210000D02*
X99060000Y-33655000D01*
X85090000Y-29210000D02*
X94615000Y-29210000D01*
X83820000Y-30480000D02*
X85090000Y-29210000D01*
X167640000Y-131445000D02*
X167640000Y-133350000D01*
X107315000Y-138430000D02*
X107315000Y-133350000D01*
X138430000Y-138430000D02*
X107315000Y-138430000D01*
X141605000Y-135255000D02*
X138430000Y-138430000D01*
X141605000Y-132080000D02*
X141605000Y-135255000D01*
X142875000Y-130810000D02*
X141605000Y-132080000D01*
X155575000Y-130810000D02*
X142875000Y-130810000D01*
X160020000Y-135255000D02*
X155575000Y-130810000D01*
X165735000Y-135255000D02*
X160020000Y-135255000D01*
X167640000Y-133350000D02*
X165735000Y-135255000D01*
X195580000Y-93345000D02*
X199390000Y-93345000D01*
X170180000Y-133985000D02*
X167640000Y-131445000D01*
X184150000Y-133985000D02*
X170180000Y-133985000D01*
X186690000Y-131445000D02*
X184150000Y-133985000D01*
X186690000Y-125095000D02*
X186690000Y-131445000D01*
X188595000Y-123190000D02*
X186690000Y-125095000D01*
X189865000Y-123190000D02*
X188595000Y-123190000D01*
X200660000Y-112395000D02*
X189865000Y-123190000D01*
X200660000Y-94615000D02*
X200660000Y-112395000D01*
X199390000Y-93345000D02*
X200660000Y-94615000D01*
X195580000Y-56515000D02*
X198120000Y-56515000D01*
X186690000Y-83185000D02*
X195580000Y-92075000D01*
X186690000Y-78105000D02*
X186690000Y-83185000D01*
X188595000Y-76200000D02*
X186690000Y-78105000D01*
X193675000Y-76200000D02*
X188595000Y-76200000D01*
X199390000Y-70485000D02*
X193675000Y-76200000D01*
X199390000Y-57785000D02*
X199390000Y-70485000D01*
X198120000Y-56515000D02*
X199390000Y-57785000D01*
X195580000Y-92075000D02*
X195580000Y-93345000D01*
X165100000Y-32385000D02*
X165100000Y-27940000D01*
X196850000Y-55245000D02*
X195580000Y-56515000D01*
X196850000Y-36195000D02*
X196850000Y-55245000D01*
X194945000Y-34290000D02*
X196850000Y-36195000D01*
X186055000Y-34290000D02*
X194945000Y-34290000D01*
X179705000Y-27940000D02*
X186055000Y-34290000D01*
X165100000Y-27940000D02*
X179705000Y-27940000D01*
X165100000Y-32385000D02*
X163830000Y-33655000D01*
X163830000Y-33655000D02*
X153035000Y-33655000D01*
X153035000Y-33655000D02*
X147955000Y-28575000D01*
X147955000Y-28575000D02*
X130810000Y-28575000D01*
X130810000Y-28575000D02*
X130810000Y-32385000D01*
X48260000Y-32385000D02*
X48260000Y-27940000D01*
X81915000Y-34290000D02*
X83820000Y-32385000D01*
X71755000Y-34290000D02*
X81915000Y-34290000D01*
X65405000Y-27940000D02*
X71755000Y-34290000D01*
X48260000Y-27940000D02*
X65405000Y-27940000D01*
X48260000Y-32385000D02*
X46355000Y-34290000D01*
X35560000Y-58420000D02*
X30480000Y-63500000D01*
X35560000Y-37465000D02*
X35560000Y-58420000D01*
X38735000Y-34290000D02*
X35560000Y-37465000D01*
X46355000Y-34290000D02*
X38735000Y-34290000D01*
X22860000Y-63500000D02*
X22860000Y-48260000D01*
X22860000Y-48260000D02*
X27940000Y-43180000D01*
X36830000Y-67310000D02*
X34290000Y-67310000D01*
X34290000Y-67310000D02*
X30480000Y-63500000D01*
X30480000Y-63500000D02*
X22860000Y-63500000D01*
X27940000Y-83820000D02*
X30480000Y-83820000D01*
X22860000Y-63500000D02*
X22860000Y-78740000D01*
X22860000Y-78740000D02*
X27940000Y-83820000D01*
D28*
X41910000Y-67310000D02*
X38100000Y-63500000D01*
X38100000Y-63500000D02*
X35560000Y-63500000D01*
X92075000Y-77470000D02*
X95250000Y-77470000D01*
X95250000Y-77470000D02*
X95250000Y-67945000D01*
X109220000Y-70485000D02*
X109220000Y-67945000D01*
X119380000Y-67945000D02*
X119380000Y-70485000D01*
X109220000Y-67945000D02*
X119380000Y-67945000D01*
X92075000Y-80010000D02*
X92075000Y-77470000D01*
X92075000Y-69850000D02*
X93980000Y-69850000D01*
X93980000Y-69850000D02*
X93980000Y-66675000D01*
X106680000Y-70485000D02*
X106680000Y-66675000D01*
X121920000Y-66675000D02*
X121920000Y-70485000D01*
X106680000Y-66675000D02*
X121920000Y-66675000D01*
X92075000Y-72390000D02*
X92075000Y-69850000D01*
X105410000Y-100330000D02*
X105410000Y-95250000D01*
X107315000Y-93345000D02*
X116840000Y-93345000D01*
X105410000Y-95250000D02*
X107315000Y-93345000D01*
X104140000Y-70485000D02*
X104140000Y-65405000D01*
X124460000Y-65405000D02*
X124460000Y-70485000D01*
X104140000Y-65405000D02*
X116840000Y-65405000D01*
X116840000Y-65405000D02*
X124460000Y-65405000D01*
X102870000Y-100330000D02*
X102870000Y-95885000D01*
X106680000Y-92075000D02*
X115570000Y-92075000D01*
X102870000Y-95885000D02*
X106680000Y-92075000D01*
X101600000Y-70485000D02*
X101600000Y-64135000D01*
X127000000Y-64135000D02*
X127000000Y-70485000D01*
X101600000Y-64135000D02*
X115570000Y-64135000D01*
X115570000Y-64135000D02*
X127000000Y-64135000D01*
X97790000Y-85090000D02*
X97790000Y-83185000D01*
X106680000Y-83185000D02*
X106680000Y-76835000D01*
X101600000Y-73025000D02*
X101600000Y-76835000D01*
X127000000Y-76835000D02*
X127000000Y-73025000D01*
X101600000Y-76835000D02*
X106680000Y-76835000D01*
X106680000Y-76835000D02*
X107950000Y-76835000D01*
X107950000Y-76835000D02*
X127000000Y-76835000D01*
X102870000Y-85090000D02*
X102870000Y-80645000D01*
X102870000Y-80645000D02*
X104140000Y-80645000D01*
X104140000Y-80645000D02*
X104140000Y-78105000D01*
X104140000Y-73025000D02*
X104140000Y-75565000D01*
X124460000Y-75565000D02*
X124460000Y-73025000D01*
X104140000Y-75565000D02*
X124460000Y-75565000D01*
X173990000Y-108585000D02*
X172085000Y-108585000D01*
X172085000Y-108585000D02*
X167640000Y-113030000D01*
X182245000Y-121285000D02*
X184150000Y-119380000D01*
X183515000Y-108585000D02*
X181610000Y-108585000D01*
X184150000Y-109220000D02*
X183515000Y-108585000D01*
X184150000Y-119380000D02*
X184150000Y-109220000D01*
X109855000Y-114300000D02*
X109855000Y-116205000D01*
X149288500Y-124904500D02*
X149225000Y-120650000D01*
X131445000Y-120650000D02*
X131445000Y-124904500D01*
X128270000Y-117475000D02*
X131445000Y-120650000D01*
X111125000Y-117475000D02*
X128270000Y-117475000D01*
X109855000Y-116205000D02*
X111125000Y-117475000D01*
X158750000Y-98425000D02*
X161925000Y-98425000D01*
X147002500Y-122872500D02*
X144462500Y-122872500D01*
X154940000Y-114935000D02*
X149225000Y-120650000D01*
X149225000Y-120650000D02*
X147002500Y-122872500D01*
X158750000Y-114935000D02*
X154940000Y-114935000D01*
X161925000Y-111760000D02*
X158750000Y-114935000D01*
X161925000Y-110490000D02*
X161925000Y-111760000D01*
X158750000Y-100330000D02*
X158750000Y-98425000D01*
X141605000Y-85725000D02*
X139382500Y-83502500D01*
X141605000Y-94615000D02*
X141605000Y-85725000D01*
X154940000Y-94615000D02*
X149225000Y-94615000D01*
X158750000Y-98425000D02*
X154940000Y-94615000D01*
X131445000Y-89535000D02*
X131445000Y-85725000D01*
X132715000Y-84455000D02*
X131445000Y-85725000D01*
X138430000Y-84455000D02*
X132715000Y-84455000D01*
X144145000Y-78740000D02*
X139382500Y-83502500D01*
X139382500Y-83502500D02*
X138430000Y-84455000D01*
X144145000Y-76835000D02*
X144145000Y-78740000D01*
X136525000Y-60960000D02*
X140335000Y-64770000D01*
X154940000Y-76835000D02*
X154940000Y-78740000D01*
X152400000Y-74295000D02*
X154940000Y-76835000D01*
X144145000Y-74295000D02*
X152400000Y-74295000D01*
X144145000Y-71120000D02*
X144145000Y-74295000D01*
X140335000Y-64770000D02*
X144145000Y-64770000D01*
X104140000Y-45085000D02*
X104140000Y-38100000D01*
X136525000Y-60960000D02*
X147320000Y-60960000D01*
X133350000Y-57785000D02*
X136525000Y-60960000D01*
X126365000Y-57785000D02*
X133350000Y-57785000D01*
X123190000Y-54610000D02*
X126365000Y-57785000D01*
X123190000Y-37465000D02*
X123190000Y-54610000D01*
X122555000Y-36830000D02*
X123190000Y-37465000D01*
X105410000Y-36830000D02*
X122555000Y-36830000D01*
X104140000Y-38100000D02*
X105410000Y-36830000D01*
X107950000Y-45085000D02*
X104140000Y-45085000D01*
X56515000Y-49530000D02*
X56515000Y-53975000D01*
X57785000Y-48260000D02*
X56515000Y-49530000D01*
X73025000Y-48260000D02*
X57785000Y-48260000D01*
X74295000Y-49530000D02*
X73025000Y-48260000D01*
X90805000Y-49530000D02*
X74295000Y-49530000D01*
X92075000Y-48260000D02*
X90805000Y-49530000D01*
X100965000Y-48260000D02*
X92075000Y-48260000D01*
X104140000Y-45085000D02*
X100965000Y-48260000D01*
X55880000Y-69850000D02*
X55880000Y-64770000D01*
X59690000Y-53975000D02*
X61595000Y-55880000D01*
X55245000Y-53975000D02*
X56515000Y-53975000D01*
X56515000Y-53975000D02*
X59690000Y-53975000D01*
X53975000Y-55245000D02*
X55245000Y-53975000D01*
X53975000Y-59055000D02*
X53975000Y-55245000D01*
X55880000Y-60960000D02*
X53975000Y-59055000D01*
X53340000Y-69850000D02*
X55880000Y-69850000D01*
X126365000Y-120650000D02*
X126365000Y-122555000D01*
X118110000Y-122555000D02*
X118110000Y-119380000D01*
X126365000Y-122555000D02*
X118110000Y-122555000D01*
X116205000Y-132080000D02*
X121920000Y-132080000D01*
X126365000Y-128905000D02*
X126365000Y-128270000D01*
X125095000Y-130175000D02*
X126365000Y-128905000D01*
X123825000Y-130175000D02*
X125095000Y-130175000D01*
X121920000Y-132080000D02*
X123825000Y-130175000D01*
X93345000Y-50165000D02*
X92710000Y-50165000D01*
X92710000Y-50165000D02*
X92075000Y-50800000D01*
X92075000Y-50800000D02*
X82550000Y-50800000D01*
X82550000Y-50800000D02*
X81915000Y-51435000D01*
X81915000Y-51435000D02*
X81915000Y-52705000D01*
X81915000Y-42545000D02*
X81915000Y-45085000D01*
X46355000Y-52705000D02*
X46355000Y-55880000D01*
X46355000Y-45085000D02*
X46355000Y-42545000D01*
X141605000Y-52705000D02*
X140335000Y-51435000D01*
X128905000Y-52070000D02*
X128905000Y-53340000D01*
X129540000Y-51435000D02*
X128905000Y-52070000D01*
X140335000Y-51435000D02*
X129540000Y-51435000D01*
X128905000Y-43180000D02*
X128905000Y-45720000D01*
X163195000Y-47625000D02*
X166370000Y-50800000D01*
X166370000Y-50800000D02*
X166370000Y-51435000D01*
X163195000Y-40640000D02*
X166370000Y-43815000D01*
X176530000Y-55880000D02*
X173355000Y-55880000D01*
X180340000Y-50165000D02*
X184150000Y-53975000D01*
X184150000Y-53975000D02*
X184150000Y-55880000D01*
X176530000Y-95250000D02*
X172085000Y-95250000D01*
X170815000Y-93980000D02*
X170815000Y-88900000D01*
X172085000Y-95250000D02*
X170815000Y-93980000D01*
X184150000Y-95250000D02*
X184150000Y-92075000D01*
X181610000Y-89535000D02*
X176530000Y-89535000D01*
X184150000Y-92075000D02*
X181610000Y-89535000D01*
X133350000Y-111125000D02*
X132080000Y-111125000D01*
X125730000Y-104775000D02*
X132080000Y-111125000D01*
X124460000Y-104775000D02*
X125730000Y-104775000D01*
X97790000Y-100330000D02*
X97790000Y-102870000D01*
X97790000Y-102870000D02*
X99060000Y-104140000D01*
X99060000Y-104140000D02*
X111760000Y-104140000D01*
X111760000Y-104140000D02*
X112395000Y-104775000D01*
X112395000Y-104775000D02*
X112395000Y-106680000D01*
X136842500Y-120332500D02*
X135572500Y-120332500D01*
X133350000Y-118110000D02*
X133350000Y-111125000D01*
X135572500Y-120332500D02*
X133350000Y-118110000D01*
X156210000Y-107950000D02*
X156210000Y-109855000D01*
X144780000Y-107315000D02*
X134620000Y-107315000D01*
X148590000Y-111125000D02*
X144780000Y-107315000D01*
X154940000Y-111125000D02*
X148590000Y-111125000D01*
X156210000Y-109855000D02*
X154940000Y-111125000D01*
X159385000Y-88265000D02*
X159385000Y-90805000D01*
X134620000Y-103505000D02*
X133350000Y-102235000D01*
X133350000Y-102235000D02*
X128905000Y-97790000D01*
X139700000Y-103505000D02*
X134620000Y-103505000D01*
X140335000Y-102870000D02*
X139700000Y-103505000D01*
X140335000Y-101600000D02*
X140335000Y-102870000D01*
X146685000Y-95250000D02*
X140335000Y-101600000D01*
X146685433Y-90879143D02*
X146685000Y-95250000D01*
X159385000Y-90805000D02*
X146685433Y-90879143D01*
X128905000Y-97790000D02*
X128905000Y-97155000D01*
X152400000Y-86360000D02*
X152400000Y-87630000D01*
X163195000Y-55245000D02*
X161290000Y-55245000D01*
X166370000Y-58420000D02*
X163195000Y-55245000D01*
X166370000Y-84455000D02*
X166370000Y-58420000D01*
X162560000Y-88265000D02*
X166370000Y-84455000D01*
X153035000Y-88265000D02*
X159385000Y-88265000D01*
X159385000Y-88265000D02*
X162560000Y-88265000D01*
X152400000Y-87630000D02*
X153035000Y-88265000D01*
X154940000Y-63500000D02*
X156845000Y-63500000D01*
X161290000Y-52705000D02*
X161290000Y-55245000D01*
X161290000Y-55245000D02*
X161290000Y-63500000D01*
X160020000Y-51435000D02*
X161290000Y-52705000D01*
X156210000Y-51435000D02*
X160020000Y-51435000D01*
X156210000Y-51435000D02*
X156210000Y-51435000D01*
X153670000Y-48895000D02*
X156210000Y-51435000D01*
X144145000Y-48895000D02*
X145415000Y-47625000D01*
X145415000Y-47625000D02*
X149860000Y-47625000D01*
X149860000Y-47625000D02*
X151130000Y-48895000D01*
X151130000Y-48895000D02*
X153670000Y-48895000D01*
X124460000Y-48895000D02*
X139700000Y-48895000D01*
X139700000Y-48895000D02*
X144145000Y-48895000D01*
X69215000Y-58420000D02*
X70485000Y-58420000D01*
X119380000Y-47625000D02*
X115570000Y-47625000D01*
X119380000Y-54610000D02*
X119380000Y-48895000D01*
X119380000Y-48895000D02*
X119380000Y-47625000D01*
X116840000Y-57150000D02*
X119380000Y-54610000D01*
X71755000Y-57150000D02*
X116840000Y-57150000D01*
X70485000Y-58420000D02*
X71755000Y-57150000D01*
X114935000Y-102235000D02*
X118745000Y-102235000D01*
X131445000Y-113030000D02*
X132080000Y-113030000D01*
X124460000Y-106045000D02*
X131445000Y-113030000D01*
X123825000Y-106045000D02*
X124460000Y-106045000D01*
X123190000Y-105410000D02*
X123825000Y-106045000D01*
X123190000Y-103505000D02*
X123190000Y-105410000D01*
X118745000Y-102235000D02*
X120015000Y-103505000D01*
X100330000Y-100330000D02*
X100330000Y-102235000D01*
X114935000Y-104775000D02*
X114935000Y-106680000D01*
X114935000Y-102235000D02*
X114935000Y-104775000D01*
X100330000Y-102235000D02*
X114935000Y-102235000D01*
X136842500Y-117792500D02*
X135572500Y-117792500D01*
X135572500Y-117792500D02*
X134620000Y-116840000D01*
X134620000Y-116840000D02*
X134620000Y-113030000D01*
X134620000Y-113030000D02*
X136525000Y-111125000D01*
X153670000Y-107950000D02*
X153670000Y-109855000D01*
X149225000Y-109855000D02*
X144145000Y-104775000D01*
X153670000Y-109855000D02*
X149225000Y-109855000D01*
X149860000Y-89535000D02*
X147955000Y-89535000D01*
X126365000Y-98425000D02*
X126365000Y-97155000D01*
X127000000Y-99060000D02*
X126365000Y-98425000D01*
X128270000Y-99060000D02*
X127000000Y-99060000D01*
X133985000Y-104775000D02*
X128270000Y-99060000D01*
X140335000Y-104775000D02*
X136525000Y-104775000D01*
X136525000Y-104775000D02*
X133985000Y-104775000D01*
X141605000Y-103505000D02*
X140335000Y-104775000D01*
X141605000Y-102870000D02*
X141605000Y-103505000D01*
X141605000Y-102235000D02*
X141605000Y-102870000D01*
X147961070Y-95893697D02*
X141605000Y-102235000D01*
X147990670Y-95249599D02*
X147961070Y-95893697D01*
X147955000Y-92075000D02*
X147990670Y-95249599D01*
X149860000Y-86360000D02*
X149860000Y-89535000D01*
X158115000Y-66675000D02*
X157480000Y-66040000D01*
X158115000Y-75565000D02*
X158115000Y-66675000D01*
X149860000Y-89535000D02*
X158115000Y-89535000D01*
X149860000Y-89535000D02*
X149860000Y-89535000D01*
X154940000Y-66040000D02*
X157480000Y-66040000D01*
X160020000Y-63500000D02*
X157480000Y-66040000D01*
X160020000Y-53340000D02*
X160020000Y-63500000D01*
X159385000Y-52705000D02*
X160020000Y-53340000D01*
X154940000Y-52705000D02*
X159385000Y-52705000D01*
X152400000Y-50165000D02*
X154940000Y-52705000D01*
X125730000Y-50165000D02*
X145415000Y-50165000D01*
X145415000Y-50165000D02*
X146685000Y-48895000D01*
X146685000Y-48895000D02*
X148590000Y-48895000D01*
X148590000Y-48895000D02*
X149860000Y-50165000D01*
X149860000Y-50165000D02*
X152400000Y-50165000D01*
X124460000Y-51435000D02*
X125730000Y-50165000D01*
X69215000Y-60960000D02*
X70485000Y-60960000D01*
X117475000Y-50165000D02*
X115570000Y-50165000D01*
X120650000Y-55245000D02*
X120650000Y-51435000D01*
X120650000Y-51435000D02*
X120650000Y-50165000D01*
X117475000Y-58420000D02*
X120650000Y-55245000D01*
X73025000Y-58420000D02*
X117475000Y-58420000D01*
X70485000Y-60960000D02*
X73025000Y-58420000D01*
X45720000Y-63500000D02*
X45720000Y-67310000D01*
X135255000Y-73025000D02*
X129540000Y-73025000D01*
X92710000Y-100330000D02*
X92710000Y-112575000D01*
X92710000Y-112575000D02*
X90805000Y-114480000D01*
X90805000Y-114480000D02*
X90805000Y-116840000D01*
X95250000Y-100330000D02*
X95250000Y-111125000D01*
X95250000Y-111125000D02*
X97155000Y-113030000D01*
X97155000Y-113030000D02*
X93345000Y-116840000D01*
X41910000Y-72390000D02*
X45720000Y-76200000D01*
X45720000Y-69850000D02*
X39370000Y-69850000D01*
X39370000Y-69850000D02*
X36830000Y-72390000D01*
D29*
X172085000Y-121285000D02*
X172085000Y-126365000D01*
X161290000Y-121285000D02*
X161290000Y-124460000D01*
X173675000Y-126365000D02*
X176215000Y-128905000D01*
X163195000Y-126365000D02*
X172085000Y-126365000D01*
X172085000Y-126365000D02*
X173675000Y-126365000D01*
X161290000Y-124460000D02*
X163195000Y-126365000D01*
X181215000Y-128905000D02*
X176215000Y-128905000D01*
X158750000Y-121285000D02*
X158750000Y-127635000D01*
X158750000Y-127635000D02*
X162560000Y-131445000D01*
D28*
X181610000Y-113665000D02*
X181610000Y-116840000D01*
X167005000Y-121285000D02*
X163830000Y-121285000D01*
X169545000Y-118745000D02*
X167005000Y-121285000D01*
X179705000Y-118745000D02*
X169545000Y-118745000D01*
X181610000Y-116840000D02*
X179705000Y-118745000D01*
D29*
X126365000Y-134620000D02*
X125730000Y-134620000D01*
X85725000Y-131445000D02*
X85725000Y-134620000D01*
X95885000Y-131445000D02*
X85725000Y-131445000D01*
X98425000Y-128905000D02*
X95885000Y-131445000D01*
X109855000Y-128905000D02*
X98425000Y-128905000D01*
X112395000Y-131445000D02*
X109855000Y-128905000D01*
X112395000Y-134620000D02*
X112395000Y-131445000D01*
X113030000Y-135255000D02*
X112395000Y-134620000D01*
X125095000Y-135255000D02*
X113030000Y-135255000D01*
X125730000Y-134620000D02*
X125095000Y-135255000D01*
X131130000Y-134620000D02*
X126365000Y-134620000D01*
X126365000Y-134620000D02*
X126365000Y-132080000D01*
X136130000Y-134620000D02*
X131130000Y-134620000D01*
X102235000Y-133350000D02*
X100965000Y-134620000D01*
X100965000Y-134620000D02*
X88265000Y-134620000D01*
D28*
X121285000Y-128270000D02*
X112395000Y-128270000D01*
X83185000Y-129540000D02*
X83185000Y-134620000D01*
X83820000Y-128905000D02*
X83185000Y-129540000D01*
X94615000Y-128905000D02*
X83820000Y-128905000D01*
X97155000Y-126365000D02*
X94615000Y-128905000D01*
X110490000Y-126365000D02*
X97155000Y-126365000D01*
X112395000Y-128270000D02*
X110490000Y-126365000D01*
D29*
X97790000Y-39370000D02*
X91440000Y-39370000D01*
X91440000Y-39370000D02*
X90170000Y-40640000D01*
X75565000Y-44130000D02*
X75565000Y-39130000D01*
X75565000Y-39130000D02*
X88660000Y-39130000D01*
X88660000Y-39130000D02*
X90170000Y-40640000D01*
X90170000Y-40640000D02*
X92075000Y-42545000D01*
X88900000Y-32385000D02*
X93305002Y-32385000D01*
X93305002Y-32385000D02*
X97790000Y-36869998D01*
X97790000Y-36869998D02*
X97790000Y-36830000D01*
D28*
X86995000Y-45085000D02*
X93980000Y-45085000D01*
X93980000Y-45085000D02*
X97790000Y-41910000D01*
D29*
X62865000Y-38100000D02*
X57785000Y-38100000D01*
X57785000Y-38100000D02*
X54927500Y-40957500D01*
X56515000Y-42545000D02*
X54927500Y-40957500D01*
X54927500Y-40957500D02*
X53100000Y-39130000D01*
X53100000Y-39130000D02*
X40005000Y-39130000D01*
X40005000Y-39130000D02*
X40005000Y-44130000D01*
X62865000Y-35560000D02*
X59690000Y-32385000D01*
X59690000Y-32385000D02*
X53340000Y-32385000D01*
D28*
X51435000Y-45085000D02*
X58420000Y-45085000D01*
X58420000Y-45085000D02*
X62865000Y-40640000D01*
D29*
X130175000Y-38100000D02*
X139065000Y-38100000D01*
X122870000Y-30795000D02*
X130175000Y-38100000D01*
X122870000Y-29845000D02*
X122870000Y-30795000D01*
X117870000Y-29845000D02*
X122870000Y-29845000D01*
X139065000Y-43180000D02*
X139065000Y-38100000D01*
X145415000Y-38100000D02*
X139065000Y-38100000D01*
X135890000Y-32385000D02*
X142240000Y-32385000D01*
X142240000Y-32385000D02*
X145415000Y-35560000D01*
D28*
X133985000Y-45720000D02*
X139700000Y-45720000D01*
X140970000Y-45720000D02*
X145415000Y-41275000D01*
X139700000Y-45720000D02*
X140970000Y-45720000D01*
X145415000Y-41275000D02*
X145415000Y-40640000D01*
D29*
X173355000Y-40640000D02*
X173355000Y-37465000D01*
X156845000Y-44130000D02*
X156845000Y-39130000D01*
X156845000Y-39130000D02*
X158510000Y-37465000D01*
X158510000Y-37465000D02*
X173355000Y-37465000D01*
X173355000Y-37465000D02*
X175895000Y-37465000D01*
X175895000Y-37465000D02*
X176530000Y-38100000D01*
X176530000Y-38100000D02*
X179705000Y-38100000D01*
X179705000Y-35560000D02*
X176530000Y-32385000D01*
X176530000Y-32385000D02*
X170180000Y-32385000D01*
D28*
X179705000Y-40640000D02*
X176530000Y-43815000D01*
X176530000Y-43815000D02*
X171450000Y-43815000D01*
D29*
X190500000Y-44130000D02*
X190500000Y-50165000D01*
X190500000Y-50165000D02*
X189230000Y-51435000D01*
X189230000Y-51435000D02*
X189230000Y-70485000D01*
X190500000Y-39130000D02*
X190500000Y-44130000D01*
X191770000Y-70485000D02*
X195580000Y-66675000D01*
X195580000Y-66675000D02*
X195580000Y-61595000D01*
D28*
X184150000Y-60960000D02*
X184150000Y-67945000D01*
X184150000Y-67945000D02*
X186690000Y-70485000D01*
D29*
X190500000Y-107315000D02*
X190500000Y-93345000D01*
X190500000Y-93345000D02*
X186690000Y-89535000D01*
X186690000Y-89535000D02*
X186690000Y-88900000D01*
X186690000Y-88900000D02*
X181215000Y-83425000D01*
X181215000Y-83425000D02*
X181215000Y-81915000D01*
X181215000Y-81915000D02*
X176215000Y-81915000D01*
X195580000Y-98425000D02*
X195580000Y-104735002D01*
X195580000Y-104735002D02*
X193000002Y-107315000D01*
X193000002Y-107315000D02*
X193040000Y-107315000D01*
D28*
X187960000Y-107315000D02*
X184150000Y-103505000D01*
X184150000Y-103505000D02*
X184150000Y-100330000D01*
X35560000Y-76200000D02*
X35560000Y-83820000D01*
X27940000Y-68660000D02*
X27940000Y-73660000D01*
X27940000Y-73660000D02*
X30480000Y-76200000D01*
X30480000Y-76200000D02*
X35560000Y-76200000D01*
X62230000Y-100330000D02*
X61595000Y-100965000D01*
X61595000Y-100965000D02*
X56515000Y-100965000D01*
X55245000Y-86360000D02*
X51435000Y-86360000D01*
X56515000Y-87630000D02*
X55245000Y-86360000D01*
X56515000Y-92075000D02*
X56515000Y-87630000D01*
X54460000Y-106625000D02*
X53395000Y-106625000D01*
X53395000Y-106625000D02*
X50800000Y-109220000D01*
X64770000Y-100330000D02*
X64770000Y-101600000D01*
X54460000Y-105560000D02*
X54460000Y-106625000D01*
X57280002Y-102739998D02*
X54460000Y-105560000D01*
X63630002Y-102739998D02*
X57280002Y-102739998D01*
X64770000Y-101600000D02*
X63630002Y-102739998D01*
X47625000Y-109220000D02*
X47625000Y-109315000D01*
X47625000Y-109315000D02*
X54460000Y-115515000D01*
X67310000Y-100330000D02*
X67310000Y-101600000D01*
X56515000Y-114095000D02*
X54460000Y-115515000D01*
X56515000Y-106045000D02*
X56515000Y-114095000D01*
X58420000Y-104140000D02*
X56515000Y-106045000D01*
X64770000Y-104140000D02*
X58420000Y-104140000D01*
X67310000Y-101600000D02*
X64770000Y-104140000D01*
X60960000Y-124405000D02*
X63500000Y-121865000D01*
X69850000Y-101600000D02*
X69850000Y-100330000D01*
X63500000Y-107950000D02*
X69850000Y-101600000D01*
X63500000Y-121865000D02*
X63500000Y-107950000D01*
X72390000Y-100330000D02*
X72390000Y-100965000D01*
X72390000Y-100965000D02*
X64770000Y-108585000D01*
X64770000Y-108585000D02*
X64770000Y-129485000D01*
X64770000Y-129485000D02*
X60960000Y-133295000D01*
X68430000Y-108530000D02*
X66040000Y-110920000D01*
X66040000Y-124460000D02*
X66675000Y-125095000D01*
X66040000Y-110920000D02*
X66040000Y-124460000D01*
X74930000Y-100330000D02*
X74930000Y-102030000D01*
X74930000Y-102030000D02*
X68430000Y-108530000D01*
X77470000Y-100330000D02*
X77470000Y-102235000D01*
X72390000Y-114880000D02*
X74930000Y-117420000D01*
X72390000Y-107315000D02*
X72390000Y-114880000D01*
X77470000Y-102235000D02*
X72390000Y-107315000D01*
X67310000Y-80645000D02*
X67310000Y-85090000D01*
X69850000Y-80645000D02*
X69850000Y-85090000D01*
X74930000Y-80645000D02*
X74930000Y-85090000D01*
X77470000Y-80645000D02*
X77470000Y-85090000D01*
X80010000Y-80645000D02*
X80010000Y-85090000D01*
X105410000Y-85090000D02*
X105410000Y-81915000D01*
X89535000Y-67310000D02*
X92075000Y-67310000D01*
X88265000Y-68580000D02*
X89535000Y-67310000D01*
X88265000Y-81915000D02*
X88265000Y-68580000D01*
X100330000Y-85090000D02*
X100330000Y-81915000D01*
X90170000Y-74930000D02*
X92075000Y-74930000D01*
X90170000Y-81915000D02*
X90170000Y-74930000D01*
X100330000Y-81915000D02*
X90170000Y-81915000D01*
X51435000Y-93980000D02*
X59690000Y-93980000D01*
X62230000Y-91440000D02*
X62230000Y-85090000D01*
X59690000Y-93980000D02*
X62230000Y-91440000D01*
X62230000Y-80645000D02*
X62230000Y-85090000D01*
X51435000Y-96520000D02*
X59690000Y-96520000D01*
X64770000Y-91440000D02*
X64770000Y-85090000D01*
X59690000Y-96520000D02*
X64770000Y-91440000D01*
X64770000Y-80645000D02*
X64770000Y-85090000D01*
X51435000Y-99060000D02*
X59690000Y-99060000D01*
X72390000Y-86360000D02*
X72390000Y-85090000D01*
X59690000Y-99060000D02*
X72390000Y-86360000D01*
X72390000Y-80645000D02*
X72390000Y-85090000D01*
X133985000Y-127000000D02*
X133985000Y-125730000D01*
X133985000Y-125730000D02*
X136842500Y-122872500D01*
X144462500Y-117792500D02*
X145732500Y-117792500D01*
X107950000Y-99060000D02*
X107950000Y-100330000D01*
X108585000Y-98425000D02*
X107950000Y-99060000D01*
X120015000Y-98425000D02*
X108585000Y-98425000D01*
X123190000Y-101600000D02*
X120015000Y-98425000D01*
X127000000Y-101600000D02*
X123190000Y-101600000D01*
X133985000Y-108585000D02*
X127000000Y-101600000D01*
X144145000Y-108585000D02*
X133985000Y-108585000D01*
X146685000Y-111125000D02*
X144145000Y-108585000D01*
X146685000Y-116840000D02*
X146685000Y-111125000D01*
X145732500Y-117792500D02*
X146685000Y-116840000D01*
X141605000Y-127000000D02*
X141605000Y-125095000D01*
X141922500Y-117792500D02*
X144462500Y-117792500D01*
X140970000Y-118745000D02*
X141922500Y-117792500D01*
X140970000Y-124460000D02*
X140970000Y-118745000D01*
X141605000Y-125095000D02*
X140970000Y-124460000D01*
X157480000Y-113030000D02*
X154305000Y-113030000D01*
X147002500Y-120332500D02*
X144462500Y-120332500D01*
X154305000Y-113030000D02*
X147002500Y-120332500D01*
X144145000Y-127000000D02*
X144145000Y-125730000D01*
X143192500Y-120332500D02*
X144462500Y-120332500D01*
X142240000Y-121285000D02*
X143192500Y-120332500D01*
X142240000Y-123825000D02*
X142240000Y-121285000D01*
X144145000Y-125730000D02*
X142240000Y-123825000D01*
X104775000Y-106680000D02*
X109855000Y-106680000D01*
X110490000Y-100330000D02*
X120015000Y-100330000D01*
X114935000Y-115570000D02*
X114935000Y-114300000D01*
X115570000Y-116205000D02*
X114935000Y-115570000D01*
X120650000Y-116205000D02*
X115570000Y-116205000D01*
X121920000Y-114935000D02*
X120650000Y-116205000D01*
X121920000Y-102235000D02*
X121920000Y-114935000D01*
X120015000Y-100330000D02*
X121920000Y-102235000D01*
X104775000Y-114300000D02*
X105410000Y-114300000D01*
X105410000Y-114300000D02*
X108585000Y-111125000D01*
X108585000Y-111125000D02*
X113665000Y-111125000D01*
X113665000Y-111125000D02*
X114935000Y-112395000D01*
X114935000Y-112395000D02*
X114935000Y-114300000D01*
X107950000Y-119380000D02*
X107950000Y-117475000D01*
X107950000Y-117475000D02*
X106045000Y-115570000D01*
X104775000Y-116840000D02*
X106045000Y-115570000D01*
X106045000Y-115570000D02*
X109220000Y-112395000D01*
X112395000Y-113030000D02*
X112395000Y-114300000D01*
X111760000Y-112395000D02*
X112395000Y-113030000D01*
X109220000Y-112395000D02*
X111760000Y-112395000D01*
X115570000Y-45085000D02*
X120015000Y-40640000D01*
X120015000Y-40640000D02*
X120015000Y-40005000D01*
X110490000Y-85090000D02*
X110490000Y-81280000D01*
X112395000Y-38100000D02*
X112395000Y-40005000D01*
X121920000Y-38100000D02*
X112395000Y-38100000D01*
X121920000Y-55245000D02*
X121920000Y-38100000D01*
X125730000Y-59055000D02*
X121920000Y-55245000D01*
X132715000Y-59055000D02*
X125730000Y-59055000D01*
X139700000Y-66040000D02*
X132715000Y-59055000D01*
X139700000Y-77470000D02*
X139700000Y-66040000D01*
X136525000Y-80645000D02*
X139700000Y-77470000D01*
X111125000Y-80645000D02*
X136525000Y-80645000D01*
X110490000Y-81280000D02*
X111125000Y-80645000D01*
X112395000Y-40005000D02*
X112395000Y-40640000D01*
X109855000Y-50165000D02*
X107950000Y-50165000D01*
X111125000Y-48895000D02*
X109855000Y-50165000D01*
X111125000Y-41910000D02*
X111125000Y-48895000D01*
X112395000Y-40640000D02*
X111125000Y-41910000D01*
X107950000Y-47625000D02*
X106045000Y-47625000D01*
X106045000Y-47625000D02*
X103505000Y-50165000D01*
X109855000Y-40005000D02*
X109855000Y-46990000D01*
X109220000Y-47625000D02*
X107950000Y-47625000D01*
X109855000Y-46990000D02*
X109220000Y-47625000D01*
X69215000Y-55880000D02*
X69215000Y-53975000D01*
X71755000Y-51435000D02*
X71755000Y-50800000D01*
X69215000Y-53975000D02*
X71755000Y-51435000D01*
X107950000Y-85090000D02*
X107950000Y-81915000D01*
X59690000Y-60960000D02*
X61595000Y-60960000D01*
X64135000Y-69215000D02*
X59690000Y-64770000D01*
X65405000Y-69215000D02*
X64135000Y-69215000D01*
X74930000Y-69215000D02*
X67945000Y-69215000D01*
X82550000Y-61595000D02*
X74930000Y-69215000D01*
X96520000Y-61595000D02*
X82550000Y-61595000D01*
X97790000Y-60325000D02*
X96520000Y-61595000D01*
X132080000Y-60325000D02*
X97790000Y-60325000D01*
X138430000Y-66675000D02*
X132080000Y-60325000D01*
X138430000Y-76835000D02*
X138430000Y-66675000D01*
X135890000Y-79375000D02*
X138430000Y-76835000D01*
X110490000Y-79375000D02*
X135890000Y-79375000D01*
X107950000Y-81915000D02*
X110490000Y-79375000D01*
X64135000Y-50800000D02*
X64135000Y-52070000D01*
X63500000Y-60960000D02*
X61595000Y-60960000D01*
X64770000Y-59690000D02*
X63500000Y-60960000D01*
X64770000Y-52705000D02*
X64770000Y-59690000D01*
X64135000Y-52070000D02*
X64770000Y-52705000D01*
X61595000Y-58420000D02*
X59055000Y-58420000D01*
X59055000Y-58420000D02*
X56515000Y-55880000D01*
X61595000Y-50800000D02*
X61595000Y-51435000D01*
X63500000Y-58420000D02*
X61595000Y-58420000D01*
X63500000Y-53340000D02*
X63500000Y-58420000D01*
X61595000Y-51435000D02*
X63500000Y-53340000D01*
X157480000Y-55245000D02*
X157480000Y-58420000D01*
X157480000Y-58420000D02*
X154940000Y-60960000D01*
X95250000Y-85090000D02*
X95250000Y-86360000D01*
X142240000Y-66040000D02*
X147320000Y-66040000D01*
X140970000Y-67310000D02*
X142240000Y-66040000D01*
X140970000Y-78105000D02*
X140970000Y-67310000D01*
X137160000Y-81915000D02*
X140970000Y-78105000D01*
X113030000Y-81915000D02*
X137160000Y-81915000D01*
X112395000Y-82550000D02*
X113030000Y-81915000D01*
X112395000Y-86360000D02*
X112395000Y-82550000D01*
X111760000Y-86995000D02*
X112395000Y-86360000D01*
X95885000Y-86995000D02*
X111760000Y-86995000D01*
X95250000Y-86360000D02*
X95885000Y-86995000D01*
X149860000Y-55245000D02*
X149860000Y-57150000D01*
X149860000Y-66040000D02*
X147320000Y-66040000D01*
X150495000Y-65405000D02*
X149860000Y-66040000D01*
X150495000Y-57785000D02*
X150495000Y-65405000D01*
X149860000Y-57150000D02*
X150495000Y-57785000D01*
X147320000Y-55245000D02*
X147320000Y-57150000D01*
X148590000Y-63500000D02*
X147320000Y-63500000D01*
X149225000Y-62865000D02*
X148590000Y-63500000D01*
X149225000Y-59055000D02*
X149225000Y-62865000D01*
X147320000Y-57150000D02*
X149225000Y-59055000D01*
X141605000Y-62865000D02*
X142240000Y-63500000D01*
X142240000Y-63500000D02*
X147320000Y-63500000D01*
X160655000Y-86360000D02*
X154940000Y-86360000D01*
X149860000Y-78740000D02*
X149860000Y-75565000D01*
X92710000Y-86360000D02*
X92710000Y-85090000D01*
X94615000Y-88265000D02*
X92710000Y-86360000D01*
X112395000Y-88265000D02*
X94615000Y-88265000D01*
X113665000Y-86995000D02*
X112395000Y-88265000D01*
X113665000Y-83820000D02*
X113665000Y-86995000D01*
X114300000Y-83185000D02*
X113665000Y-83820000D01*
X137795000Y-83185000D02*
X114300000Y-83185000D01*
X142240000Y-78740000D02*
X137795000Y-83185000D01*
X142240000Y-75565000D02*
X142240000Y-78740000D01*
X149860000Y-75565000D02*
X142240000Y-75565000D01*
X160655000Y-78740000D02*
X159385000Y-78740000D01*
X149860000Y-80645000D02*
X149860000Y-78740000D01*
X151130000Y-81915000D02*
X149860000Y-80645000D01*
X156210000Y-81915000D02*
X151130000Y-81915000D01*
X159385000Y-78740000D02*
X156210000Y-81915000D01*
X160655000Y-76200000D02*
X165100000Y-76200000D01*
X165100000Y-59690000D02*
X163195000Y-57785000D01*
X165100000Y-62230000D02*
X165100000Y-59690000D01*
X165100000Y-76200000D02*
X165100000Y-62230000D01*
X160655000Y-76200000D02*
X160020000Y-76200000D01*
X160020000Y-76200000D02*
X155575000Y-80645000D01*
X155575000Y-80645000D02*
X153035000Y-80645000D01*
X153035000Y-80645000D02*
X152400000Y-80010000D01*
X152400000Y-80010000D02*
X152400000Y-78740000D01*
X137795000Y-101600000D02*
X136525000Y-101600000D01*
X135890000Y-101600000D02*
X131445000Y-97155000D01*
X136525000Y-101600000D02*
X135890000Y-101600000D01*
X126365000Y-89535000D02*
X126365000Y-88265000D01*
X90170000Y-86995000D02*
X90170000Y-85090000D01*
X92710000Y-89535000D02*
X90170000Y-86995000D01*
X113030000Y-89535000D02*
X92710000Y-89535000D01*
X120013361Y-89552539D02*
X113030000Y-89535000D01*
X125095000Y-86995000D02*
X122555000Y-86995000D01*
X122555000Y-86995000D02*
X120013361Y-89552539D01*
X126365000Y-88265000D02*
X125095000Y-86995000D01*
X137795000Y-93980000D02*
X135890000Y-93980000D01*
X126365000Y-91440000D02*
X126365000Y-89535000D01*
X127635000Y-92710000D02*
X126365000Y-91440000D01*
X134620000Y-92710000D02*
X127635000Y-92710000D01*
X135890000Y-93980000D02*
X134620000Y-92710000D01*
X173355000Y-66040000D02*
X171450000Y-66040000D01*
X140335000Y-91440000D02*
X137795000Y-91440000D01*
X140335000Y-93345000D02*
X140335000Y-91440000D01*
X149225000Y-93345000D02*
X149225000Y-93345000D01*
X150495000Y-92075000D02*
X149225000Y-93345000D01*
X160655000Y-92075000D02*
X150495000Y-92075000D01*
X167640000Y-85090000D02*
X160655000Y-92075000D01*
X167640000Y-69850000D02*
X167640000Y-85090000D01*
X171450000Y-66040000D02*
X167640000Y-69850000D01*
X137795000Y-91440000D02*
X130175000Y-91440000D01*
X129540000Y-90170000D02*
X128905000Y-89535000D01*
X129540000Y-91440000D02*
X129540000Y-90170000D01*
X130175000Y-91440000D02*
X129540000Y-91440000D01*
X165100000Y-109220000D02*
X160020000Y-109220000D01*
X160020000Y-109220000D02*
X158750000Y-107950000D01*
X153670000Y-100330000D02*
X153670000Y-97790000D01*
X87630000Y-86995000D02*
X87630000Y-85090000D01*
X91440000Y-90805000D02*
X87630000Y-86995000D01*
X114300000Y-90805000D02*
X91440000Y-90805000D01*
X123825000Y-100330000D02*
X119380000Y-95885000D01*
X119380000Y-95885000D02*
X119380000Y-90805000D01*
X119380000Y-90805000D02*
X114300000Y-90805000D01*
X127635000Y-100330000D02*
X123825000Y-100330000D01*
X133350000Y-106045000D02*
X127635000Y-100330000D01*
X140970000Y-106045000D02*
X133350000Y-106045000D01*
X150495000Y-96520000D02*
X140970000Y-106045000D01*
X152400000Y-96520000D02*
X150495000Y-96520000D01*
X153670000Y-97790000D02*
X152400000Y-96520000D01*
X165100000Y-101600000D02*
X163830000Y-101600000D01*
X153670000Y-102235000D02*
X153670000Y-100330000D01*
X154940000Y-103505000D02*
X153670000Y-102235000D01*
X161925000Y-103505000D02*
X154940000Y-103505000D01*
X163830000Y-101600000D02*
X161925000Y-103505000D01*
X165100000Y-99060000D02*
X164465000Y-99060000D01*
X164465000Y-99060000D02*
X161290000Y-102235000D01*
X156210000Y-101600000D02*
X156210000Y-100330000D01*
X156845000Y-102235000D02*
X156210000Y-101600000D01*
X161290000Y-102235000D02*
X156845000Y-102235000D01*
X170815000Y-99060000D02*
X165100000Y-99060000D01*
X54460000Y-124405000D02*
X47625000Y-131240000D01*
X47625000Y-131240000D02*
X47625000Y-132080000D01*
X54460000Y-133295000D02*
X52015000Y-133295000D01*
X52015000Y-133295000D02*
X50800000Y-132080000D01*
X68430000Y-117420000D02*
X70485000Y-119475000D01*
X70485000Y-124460000D02*
X66675000Y-128270000D01*
X70485000Y-119475000D02*
X70485000Y-124460000D01*
X68430000Y-117420000D02*
X68525000Y-117420000D01*
M02*
