%TF.GenerationSoftware,KiCad,Pcbnew,4.0.7*%
%TF.CreationDate,2018-08-12T17:37:47+01:00*%
%TF.ProjectId,dmx-eth-dimmer,646D782D6574682D64696D6D65722E6B,rev?*%
%TF.FileFunction,Copper,L2,Bot,Signal*%
%FSLAX46Y46*%
G04 Gerber Fmt 4.6, Leading zero omitted, Abs format (unit mm)*
G04 Created by KiCad (PCBNEW 4.0.7) date 08/12/18 17:37:47*
%MOMM*%
%LPD*%
G01*
G04 APERTURE LIST*
%ADD10C,0.150000*%
%ADD11C,0.100000*%
%ADD12R,1.600000X1.600000*%
%ADD13O,1.600000X1.600000*%
%ADD14C,1.600000*%
%ADD15C,1.524000*%
%ADD16R,2.000000X2.000000*%
%ADD17C,2.000000*%
%ADD18R,1.800000X1.800000*%
%ADD19C,1.800000*%
%ADD20O,1.800000X1.800000*%
%ADD21C,2.350000*%
%ADD22R,3.000000X3.000000*%
%ADD23C,3.000000*%
%ADD24R,1.700000X1.700000*%
%ADD25O,1.700000X1.700000*%
%ADD26C,2.300000*%
%ADD27O,2.000000X2.000000*%
%ADD28C,0.600000*%
%ADD29C,0.800000*%
%ADD30C,0.500000*%
%ADD31C,1.000000*%
%ADD32C,0.300000*%
%ADD33C,2.000000*%
%ADD34C,4.000000*%
G04 APERTURE END LIST*
D10*
D11*
X93980000Y-168910000D02*
X17780000Y-168910000D01*
X97790000Y-143510000D02*
X97790000Y-165100000D01*
X113030000Y-142240000D02*
X99060000Y-142240000D01*
X114300000Y-165100000D02*
X114300000Y-143510000D01*
X156210000Y-168910000D02*
X118110000Y-168910000D01*
X114300000Y-143510000D02*
G75*
G03X113030000Y-142240000I-1270000J0D01*
G01*
X99060000Y-142240000D02*
G75*
G03X97790000Y-143510000I0J-1270000D01*
G01*
X114300000Y-165100000D02*
G75*
G03X118110000Y-168910000I3810000J0D01*
G01*
X93980000Y-168910000D02*
G75*
G03X97790000Y-165100000I0J3810000D01*
G01*
X161290000Y-17780000D02*
X161290000Y-163830000D01*
X17780000Y-12700000D02*
X156210000Y-12700000D01*
X12700000Y-163830000D02*
X12700000Y-17780000D01*
X156210000Y-168910000D02*
G75*
G03X161290000Y-163830000I0J5080000D01*
G01*
X161290000Y-17780000D02*
G75*
G03X156210000Y-12700000I-5080000J0D01*
G01*
X12700000Y-163830000D02*
G75*
G03X17780000Y-168910000I5080000J0D01*
G01*
X17780000Y-12700000D02*
G75*
G03X12700000Y-17780000I0J-5080000D01*
G01*
D12*
X134112000Y-95504000D03*
D13*
X141732000Y-103124000D03*
X134112000Y-98044000D03*
X141732000Y-100584000D03*
X134112000Y-100584000D03*
X141732000Y-98044000D03*
X134112000Y-103124000D03*
X141732000Y-95504000D03*
D14*
X137668000Y-70612000D03*
D13*
X127508000Y-70612000D03*
D15*
X43688000Y-109474000D03*
X58928000Y-109474000D03*
X53848000Y-80264000D03*
X48768000Y-80264000D03*
D14*
X98044000Y-110236000D03*
X100544000Y-110236000D03*
X98044000Y-107188000D03*
X100544000Y-107188000D03*
D16*
X24384000Y-121158000D03*
D17*
X24384000Y-116158000D03*
D14*
X76708000Y-115570000D03*
X76708000Y-113070000D03*
X86360000Y-95504000D03*
X86360000Y-98004000D03*
X101092000Y-95504000D03*
X101092000Y-98004000D03*
X115824000Y-95504000D03*
X115824000Y-98004000D03*
X139192000Y-92456000D03*
X136692000Y-92456000D03*
X139192000Y-107188000D03*
X136692000Y-107188000D03*
X139192000Y-121920000D03*
X136692000Y-121920000D03*
X139192000Y-136652000D03*
X136692000Y-136652000D03*
X139192000Y-151384000D03*
X136692000Y-151384000D03*
D18*
X85852000Y-133858000D03*
D19*
X85852000Y-131318000D03*
D18*
X85852000Y-126238000D03*
D19*
X85852000Y-123698000D03*
D18*
X36576000Y-66040000D03*
D20*
X39116000Y-66040000D03*
X41656000Y-66040000D03*
D18*
X50292000Y-66040000D03*
D20*
X52832000Y-66040000D03*
X55372000Y-66040000D03*
D18*
X64008000Y-66040000D03*
D20*
X66548000Y-66040000D03*
X69088000Y-66040000D03*
D18*
X77724000Y-66040000D03*
D20*
X80264000Y-66040000D03*
X82804000Y-66040000D03*
D18*
X91440000Y-66040000D03*
D20*
X93980000Y-66040000D03*
X96520000Y-66040000D03*
D18*
X105156000Y-66040000D03*
D20*
X107696000Y-66040000D03*
X110236000Y-66040000D03*
D18*
X118872000Y-66040000D03*
D20*
X121412000Y-66040000D03*
X123952000Y-66040000D03*
D18*
X132588000Y-66040000D03*
D20*
X135128000Y-66040000D03*
X137668000Y-66040000D03*
D21*
X22860000Y-85838000D03*
X22860000Y-80838000D03*
X22860000Y-95838000D03*
X22860000Y-100838000D03*
X39116000Y-48020000D03*
X39116000Y-53020000D03*
X39116000Y-38020000D03*
X39116000Y-33020000D03*
X52832000Y-48020000D03*
X52832000Y-53020000D03*
X52832000Y-38020000D03*
X52832000Y-33020000D03*
X66548000Y-48020000D03*
X66548000Y-53020000D03*
X66548000Y-38020000D03*
X66548000Y-33020000D03*
X80264000Y-48020000D03*
X80264000Y-53020000D03*
X80264000Y-38020000D03*
X80264000Y-33020000D03*
X93980000Y-48020000D03*
X93980000Y-53020000D03*
X93980000Y-38020000D03*
X93980000Y-33020000D03*
X107696000Y-48020000D03*
X107696000Y-53020000D03*
X107696000Y-38020000D03*
X107696000Y-33020000D03*
X121412000Y-48020000D03*
X121412000Y-53020000D03*
X121412000Y-38020000D03*
X121412000Y-33020000D03*
X135128000Y-48020000D03*
X135128000Y-53020000D03*
X135128000Y-38020000D03*
X135128000Y-33020000D03*
D22*
X22860000Y-46228000D03*
D23*
X22860000Y-41148000D03*
D24*
X80264000Y-146050000D03*
D25*
X77724000Y-146050000D03*
X75184000Y-146050000D03*
X72644000Y-146050000D03*
X70104000Y-146050000D03*
X67564000Y-146050000D03*
D24*
X106172000Y-108204000D03*
D25*
X108712000Y-108204000D03*
X111252000Y-108204000D03*
X113792000Y-108204000D03*
X116332000Y-108204000D03*
X118872000Y-108204000D03*
D22*
X36576000Y-24384000D03*
D23*
X41656000Y-24384000D03*
D24*
X127000000Y-122428000D03*
D25*
X127000000Y-119888000D03*
X127000000Y-117348000D03*
X127000000Y-114808000D03*
X127000000Y-112268000D03*
X127000000Y-109728000D03*
D22*
X50292000Y-24384000D03*
D23*
X55372000Y-24384000D03*
D24*
X127000000Y-142748000D03*
D25*
X127000000Y-140208000D03*
X127000000Y-137668000D03*
X127000000Y-135128000D03*
X127000000Y-132588000D03*
X127000000Y-130048000D03*
D22*
X64008000Y-24384000D03*
D23*
X69088000Y-24384000D03*
D24*
X148336000Y-102108000D03*
D25*
X148336000Y-99568000D03*
X148336000Y-97028000D03*
X148336000Y-94488000D03*
X148336000Y-91948000D03*
X148336000Y-89408000D03*
D22*
X77724000Y-24384000D03*
D23*
X82804000Y-24384000D03*
D24*
X148336000Y-119888000D03*
D25*
X148336000Y-117348000D03*
X148336000Y-114808000D03*
X148336000Y-112268000D03*
X148336000Y-109728000D03*
X148336000Y-107188000D03*
D22*
X91440000Y-24384000D03*
D23*
X96520000Y-24384000D03*
D24*
X148336000Y-137668000D03*
D25*
X148336000Y-135128000D03*
X148336000Y-132588000D03*
X148336000Y-130048000D03*
X148336000Y-127508000D03*
X148336000Y-124968000D03*
D22*
X105156000Y-24384000D03*
D23*
X110236000Y-24384000D03*
D24*
X148336000Y-155448000D03*
D25*
X148336000Y-152908000D03*
X148336000Y-150368000D03*
X148336000Y-147828000D03*
X148336000Y-145288000D03*
X148336000Y-142748000D03*
D22*
X118872000Y-24384000D03*
D23*
X123952000Y-24384000D03*
D24*
X127000000Y-163068000D03*
D25*
X127000000Y-160528000D03*
X127000000Y-157988000D03*
X127000000Y-155448000D03*
X127000000Y-152908000D03*
X127000000Y-150368000D03*
D22*
X132588000Y-24384000D03*
D23*
X137668000Y-24384000D03*
D14*
X67056000Y-150114000D03*
D13*
X67056000Y-160274000D03*
D14*
X70612000Y-150114000D03*
D13*
X70612000Y-160274000D03*
D14*
X74168000Y-150114000D03*
D13*
X74168000Y-160274000D03*
D14*
X88392000Y-150876000D03*
D13*
X88392000Y-140716000D03*
D14*
X84836000Y-150876000D03*
D13*
X84836000Y-140716000D03*
D14*
X91948000Y-150876000D03*
D13*
X91948000Y-140716000D03*
D14*
X84328000Y-153924000D03*
D13*
X94488000Y-153924000D03*
D14*
X77724000Y-150114000D03*
D13*
X77724000Y-160274000D03*
D14*
X63500000Y-150114000D03*
D13*
X63500000Y-160274000D03*
D14*
X59944000Y-150114000D03*
D13*
X59944000Y-160274000D03*
D14*
X42164000Y-116078000D03*
D13*
X32004000Y-116078000D03*
D14*
X94488000Y-88646000D03*
D13*
X84328000Y-88646000D03*
D14*
X41656000Y-70612000D03*
D13*
X31496000Y-70612000D03*
D14*
X109220000Y-88646000D03*
D13*
X99060000Y-88646000D03*
D14*
X55372000Y-70612000D03*
D13*
X45212000Y-70612000D03*
D14*
X123952000Y-88646000D03*
D13*
X113792000Y-88646000D03*
D14*
X69088000Y-70612000D03*
D13*
X58928000Y-70612000D03*
D14*
X140843000Y-88646000D03*
D13*
X130683000Y-88646000D03*
D14*
X82804000Y-70612000D03*
D13*
X72644000Y-70612000D03*
D14*
X130048000Y-103124000D03*
D13*
X130048000Y-92964000D03*
D14*
X96520000Y-70612000D03*
D13*
X86360000Y-70612000D03*
D14*
X130175000Y-125476000D03*
D13*
X130175000Y-115316000D03*
D14*
X110236000Y-70612000D03*
D13*
X100076000Y-70612000D03*
D14*
X130175000Y-142748000D03*
D13*
X130175000Y-132588000D03*
D14*
X123952000Y-70612000D03*
D13*
X113792000Y-70612000D03*
D14*
X144907000Y-157480000D03*
D13*
X144907000Y-147320000D03*
D14*
X35052000Y-89154000D03*
D13*
X35052000Y-99314000D03*
D14*
X31750000Y-99314000D03*
D13*
X31750000Y-89154000D03*
D14*
X81280000Y-150114000D03*
D13*
X81280000Y-160274000D03*
D12*
X49784000Y-125730000D03*
D13*
X32004000Y-133350000D03*
X47244000Y-125730000D03*
X34544000Y-133350000D03*
X44704000Y-125730000D03*
X37084000Y-133350000D03*
X42164000Y-125730000D03*
X39624000Y-133350000D03*
X39624000Y-125730000D03*
X42164000Y-133350000D03*
X37084000Y-125730000D03*
X44704000Y-133350000D03*
X34544000Y-125730000D03*
X47244000Y-133350000D03*
X32004000Y-125730000D03*
X49784000Y-133350000D03*
D12*
X81788000Y-140970000D03*
D13*
X66548000Y-92710000D03*
X81788000Y-138430000D03*
X66548000Y-95250000D03*
X81788000Y-135890000D03*
X66548000Y-97790000D03*
X81788000Y-133350000D03*
X66548000Y-100330000D03*
X81788000Y-130810000D03*
X66548000Y-102870000D03*
X81788000Y-128270000D03*
X66548000Y-105410000D03*
X81788000Y-125730000D03*
X66548000Y-107950000D03*
X81788000Y-123190000D03*
X66548000Y-110490000D03*
X81788000Y-120650000D03*
X66548000Y-113030000D03*
X81788000Y-118110000D03*
X66548000Y-115570000D03*
X81788000Y-115570000D03*
X66548000Y-118110000D03*
X81788000Y-113030000D03*
X66548000Y-120650000D03*
X81788000Y-110490000D03*
X66548000Y-123190000D03*
X81788000Y-107950000D03*
X66548000Y-125730000D03*
X81788000Y-105410000D03*
X66548000Y-128270000D03*
X81788000Y-102870000D03*
X66548000Y-130810000D03*
X81788000Y-100330000D03*
X66548000Y-133350000D03*
X81788000Y-97790000D03*
X66548000Y-135890000D03*
X81788000Y-95250000D03*
X66548000Y-138430000D03*
X81788000Y-92710000D03*
X66548000Y-140970000D03*
D12*
X112776000Y-128016000D03*
D13*
X97536000Y-135636000D03*
X110236000Y-128016000D03*
X100076000Y-135636000D03*
X107696000Y-128016000D03*
X102616000Y-135636000D03*
X105156000Y-128016000D03*
X105156000Y-135636000D03*
X102616000Y-128016000D03*
X107696000Y-135636000D03*
X100076000Y-128016000D03*
X110236000Y-135636000D03*
X97536000Y-128016000D03*
X112776000Y-135636000D03*
D12*
X34544000Y-104394000D03*
D13*
X29464000Y-112014000D03*
X32004000Y-104394000D03*
X32004000Y-112014000D03*
X29464000Y-104394000D03*
X34544000Y-112014000D03*
D12*
X89408000Y-100584000D03*
D13*
X97028000Y-92964000D03*
X91948000Y-100584000D03*
X94488000Y-92964000D03*
X94488000Y-100584000D03*
X91948000Y-92964000D03*
X97028000Y-100584000D03*
X89408000Y-92964000D03*
D12*
X65024000Y-83820000D03*
D13*
X70104000Y-76200000D03*
X67564000Y-83820000D03*
X67564000Y-76200000D03*
X70104000Y-83820000D03*
X65024000Y-76200000D03*
D12*
X104140000Y-100584000D03*
D13*
X111760000Y-92964000D03*
X106680000Y-100584000D03*
X109220000Y-92964000D03*
X109220000Y-100584000D03*
X106680000Y-92964000D03*
X111760000Y-100584000D03*
X104140000Y-92964000D03*
D12*
X74168000Y-83820000D03*
D13*
X79248000Y-76200000D03*
X76708000Y-83820000D03*
X76708000Y-76200000D03*
X79248000Y-83820000D03*
X74168000Y-76200000D03*
D12*
X118872000Y-100584000D03*
D13*
X126492000Y-92964000D03*
X121412000Y-100584000D03*
X123952000Y-92964000D03*
X123952000Y-100584000D03*
X121412000Y-92964000D03*
X126492000Y-100584000D03*
X118872000Y-92964000D03*
D12*
X91440000Y-83820000D03*
D13*
X96520000Y-76200000D03*
X93980000Y-83820000D03*
X93980000Y-76200000D03*
X96520000Y-83820000D03*
X91440000Y-76200000D03*
D12*
X100584000Y-83820000D03*
D13*
X105664000Y-76200000D03*
X103124000Y-83820000D03*
X103124000Y-76200000D03*
X105664000Y-83820000D03*
X100584000Y-76200000D03*
D12*
X134112000Y-110236000D03*
D13*
X141732000Y-117856000D03*
X134112000Y-112776000D03*
X141732000Y-115316000D03*
X134112000Y-115316000D03*
X141732000Y-112776000D03*
X134112000Y-117856000D03*
X141732000Y-110236000D03*
D12*
X109728000Y-83820000D03*
D13*
X114808000Y-76200000D03*
X112268000Y-83820000D03*
X112268000Y-76200000D03*
X114808000Y-83820000D03*
X109728000Y-76200000D03*
D12*
X134112000Y-124968000D03*
D13*
X141732000Y-132588000D03*
X134112000Y-127508000D03*
X141732000Y-130048000D03*
X134112000Y-130048000D03*
X141732000Y-127508000D03*
X134112000Y-132588000D03*
X141732000Y-124968000D03*
D12*
X120904000Y-83820000D03*
D13*
X125984000Y-76200000D03*
X123444000Y-83820000D03*
X123444000Y-76200000D03*
X125984000Y-83820000D03*
X120904000Y-76200000D03*
D12*
X134112000Y-139700000D03*
D13*
X141732000Y-147320000D03*
X134112000Y-142240000D03*
X141732000Y-144780000D03*
X134112000Y-144780000D03*
X141732000Y-142240000D03*
X134112000Y-147320000D03*
X141732000Y-139700000D03*
D12*
X132080000Y-83820000D03*
D13*
X137160000Y-76200000D03*
X134620000Y-83820000D03*
X134620000Y-76200000D03*
X137160000Y-83820000D03*
X132080000Y-76200000D03*
D12*
X134112000Y-154432000D03*
D13*
X141732000Y-162052000D03*
X134112000Y-156972000D03*
X141732000Y-159512000D03*
X134112000Y-159512000D03*
X141732000Y-156972000D03*
X134112000Y-162052000D03*
X141732000Y-154432000D03*
D12*
X143256000Y-83820000D03*
D13*
X148336000Y-76200000D03*
X145796000Y-83820000D03*
X145796000Y-76200000D03*
X148336000Y-83820000D03*
X143256000Y-76200000D03*
D26*
X88392000Y-108712000D03*
X93292000Y-108712000D03*
D27*
X35560000Y-84074000D03*
X30480000Y-78994000D03*
X30480000Y-84074000D03*
D16*
X35560000Y-78994000D03*
D17*
X27360000Y-146558000D03*
X22860000Y-146558000D03*
X27360000Y-140058000D03*
X22860000Y-140058000D03*
X37012000Y-146558000D03*
X32512000Y-146558000D03*
X37012000Y-140058000D03*
X32512000Y-140058000D03*
X46664000Y-146558000D03*
X42164000Y-146558000D03*
X46664000Y-140058000D03*
X42164000Y-140058000D03*
X56316000Y-146558000D03*
X51816000Y-146558000D03*
X56316000Y-140058000D03*
X51816000Y-140058000D03*
X37012000Y-160274000D03*
X32512000Y-160274000D03*
X37012000Y-153774000D03*
X32512000Y-153774000D03*
X46664000Y-160274000D03*
X42164000Y-160274000D03*
X46664000Y-153774000D03*
X42164000Y-153774000D03*
D24*
X99750000Y-118936000D03*
D25*
X99750000Y-116396000D03*
X102290000Y-118936000D03*
X102290000Y-116396000D03*
X104830000Y-118936000D03*
X104830000Y-116396000D03*
X107370000Y-118936000D03*
X107370000Y-116396000D03*
X109910000Y-118936000D03*
X109910000Y-116396000D03*
X112450000Y-118936000D03*
X112450000Y-116396000D03*
D28*
X130175000Y-149479000D03*
X130175000Y-157988000D03*
X146050000Y-110236000D03*
X146050000Y-114808000D03*
X117348000Y-122936000D03*
X139192000Y-139700000D03*
X139192000Y-95504000D03*
X118872000Y-95504000D03*
X139192000Y-85852000D03*
X89408000Y-95504000D03*
X86360000Y-85852000D03*
X123444000Y-85852000D03*
X61976000Y-118110000D03*
X131191000Y-160528000D03*
X131191000Y-151384000D03*
X146050000Y-120650000D03*
X146050000Y-117348000D03*
X136652000Y-104521000D03*
X136652000Y-119888000D03*
X136652000Y-139700000D03*
X136652000Y-95504000D03*
X120142000Y-95504000D03*
X118872000Y-98044000D03*
X104140000Y-112014000D03*
X104140000Y-98044000D03*
X73660000Y-112268000D03*
X74676000Y-112268000D03*
X97028000Y-105410000D03*
X113792000Y-104775000D03*
X93218000Y-104775000D03*
X94488000Y-99187000D03*
X98298000Y-99187000D03*
X98298000Y-103505000D03*
X116332000Y-103505000D03*
X121920000Y-122174000D03*
X106680000Y-91059000D03*
X107950000Y-105410000D03*
X125222000Y-105410000D03*
X124587000Y-112268000D03*
X124587000Y-102235000D03*
X110490000Y-102235000D03*
X123317000Y-102870000D03*
X126492000Y-102870000D03*
X123190000Y-135128000D03*
X121412000Y-90424000D03*
X123825000Y-132588000D03*
X143002000Y-92075000D03*
X72644000Y-107950000D03*
X143764000Y-115316000D03*
X143764000Y-111252000D03*
X131445000Y-114046000D03*
X140081000Y-134747000D03*
X142240000Y-137668000D03*
X83947000Y-129540000D03*
X80391000Y-125095000D03*
X139954000Y-126238000D03*
X79248000Y-125095000D03*
X83947000Y-132588000D03*
X83947000Y-136271000D03*
X78105000Y-125095000D03*
X50292000Y-149352000D03*
X49530000Y-148590000D03*
X124714000Y-98806000D03*
X132080000Y-144780000D03*
X132080000Y-130048000D03*
X132080000Y-100584000D03*
X132080000Y-115316000D03*
X123952000Y-104140000D03*
X109220000Y-104140000D03*
X94488000Y-104140000D03*
X78740000Y-104140000D03*
X60325000Y-114300000D03*
X65024000Y-88646000D03*
X74168000Y-87249000D03*
X91440000Y-86614000D03*
X100584000Y-86614000D03*
X111252000Y-88011000D03*
X117094000Y-89662000D03*
X117094000Y-92964000D03*
X128905000Y-85090000D03*
X140462000Y-91313000D03*
X95758000Y-103505000D03*
X85090000Y-103505000D03*
X132715000Y-142240000D03*
X132715000Y-98044000D03*
X132715000Y-112776000D03*
X122047000Y-98044000D03*
X121412000Y-102870000D03*
X91948000Y-102870000D03*
X51054000Y-144526000D03*
X49530000Y-141732000D03*
D29*
X98044000Y-110236000D02*
X94816000Y-110236000D01*
X94816000Y-110236000D02*
X93292000Y-108712000D01*
X81788000Y-110490000D02*
X91514000Y-110490000D01*
X91514000Y-110490000D02*
X93292000Y-108712000D01*
D30*
X141732000Y-110236000D02*
X139192000Y-110236000D01*
X141732000Y-124968000D02*
X139192000Y-124968000D01*
X130175000Y-157988000D02*
X130175000Y-149479000D01*
X146050000Y-114808000D02*
X146050000Y-110236000D01*
X117348000Y-122936000D02*
X116332000Y-122936000D01*
X139192000Y-151384000D02*
X139192000Y-151892000D01*
X139192000Y-151892000D02*
X141732000Y-154432000D01*
X139192000Y-136652000D02*
X139192000Y-139700000D01*
X139192000Y-139700000D02*
X139192000Y-151384000D01*
X139192000Y-121920000D02*
X139192000Y-124968000D01*
X139192000Y-124968000D02*
X139192000Y-136652000D01*
X139192000Y-107188000D02*
X139192000Y-110236000D01*
X139192000Y-110236000D02*
X139192000Y-121920000D01*
X139192000Y-92456000D02*
X139192000Y-95504000D01*
X139192000Y-95504000D02*
X139192000Y-107188000D01*
X118872000Y-95504000D02*
X118872000Y-92964000D01*
X139192000Y-92456000D02*
X139192000Y-85852000D01*
X111252000Y-108204000D02*
X111252000Y-113030000D01*
X89408000Y-92964000D02*
X89408000Y-95504000D01*
X86360000Y-95504000D02*
X86360000Y-85852000D01*
X123444000Y-83820000D02*
X123444000Y-85852000D01*
D29*
X100544000Y-110236000D02*
X100584000Y-110276000D01*
X100584000Y-110276000D02*
X100584000Y-113030000D01*
X100544000Y-107188000D02*
X100544000Y-110236000D01*
D31*
X97536000Y-135636000D02*
X97536000Y-128016000D01*
X110236000Y-135636000D02*
X107696000Y-135636000D01*
X107696000Y-135636000D02*
X105156000Y-135636000D01*
X105156000Y-135636000D02*
X102616000Y-135636000D01*
X102616000Y-135636000D02*
X100076000Y-135636000D01*
X100076000Y-135636000D02*
X97536000Y-135636000D01*
X112450000Y-116396000D02*
X114300000Y-118246000D01*
X110236000Y-136652000D02*
X110236000Y-135636000D01*
X111252000Y-137668000D02*
X110236000Y-136652000D01*
X114300000Y-137668000D02*
X111252000Y-137668000D01*
X116332000Y-135636000D02*
X114300000Y-137668000D01*
X116332000Y-122428000D02*
X116332000Y-122936000D01*
X116332000Y-122936000D02*
X116332000Y-135636000D01*
X114300000Y-120396000D02*
X116332000Y-122428000D01*
X114300000Y-118246000D02*
X114300000Y-120396000D01*
X99750000Y-116396000D02*
X99750000Y-113030000D01*
X99750000Y-113030000D02*
X99568000Y-113030000D01*
X112450000Y-116396000D02*
X112450000Y-114228000D01*
X111252000Y-113030000D02*
X100584000Y-113030000D01*
X100584000Y-113030000D02*
X99568000Y-113030000D01*
X99568000Y-113030000D02*
X81788000Y-113030000D01*
X112450000Y-114228000D02*
X111252000Y-113030000D01*
X58928000Y-109474000D02*
X58928000Y-115062000D01*
X58928000Y-115062000D02*
X61976000Y-118110000D01*
X61976000Y-118110000D02*
X66548000Y-118110000D01*
D32*
X51816000Y-146558000D02*
X51816000Y-147320000D01*
X51816000Y-147320000D02*
X52832000Y-148336000D01*
X72898000Y-148336000D02*
X75184000Y-146050000D01*
X61722000Y-148336000D02*
X72898000Y-148336000D01*
X61214000Y-147828000D02*
X61722000Y-148336000D01*
X58420000Y-147828000D02*
X61214000Y-147828000D01*
X57912000Y-148336000D02*
X58420000Y-147828000D01*
X52832000Y-148336000D02*
X57912000Y-148336000D01*
X32512000Y-140058000D02*
X32004000Y-139550000D01*
X32004000Y-139550000D02*
X32004000Y-133350000D01*
D31*
X66548000Y-118110000D02*
X71668000Y-118110000D01*
X71668000Y-118110000D02*
X76748000Y-113030000D01*
X76748000Y-113030000D02*
X81788000Y-113030000D01*
D32*
X32512000Y-160274000D02*
X34036000Y-161798000D01*
X40640000Y-161798000D02*
X42164000Y-160274000D01*
X34036000Y-161798000D02*
X40640000Y-161798000D01*
X42164000Y-160274000D02*
X42164000Y-153774000D01*
X51816000Y-140058000D02*
X51816000Y-146558000D01*
X42164000Y-140058000D02*
X42164000Y-146558000D01*
X32512000Y-140058000D02*
X32512000Y-146558000D01*
X32512000Y-133858000D02*
X32004000Y-133350000D01*
X42164000Y-140058000D02*
X42164000Y-133350000D01*
X51816000Y-140058000D02*
X51816000Y-135382000D01*
X51816000Y-135382000D02*
X49784000Y-133350000D01*
X32004000Y-133350000D02*
X34544000Y-133350000D01*
X34544000Y-133350000D02*
X37084000Y-133350000D01*
X37084000Y-133350000D02*
X39624000Y-133350000D01*
X39624000Y-133350000D02*
X42164000Y-133350000D01*
X42164000Y-133350000D02*
X44704000Y-133350000D01*
X44704000Y-133350000D02*
X47244000Y-133350000D01*
X47244000Y-133350000D02*
X49784000Y-133350000D01*
D29*
X98044000Y-107188000D02*
X97536000Y-106680000D01*
X97536000Y-106680000D02*
X90424000Y-106680000D01*
X90424000Y-106680000D02*
X88392000Y-108712000D01*
X81788000Y-107950000D02*
X87630000Y-107950000D01*
X87630000Y-107950000D02*
X88392000Y-108712000D01*
D30*
X136692000Y-110236000D02*
X134112000Y-110236000D01*
X134112000Y-124968000D02*
X136692000Y-124968000D01*
X131191000Y-151384000D02*
X131191000Y-160528000D01*
X146050000Y-117348000D02*
X146050000Y-120650000D01*
X136652000Y-104521000D02*
X136692000Y-104521000D01*
X136692000Y-104521000D02*
X136652000Y-104521000D01*
X136652000Y-104521000D02*
X136692000Y-104521000D01*
X136652000Y-119888000D02*
X136692000Y-119888000D01*
X136692000Y-119888000D02*
X136652000Y-119888000D01*
X136652000Y-119888000D02*
X136692000Y-119888000D01*
X136692000Y-151384000D02*
X136692000Y-151852000D01*
X136692000Y-151852000D02*
X134112000Y-154432000D01*
X136652000Y-139700000D02*
X136692000Y-139700000D01*
X136692000Y-139700000D02*
X136652000Y-139700000D01*
X136652000Y-139700000D02*
X136692000Y-139700000D01*
X136692000Y-136652000D02*
X136692000Y-139700000D01*
X136692000Y-139700000D02*
X136692000Y-151384000D01*
X136692000Y-121920000D02*
X136692000Y-124968000D01*
X136692000Y-124968000D02*
X136692000Y-136652000D01*
X136692000Y-107188000D02*
X136692000Y-110236000D01*
X136692000Y-110236000D02*
X136692000Y-119888000D01*
X136692000Y-119888000D02*
X136692000Y-121920000D01*
X136652000Y-95504000D02*
X136692000Y-95504000D01*
X136692000Y-95504000D02*
X136652000Y-95504000D01*
X136652000Y-95504000D02*
X136692000Y-95504000D01*
X136692000Y-92456000D02*
X136692000Y-95504000D01*
X136692000Y-95504000D02*
X136692000Y-104521000D01*
X136692000Y-104521000D02*
X136692000Y-107188000D01*
X120142000Y-96774000D02*
X118872000Y-98044000D01*
X120142000Y-95504000D02*
X120142000Y-96774000D01*
X118872000Y-100584000D02*
X118872000Y-98044000D01*
X104140000Y-100584000D02*
X104140000Y-112014000D01*
X104140000Y-100584000D02*
X104140000Y-98044000D01*
D31*
X112776000Y-135636000D02*
X114808000Y-133604000D01*
X114808000Y-123080000D02*
X112450000Y-120722000D01*
X114808000Y-133604000D02*
X114808000Y-123080000D01*
X77724000Y-146050000D02*
X77724000Y-126746000D01*
X77724000Y-126746000D02*
X71628000Y-120650000D01*
X81788000Y-115570000D02*
X85598000Y-115570000D01*
X85598000Y-115570000D02*
X87884000Y-117856000D01*
X87884000Y-117856000D02*
X87884000Y-119634000D01*
X87884000Y-119634000D02*
X90170000Y-121920000D01*
X90170000Y-121920000D02*
X111252000Y-121920000D01*
X112450000Y-120722000D02*
X112450000Y-118936000D01*
X111252000Y-121920000D02*
X112450000Y-120722000D01*
X42164000Y-116078000D02*
X42164000Y-110998000D01*
X42164000Y-110998000D02*
X43688000Y-109474000D01*
D32*
X77724000Y-146050000D02*
X77724000Y-147828000D01*
X75946000Y-149606000D02*
X75946000Y-160274000D01*
X77724000Y-147828000D02*
X75946000Y-149606000D01*
X77724000Y-160274000D02*
X81280000Y-160274000D01*
D31*
X24384000Y-121158000D02*
X30988000Y-121158000D01*
X36068000Y-116078000D02*
X42164000Y-116078000D01*
X30988000Y-121158000D02*
X36068000Y-116078000D01*
X66548000Y-120650000D02*
X71628000Y-120650000D01*
X71628000Y-120650000D02*
X76708000Y-115570000D01*
X76708000Y-115570000D02*
X81788000Y-115570000D01*
X42164000Y-116078000D02*
X46228000Y-120142000D01*
X46228000Y-120142000D02*
X55880000Y-120142000D01*
X55880000Y-120142000D02*
X56388000Y-120650000D01*
X56388000Y-120650000D02*
X66548000Y-120650000D01*
D32*
X59944000Y-160274000D02*
X63500000Y-160274000D01*
X63500000Y-160274000D02*
X67056000Y-160274000D01*
X67056000Y-160274000D02*
X70612000Y-160274000D01*
X70612000Y-160274000D02*
X74168000Y-160274000D01*
X74168000Y-160274000D02*
X75946000Y-160274000D01*
X75946000Y-160274000D02*
X77724000Y-160274000D01*
D31*
X85852000Y-133858000D02*
X85852000Y-140716000D01*
X84836000Y-140716000D02*
X85852000Y-140716000D01*
X85852000Y-140716000D02*
X88392000Y-140716000D01*
X81788000Y-123190000D02*
X82804000Y-123190000D01*
X85852000Y-130048000D02*
X85852000Y-131318000D01*
X83566000Y-127762000D02*
X85852000Y-130048000D01*
X83566000Y-123952000D02*
X83566000Y-127762000D01*
X82804000Y-123190000D02*
X83566000Y-123952000D01*
X91948000Y-140716000D02*
X94488000Y-143256000D01*
X94488000Y-143256000D02*
X94488000Y-153924000D01*
X85852000Y-126238000D02*
X85852000Y-128016000D01*
X91948000Y-134112000D02*
X91948000Y-140716000D01*
X85852000Y-128016000D02*
X91948000Y-134112000D01*
X81788000Y-120650000D02*
X84328000Y-120650000D01*
X85852000Y-122174000D02*
X85852000Y-123698000D01*
X84328000Y-120650000D02*
X85852000Y-122174000D01*
X39116000Y-66040000D02*
X39116000Y-69596000D01*
X38100000Y-70612000D02*
X31496000Y-70612000D01*
X39116000Y-69596000D02*
X38100000Y-70612000D01*
D33*
X39116000Y-48020000D02*
X39116000Y-53020000D01*
X39116000Y-53020000D02*
X39116000Y-66040000D01*
D31*
X52832000Y-66040000D02*
X52832000Y-69596000D01*
X51816000Y-70612000D02*
X45212000Y-70612000D01*
X52832000Y-69596000D02*
X51816000Y-70612000D01*
D33*
X52832000Y-48020000D02*
X52832000Y-53020000D01*
X52832000Y-53020000D02*
X52832000Y-66040000D01*
D31*
X66548000Y-66040000D02*
X66548000Y-69596000D01*
X65532000Y-70612000D02*
X58928000Y-70612000D01*
X66548000Y-69596000D02*
X65532000Y-70612000D01*
D33*
X66548000Y-48020000D02*
X66548000Y-53020000D01*
X66548000Y-53020000D02*
X66548000Y-66040000D01*
D31*
X80264000Y-66040000D02*
X80264000Y-69596000D01*
X79248000Y-70612000D02*
X72644000Y-70612000D01*
X80264000Y-69596000D02*
X79248000Y-70612000D01*
D33*
X80264000Y-48020000D02*
X80264000Y-53020000D01*
X80264000Y-53020000D02*
X80264000Y-66040000D01*
D31*
X93980000Y-66040000D02*
X93980000Y-69596000D01*
X92964000Y-70612000D02*
X86360000Y-70612000D01*
X93980000Y-69596000D02*
X92964000Y-70612000D01*
D33*
X93980000Y-48020000D02*
X93980000Y-53020000D01*
X93980000Y-53020000D02*
X93980000Y-66040000D01*
D31*
X107696000Y-66040000D02*
X107696000Y-69596000D01*
X106680000Y-70612000D02*
X100076000Y-70612000D01*
X107696000Y-69596000D02*
X106680000Y-70612000D01*
D33*
X107696000Y-48020000D02*
X107696000Y-53020000D01*
X107696000Y-53020000D02*
X107696000Y-66040000D01*
D31*
X121412000Y-66040000D02*
X121412000Y-69596000D01*
X120396000Y-70612000D02*
X113792000Y-70612000D01*
X121412000Y-69596000D02*
X120396000Y-70612000D01*
D33*
X121412000Y-48020000D02*
X121412000Y-53020000D01*
X121412000Y-53020000D02*
X121412000Y-66040000D01*
D31*
X135128000Y-66040000D02*
X135128000Y-69596000D01*
X134112000Y-70612000D02*
X127508000Y-70612000D01*
X135128000Y-69596000D02*
X134112000Y-70612000D01*
D33*
X135128000Y-48020000D02*
X135128000Y-53020000D01*
X135128000Y-53020000D02*
X135128000Y-66040000D01*
X22860000Y-80838000D02*
X22860000Y-51308000D01*
D34*
X39116000Y-38020000D02*
X36148000Y-38020000D01*
X36148000Y-38020000D02*
X33020000Y-41148000D01*
X33020000Y-41148000D02*
X33020000Y-48768000D01*
X33020000Y-48768000D02*
X30480000Y-51308000D01*
X30480000Y-51308000D02*
X22860000Y-51308000D01*
X22860000Y-51308000D02*
X22860000Y-46228000D01*
X39116000Y-33020000D02*
X33528000Y-33020000D01*
X33528000Y-33020000D02*
X28448000Y-38100000D01*
X28448000Y-38100000D02*
X28448000Y-46228000D01*
X28448000Y-46228000D02*
X22860000Y-46228000D01*
X52832000Y-38020000D02*
X39116000Y-38020000D01*
X39116000Y-33020000D02*
X52832000Y-33020000D01*
X52832000Y-33020000D02*
X66548000Y-33020000D01*
X66548000Y-33020000D02*
X80264000Y-33020000D01*
X80264000Y-33020000D02*
X93980000Y-33020000D01*
X93980000Y-33020000D02*
X107696000Y-33020000D01*
X107696000Y-33020000D02*
X121412000Y-33020000D01*
X121412000Y-33020000D02*
X135128000Y-33020000D01*
X52832000Y-38020000D02*
X66548000Y-38020000D01*
X66548000Y-38020000D02*
X80264000Y-38020000D01*
X80264000Y-38020000D02*
X93980000Y-38020000D01*
X93980000Y-38020000D02*
X107696000Y-38020000D01*
X107696000Y-38020000D02*
X121412000Y-38020000D01*
X121412000Y-38020000D02*
X135128000Y-38020000D01*
D33*
X22860000Y-80838000D02*
X22860000Y-85838000D01*
X35052000Y-99314000D02*
X35052000Y-95918000D01*
X35052000Y-95918000D02*
X34972000Y-95838000D01*
X22860000Y-95838000D02*
X34972000Y-95838000D01*
X50546000Y-83566000D02*
X53848000Y-80264000D01*
X47244000Y-83566000D02*
X50546000Y-83566000D01*
X34972000Y-95838000D02*
X47244000Y-83566000D01*
X22860000Y-95838000D02*
X22860000Y-100838000D01*
D34*
X22860000Y-41148000D02*
X22860000Y-36576000D01*
X22860000Y-36576000D02*
X32004000Y-27432000D01*
X32004000Y-27432000D02*
X32004000Y-20320000D01*
X32004000Y-20320000D02*
X34544000Y-17780000D01*
X34544000Y-17780000D02*
X41656000Y-17780000D01*
X123952000Y-24384000D02*
X123952000Y-17780000D01*
X123952000Y-17780000D02*
X123444000Y-17780000D01*
X110236000Y-24384000D02*
X110236000Y-17780000D01*
X96520000Y-24384000D02*
X96520000Y-17780000D01*
X82804000Y-24384000D02*
X82804000Y-17780000D01*
X69088000Y-24384000D02*
X69088000Y-17780000D01*
X55372000Y-24384000D02*
X55372000Y-17780000D01*
X41656000Y-24384000D02*
X41656000Y-17780000D01*
X137668000Y-17780000D02*
X137668000Y-24384000D01*
X41656000Y-17780000D02*
X55372000Y-17780000D01*
X55372000Y-17780000D02*
X69088000Y-17780000D01*
X69088000Y-17780000D02*
X82804000Y-17780000D01*
X82804000Y-17780000D02*
X96520000Y-17780000D01*
X96520000Y-17780000D02*
X110236000Y-17780000D01*
X110236000Y-17780000D02*
X123444000Y-17780000D01*
X123444000Y-17780000D02*
X137668000Y-17780000D01*
D33*
X30480000Y-78994000D02*
X30480000Y-78486000D01*
X30480000Y-78486000D02*
X33020000Y-75946000D01*
X33020000Y-75946000D02*
X44450000Y-75946000D01*
X44450000Y-75946000D02*
X48768000Y-80264000D01*
D32*
X79756000Y-97790000D02*
X81788000Y-97790000D01*
X73660000Y-103886000D02*
X79756000Y-97790000D01*
X73660000Y-112268000D02*
X73660000Y-103886000D01*
X79756000Y-100330000D02*
X81788000Y-100330000D01*
X74676000Y-105410000D02*
X79756000Y-100330000D01*
X74676000Y-112268000D02*
X74676000Y-105410000D01*
X80264000Y-146050000D02*
X80264000Y-149098000D01*
X80264000Y-149098000D02*
X81280000Y-150114000D01*
X81788000Y-140970000D02*
X81788000Y-144526000D01*
X81788000Y-144526000D02*
X80264000Y-146050000D01*
X72644000Y-146050000D02*
X71120000Y-147574000D01*
X65532000Y-145796000D02*
X65532000Y-140970000D01*
X67310000Y-147574000D02*
X65532000Y-145796000D01*
X71120000Y-147574000D02*
X67310000Y-147574000D01*
X66548000Y-140970000D02*
X65532000Y-140970000D01*
X52324000Y-125730000D02*
X49784000Y-125730000D01*
X64008000Y-137414000D02*
X52324000Y-125730000D01*
X64008000Y-139446000D02*
X64008000Y-137414000D01*
X65532000Y-140970000D02*
X64008000Y-139446000D01*
X66548000Y-138430000D02*
X66040000Y-138430000D01*
X66040000Y-138430000D02*
X51816000Y-124206000D01*
X48768000Y-124206000D02*
X47244000Y-125730000D01*
X51816000Y-124206000D02*
X48768000Y-124206000D01*
X67564000Y-146050000D02*
X67564000Y-143002000D01*
X68072000Y-130810000D02*
X66548000Y-130810000D01*
X68580000Y-131318000D02*
X68072000Y-130810000D01*
X68580000Y-141986000D02*
X68580000Y-131318000D01*
X67564000Y-143002000D02*
X68580000Y-141986000D01*
X66548000Y-130810000D02*
X61468000Y-130810000D01*
X42664002Y-122689998D02*
X39624000Y-125730000D01*
X53347998Y-122689998D02*
X42664002Y-122689998D01*
X61468000Y-130810000D02*
X53347998Y-122689998D01*
X97028000Y-105410000D02*
X97028000Y-100584000D01*
X91948000Y-92964000D02*
X91948000Y-98933000D01*
X113792000Y-104775000D02*
X113792000Y-108204000D01*
X93218000Y-100203000D02*
X93218000Y-104775000D01*
X91948000Y-98933000D02*
X93218000Y-100203000D01*
X116332000Y-108204000D02*
X116332000Y-103505000D01*
X98298000Y-99187000D02*
X98298000Y-103505000D01*
X94488000Y-99187000D02*
X94488000Y-92964000D01*
X94488000Y-92964000D02*
X94488000Y-88646000D01*
X112522000Y-101346000D02*
X112522000Y-112776000D01*
X112522000Y-112776000D02*
X115316000Y-115570000D01*
X115316000Y-115570000D02*
X115316000Y-119761000D01*
X115316000Y-119761000D02*
X117729000Y-122174000D01*
X112522000Y-101346000D02*
X111760000Y-100584000D01*
X121920000Y-122174000D02*
X117729000Y-122174000D01*
X106680000Y-92964000D02*
X106680000Y-91059000D01*
X127000000Y-114808000D02*
X125222000Y-114808000D01*
X106680000Y-98806000D02*
X107950000Y-100076000D01*
X107950000Y-100076000D02*
X107950000Y-105410000D01*
X125222000Y-105410000D02*
X125222000Y-114808000D01*
X106680000Y-98806000D02*
X106680000Y-92964000D01*
X109220000Y-92964000D02*
X109220000Y-98806000D01*
X124587000Y-102235000D02*
X124587000Y-112268000D01*
X110490000Y-100076000D02*
X110490000Y-102235000D01*
X109220000Y-98806000D02*
X110490000Y-100076000D01*
X109220000Y-88646000D02*
X109220000Y-92964000D01*
X126492000Y-100584000D02*
X126492000Y-102870000D01*
X124460000Y-140208000D02*
X127000000Y-142748000D01*
X124460000Y-114935000D02*
X124460000Y-140208000D01*
X123317000Y-113792000D02*
X124460000Y-114935000D01*
X123317000Y-102870000D02*
X123317000Y-113792000D01*
X120269000Y-112522000D02*
X123190000Y-115443000D01*
X123190000Y-115443000D02*
X123190000Y-135128000D01*
X121412000Y-92964000D02*
X121412000Y-98806000D01*
X120269000Y-107442000D02*
X120269000Y-112522000D01*
X120142000Y-107315000D02*
X120269000Y-107442000D01*
X120142000Y-100076000D02*
X120142000Y-107315000D01*
X121412000Y-98806000D02*
X120142000Y-100076000D01*
X121412000Y-92964000D02*
X121412000Y-90424000D01*
X123952000Y-92964000D02*
X123952000Y-88646000D01*
X123952000Y-98806000D02*
X122682000Y-100076000D01*
X122682000Y-100076000D02*
X122687967Y-114045997D01*
X123952000Y-98806000D02*
X123952000Y-92964000D01*
X123825000Y-115183030D02*
X122687967Y-114045997D01*
X123825000Y-132588000D02*
X123825000Y-115183030D01*
X141732000Y-100584000D02*
X143002000Y-99314000D01*
X143002000Y-90805000D02*
X140843000Y-88646000D01*
X143002000Y-99314000D02*
X143002000Y-92075000D01*
X143002000Y-92075000D02*
X143002000Y-90805000D01*
X66548000Y-107950000D02*
X72644000Y-107950000D01*
X143764000Y-111252000D02*
X143764000Y-115316000D01*
X131445000Y-104521000D02*
X130048000Y-103124000D01*
X131445000Y-114046000D02*
X131445000Y-104521000D01*
X140081000Y-135509000D02*
X140081000Y-134747000D01*
X142240000Y-137668000D02*
X140081000Y-135509000D01*
X81407000Y-129540000D02*
X83947000Y-129540000D01*
X80391000Y-128524000D02*
X81407000Y-129540000D01*
X80391000Y-125095000D02*
X80391000Y-128524000D01*
X139954000Y-128270000D02*
X141732000Y-130048000D01*
X139954000Y-126238000D02*
X139954000Y-128270000D01*
X79248000Y-125095000D02*
X79756000Y-125603000D01*
X79756000Y-125603000D02*
X79756000Y-130556000D01*
X79756000Y-130556000D02*
X81280000Y-132080000D01*
X81280000Y-132080000D02*
X83439000Y-132080000D01*
X83439000Y-132080000D02*
X83947000Y-132588000D01*
X83312000Y-135636000D02*
X83947000Y-136271000D01*
X83312000Y-135128000D02*
X83312000Y-135636000D01*
X82804000Y-134620000D02*
X83312000Y-135128000D01*
X81280000Y-134620000D02*
X82804000Y-134620000D01*
X79121000Y-132461000D02*
X81280000Y-134620000D01*
X79121000Y-126111000D02*
X79121000Y-132461000D01*
X78105000Y-125095000D02*
X79121000Y-126111000D01*
X67056000Y-150114000D02*
X65532000Y-151638000D01*
X58420000Y-149352000D02*
X50292000Y-149352000D01*
X58928000Y-148844000D02*
X58420000Y-149352000D01*
X60706000Y-148844000D02*
X58928000Y-148844000D01*
X61468000Y-149606000D02*
X60706000Y-148844000D01*
X61468000Y-150368000D02*
X61468000Y-149606000D01*
X62738000Y-151638000D02*
X61468000Y-150368000D01*
X65532000Y-151638000D02*
X62738000Y-151638000D01*
X30154000Y-149352000D02*
X27360000Y-146558000D01*
X50292000Y-149352000D02*
X30154000Y-149352000D01*
X27360000Y-146558000D02*
X27360000Y-140058000D01*
X70612000Y-150114000D02*
X69088000Y-150114000D01*
X50800000Y-148590000D02*
X49530000Y-148590000D01*
X51054000Y-148844000D02*
X50800000Y-148590000D01*
X58173998Y-148844000D02*
X51054000Y-148844000D01*
X58674000Y-148343998D02*
X58173998Y-148844000D01*
X60967998Y-148343998D02*
X58674000Y-148343998D01*
X61468000Y-148844000D02*
X60967998Y-148343998D01*
X67818000Y-148844000D02*
X61468000Y-148844000D01*
X69088000Y-150114000D02*
X67818000Y-148844000D01*
X39044000Y-148590000D02*
X37012000Y-146558000D01*
X49530000Y-148590000D02*
X39044000Y-148590000D01*
X37012000Y-146558000D02*
X37012000Y-140058000D01*
X37012000Y-160274000D02*
X37012000Y-153774000D01*
X124714000Y-99822000D02*
X123952000Y-100584000D01*
X124714000Y-99822000D02*
X124714000Y-98806000D01*
X132080000Y-144780000D02*
X132080000Y-157480000D01*
X132080000Y-157480000D02*
X134112000Y-159512000D01*
X132080000Y-130048000D02*
X132080000Y-144780000D01*
X132080000Y-115316000D02*
X132080000Y-130048000D01*
X132080000Y-115316000D02*
X132080000Y-100584000D01*
X123952000Y-104140000D02*
X123952000Y-100584000D01*
X109220000Y-104140000D02*
X109220000Y-100584000D01*
X94488000Y-104140000D02*
X94488000Y-100584000D01*
X75438000Y-107442000D02*
X78740000Y-104140000D01*
X75438000Y-112776000D02*
X75438000Y-107442000D01*
X73914000Y-114300000D02*
X75438000Y-112776000D01*
X60325000Y-114300000D02*
X73914000Y-114300000D01*
D31*
X32004000Y-112014000D02*
X32004000Y-116078000D01*
D32*
X65024000Y-88646000D02*
X65024000Y-83820000D01*
D30*
X65024000Y-76200000D02*
X47244000Y-76200000D01*
X41656000Y-72136000D02*
X41656000Y-70612000D01*
X43715998Y-74195998D02*
X41656000Y-72136000D01*
X45239998Y-74195998D02*
X43715998Y-74195998D01*
X47244000Y-76200000D02*
X45239998Y-74195998D01*
D32*
X74168000Y-87249000D02*
X74168000Y-84582000D01*
X74168000Y-84582000D02*
X74168000Y-83820000D01*
D30*
X74168000Y-76200000D02*
X72898000Y-76200000D01*
X71120000Y-74422000D02*
X57658000Y-74422000D01*
X57658000Y-74422000D02*
X55372000Y-72136000D01*
X55372000Y-72136000D02*
X55372000Y-70612000D01*
X72898000Y-76200000D02*
X71120000Y-74422000D01*
D32*
X91440000Y-83820000D02*
X91440000Y-86614000D01*
D30*
X91440000Y-76200000D02*
X88646000Y-73406000D01*
X71882000Y-73406000D02*
X69088000Y-70612000D01*
X88646000Y-73406000D02*
X71882000Y-73406000D01*
D32*
X100584000Y-83820000D02*
X100584000Y-86614000D01*
D30*
X100584000Y-76200000D02*
X96774000Y-72390000D01*
X84582000Y-72390000D02*
X82804000Y-70612000D01*
X96774000Y-72390000D02*
X84582000Y-72390000D01*
D32*
X109728000Y-86487000D02*
X109728000Y-83820000D01*
X111252000Y-88011000D02*
X109728000Y-86487000D01*
X117094000Y-92964000D02*
X117094000Y-89662000D01*
D30*
X109728000Y-76200000D02*
X105918000Y-72390000D01*
X98298000Y-72390000D02*
X96520000Y-70612000D01*
X105918000Y-72390000D02*
X98298000Y-72390000D01*
D32*
X130175000Y-115316000D02*
X130175000Y-105156000D01*
X128905000Y-103886000D02*
X128905000Y-85090000D01*
X130175000Y-105156000D02*
X128905000Y-103886000D01*
D30*
X120904000Y-76200000D02*
X117094000Y-72390000D01*
X112014000Y-72390000D02*
X110236000Y-70612000D01*
X117094000Y-72390000D02*
X112014000Y-72390000D01*
D32*
X130175000Y-132588000D02*
X128778000Y-131191000D01*
X129032000Y-83820000D02*
X132080000Y-83820000D01*
X128143000Y-84709000D02*
X129032000Y-83820000D01*
X128143000Y-104140000D02*
X128143000Y-84709000D01*
X128778000Y-104775000D02*
X128143000Y-104140000D01*
X128778000Y-131191000D02*
X128778000Y-104775000D01*
D30*
X132080000Y-76200000D02*
X129032000Y-76200000D01*
X123952000Y-72136000D02*
X123952000Y-70612000D01*
X126238000Y-74422000D02*
X123952000Y-72136000D01*
X127254000Y-74422000D02*
X126238000Y-74422000D01*
X129032000Y-76200000D02*
X127254000Y-74422000D01*
D32*
X144907000Y-147320000D02*
X144907000Y-85471000D01*
X144907000Y-85471000D02*
X143256000Y-83820000D01*
D30*
X143256000Y-76200000D02*
X137668000Y-70612000D01*
D31*
X34544000Y-104394000D02*
X34544000Y-103632000D01*
X34544000Y-103632000D02*
X31750000Y-100838000D01*
X31750000Y-100838000D02*
X31750000Y-99314000D01*
D32*
X66548000Y-135890000D02*
X64516000Y-135890000D01*
X46728002Y-123705998D02*
X44704000Y-125730000D01*
X52331998Y-123705998D02*
X46728002Y-123705998D01*
X64516000Y-135890000D02*
X52331998Y-123705998D01*
X66548000Y-135890000D02*
X65913000Y-135763000D01*
X66548000Y-133350000D02*
X62992000Y-133350000D01*
X44704000Y-123190000D02*
X42164000Y-125730000D01*
X52832000Y-123190000D02*
X44704000Y-123190000D01*
X62992000Y-133350000D02*
X52832000Y-123190000D01*
X66548000Y-128270000D02*
X59944000Y-128270000D01*
X40624004Y-122189996D02*
X37084000Y-125730000D01*
X53863996Y-122189996D02*
X40624004Y-122189996D01*
X59944000Y-128270000D02*
X53863996Y-122189996D01*
X66548000Y-125730000D02*
X58420000Y-125730000D01*
X38608000Y-121666000D02*
X34544000Y-125730000D01*
X54356000Y-121666000D02*
X38608000Y-121666000D01*
X58420000Y-125730000D02*
X54356000Y-121666000D01*
X66548000Y-123190000D02*
X56896000Y-123190000D01*
X36568002Y-121165998D02*
X32004000Y-125730000D01*
X54871998Y-121165998D02*
X36568002Y-121165998D01*
X56896000Y-123190000D02*
X54871998Y-121165998D01*
X143001990Y-147319990D02*
X143001990Y-160782010D01*
X143001990Y-160782010D02*
X141732000Y-162052000D01*
X143001990Y-132587990D02*
X143001990Y-147319990D01*
X143001980Y-147320000D02*
X141732000Y-147320000D01*
X143001990Y-147319990D02*
X143001980Y-147320000D01*
X143001990Y-117856097D02*
X143001990Y-132587990D01*
X143001980Y-132588000D02*
X141732000Y-132588000D01*
X143001990Y-132587990D02*
X143001980Y-132588000D01*
X141732000Y-103124000D02*
X143002000Y-104394000D01*
X143002000Y-117856097D02*
X143001990Y-117856097D01*
X143001990Y-117856097D02*
X141732000Y-117856000D01*
X143002000Y-104394000D02*
X143002000Y-117856097D01*
X141732000Y-103124000D02*
X140462000Y-101854000D01*
X140462000Y-101854000D02*
X140462000Y-91313000D01*
X81788000Y-105410000D02*
X83185000Y-105410000D01*
X95758000Y-94234000D02*
X97028000Y-92964000D01*
X95758000Y-103505000D02*
X95758000Y-94234000D01*
X83185000Y-105410000D02*
X85090000Y-103505000D01*
X134112000Y-127508000D02*
X132715000Y-127508000D01*
X132715000Y-142240000D02*
X132715000Y-155575000D01*
X132715000Y-155575000D02*
X134112000Y-156972000D01*
X132715000Y-127508000D02*
X132715000Y-142240000D01*
X132715000Y-112776000D02*
X132715000Y-127508000D01*
X132715000Y-112776000D02*
X132715000Y-98044000D01*
X121412000Y-100584000D02*
X122047000Y-99949000D01*
X122047000Y-99949000D02*
X122047000Y-98044000D01*
X121412000Y-100584000D02*
X121412000Y-102870000D01*
X91948000Y-102870000D02*
X91948000Y-100584000D01*
D31*
X35052000Y-89154000D02*
X35560000Y-88646000D01*
X35560000Y-88646000D02*
X35560000Y-84074000D01*
X31750000Y-89154000D02*
X31750000Y-86868000D01*
X33020000Y-81534000D02*
X35560000Y-78994000D01*
X33020000Y-85598000D02*
X33020000Y-81534000D01*
X31750000Y-86868000D02*
X33020000Y-85598000D01*
D32*
X51054000Y-144526000D02*
X46664000Y-144526000D01*
X48338000Y-141732000D02*
X46664000Y-140058000D01*
X49530000Y-141732000D02*
X48338000Y-141732000D01*
X46664000Y-146558000D02*
X46664000Y-144526000D01*
X46664000Y-144526000D02*
X46664000Y-140058000D01*
X56316000Y-146558000D02*
X56316000Y-140058000D01*
X59944000Y-150114000D02*
X56284000Y-153774000D01*
X56284000Y-153774000D02*
X46664000Y-153774000D01*
X46664000Y-160274000D02*
X46664000Y-153774000D01*
D31*
X32004000Y-104394000D02*
X32004000Y-103378000D01*
X20066000Y-94488000D02*
X30480000Y-84074000D01*
X20066000Y-102616000D02*
X20066000Y-94488000D01*
X21336000Y-103886000D02*
X20066000Y-102616000D01*
X24892000Y-103886000D02*
X21336000Y-103886000D01*
X26416000Y-102362000D02*
X24892000Y-103886000D01*
X30988000Y-102362000D02*
X26416000Y-102362000D01*
X32004000Y-103378000D02*
X30988000Y-102362000D01*
M02*
