M48
;DRILL file {KiCad 4.0.7} date 08/22/18 18:45:29
;FORMAT={-:-/ absolute / inch / decimal}
FMAT,2
INCH,TZ
T1C0.016
T2C0.030
T3C0.031
T4C0.035
T5C0.039
T6C0.043
T7C0.053
T8C0.059
T9C0.060
%
G90
G05
M72
T1
X1.95Y-5.58
X1.95Y-5.85
X1.98Y-5.88
X2.01Y-5.69
X2.375Y-4.5
X2.44Y-4.65
X2.56Y-3.49
X2.86Y-4.25
X2.9Y-4.42
X2.92Y-3.435
X2.94Y-4.42
X3.075Y-4.925
X3.1Y-4.1
X3.12Y-4.925
X3.165Y-4.925
X3.305Y-5.1
X3.305Y-5.22
X3.305Y-5.365
X3.35Y-4.075
X3.4Y-3.38
X3.52Y-3.76
X3.62Y-4.05
X3.67Y-4.125
X3.72Y-3.905
X3.72Y-4.1
X3.77Y-4.075
X3.82Y-4.15
X3.87Y-3.905
X3.87Y-4.075
X4.1Y-3.86
X4.1Y-4.41
X4.2Y-3.41
X4.2Y-3.585
X4.25Y-4.15
X4.3Y-4.1
X4.35Y-4.025
X4.48Y-4.125
X4.58Y-4.075
X4.61Y-3.66
X4.62Y-4.84
X4.68Y-3.76
X4.68Y-3.86
X4.73Y-3.76
X4.78Y-3.56
X4.78Y-4.05
X4.8Y-4.81
X4.805Y-3.86
X4.85Y-5.32
X4.855Y-4.05
X4.875Y-5.22
X4.88Y-4.1
X4.905Y-4.025
X4.905Y-4.42
X4.91Y-3.89
X4.93Y-4.15
X4.98Y-4.05
X5.045Y-3.57
X5.125Y-5.885
X5.125Y-6.22
X5.165Y-5.96
X5.165Y-6.32
X5.175Y-4.49
X5.2Y-3.96
X5.2Y-4.54
X5.2Y-5.12
X5.2Y-5.7
X5.225Y-3.86
X5.225Y-4.44
X5.225Y-5.6
X5.28Y-3.57
X5.38Y-3.76
X5.38Y-4.115
X5.38Y-4.72
X5.38Y-5.5
X5.48Y-3.38
X5.48Y-3.76
X5.48Y-5.5
X5.51Y-4.97
X5.515Y-5.305
X5.53Y-3.595
X5.6Y-5.42
X5.63Y-3.625
X5.66Y-4.38
X5.66Y-4.54
X5.75Y-4.34
X5.75Y-4.52
X5.75Y-4.62
X5.75Y-4.75
T2
X1.72Y-4.31
X1.92Y-3.16
X2.12Y-3.16
X2.32Y-4.31
T3
X1.16Y-4.11
X1.16Y-4.41
X1.24Y-2.78
X1.25Y-3.51
X1.25Y-3.91
X1.26Y-4.11
X1.26Y-4.41
X1.26Y-4.57
X1.26Y-4.95
X1.26Y-5.25
X1.36Y-4.11
X1.36Y-4.41
X1.36Y-4.95
X1.36Y-5.25
X1.38Y-3.51
X1.38Y-3.91
X1.46Y-4.95
X1.46Y-5.25
X1.56Y-4.95
X1.56Y-5.25
X1.64Y-2.78
X1.66Y-4.57
X1.66Y-4.95
X1.66Y-5.25
X1.76Y-4.95
X1.76Y-5.25
X1.78Y-2.78
X1.86Y-4.95
X1.86Y-5.25
X1.96Y-4.95
X1.96Y-5.25
X2.18Y-2.78
X2.32Y-2.78
X2.36Y-5.91
X2.36Y-6.31
X2.5Y-5.91
X2.5Y-6.31
X2.56Y-3.
X2.56Y-3.3
X2.62Y-3.65
X2.62Y-3.75
X2.62Y-3.85
X2.62Y-3.95
X2.62Y-4.05
X2.62Y-4.15
X2.62Y-4.25
X2.62Y-4.35
X2.62Y-4.45
X2.62Y-4.55
X2.62Y-4.65
X2.62Y-4.75
X2.62Y-4.85
X2.62Y-4.95
X2.62Y-5.05
X2.62Y-5.15
X2.62Y-5.25
X2.62Y-5.35
X2.62Y-5.45
X2.62Y-5.55
X2.64Y-5.91
X2.64Y-6.31
X2.66Y-3.
X2.66Y-3.3
X2.72Y-2.78
X2.76Y-3.
X2.76Y-3.3
X2.78Y-5.91
X2.78Y-6.31
X2.86Y-2.78
X2.92Y-3.
X2.92Y-3.3
X2.92Y-5.91
X2.92Y-6.31
X3.02Y-3.
X3.02Y-3.3
X3.02Y-4.4516
X3.02Y-4.55
X3.06Y-5.91
X3.06Y-6.31
X3.12Y-3.
X3.12Y-3.3
X3.2Y-5.91
X3.2Y-6.31
X3.22Y-3.65
X3.22Y-3.75
X3.22Y-3.85
X3.22Y-3.95
X3.22Y-4.05
X3.22Y-4.15
X3.22Y-4.25
X3.22Y-4.35
X3.22Y-4.45
X3.22Y-4.55
X3.22Y-4.65
X3.22Y-4.75
X3.22Y-4.85
X3.22Y-4.95
X3.22Y-5.05
X3.22Y-5.15
X3.22Y-5.25
X3.22Y-5.35
X3.22Y-5.45
X3.22Y-5.55
X3.26Y-2.78
X3.32Y-3.49
X3.32Y-6.06
X3.34Y-5.54
X3.34Y-5.94
X3.4Y-2.78
X3.4Y-3.76
X3.4Y-3.8584
X3.48Y-5.54
X3.48Y-5.94
X3.52Y-3.66
X3.52Y-3.96
X3.62Y-3.66
X3.62Y-3.96
X3.62Y-5.54
X3.62Y-5.94
X3.72Y-3.49
X3.72Y-3.66
X3.72Y-3.96
X3.72Y-6.06
X3.8Y-2.78
X3.82Y-3.66
X3.82Y-3.96
X3.84Y-3.
X3.84Y-3.3
X3.84Y-5.04
X3.84Y-5.34
X3.86Y-4.22
X3.86Y-4.34
X3.9Y-3.49
X3.94Y-2.78
X3.94Y-3.
X3.94Y-3.3
X3.94Y-5.04
X3.94Y-5.34
X3.9584Y-4.22
X3.9584Y-4.34
X3.98Y-3.76
X3.98Y-3.8584
X4.04Y-3.
X4.04Y-3.3
X4.04Y-5.04
X4.04Y-5.34
X4.1Y-3.66
X4.1Y-3.96
X4.14Y-5.04
X4.14Y-5.34
X4.2Y-3.
X4.2Y-3.3
X4.2Y-3.66
X4.2Y-3.96
X4.24Y-5.04
X4.24Y-5.34
X4.3Y-3.
X4.3Y-3.3
X4.3Y-3.49
X4.3Y-3.66
X4.3Y-3.96
X4.34Y-2.78
X4.34Y-5.04
X4.34Y-5.34
X4.4Y-3.
X4.4Y-3.3
X4.4Y-3.66
X4.4Y-3.96
X4.44Y-5.04
X4.44Y-5.34
X4.48Y-2.78
X4.48Y-3.49
X4.56Y-3.
X4.56Y-3.3
X4.56Y-3.76
X4.56Y-3.8584
X4.66Y-3.
X4.66Y-3.3
X4.68Y-3.66
X4.68Y-3.96
X4.76Y-3.
X4.76Y-3.3
X4.78Y-3.66
X4.78Y-3.96
X4.88Y-2.78
X4.88Y-3.49
X4.88Y-3.66
X4.88Y-3.96
X4.92Y-3.
X4.92Y-3.3
X4.98Y-3.66
X4.98Y-3.96
X5.02Y-2.78
X5.02Y-3.
X5.02Y-3.3
X5.12Y-3.
X5.12Y-3.3
X5.12Y-3.66
X5.12Y-4.06
X5.125Y-4.54
X5.125Y-4.94
X5.125Y-5.22
X5.125Y-5.62
X5.145Y-3.49
X5.28Y-3.
X5.28Y-3.3
X5.28Y-3.76
X5.28Y-3.86
X5.28Y-3.96
X5.28Y-4.06
X5.28Y-4.34
X5.28Y-4.44
X5.28Y-4.54
X5.28Y-4.64
X5.28Y-4.92
X5.28Y-5.02
X5.28Y-5.12
X5.28Y-5.22
X5.28Y-5.5
X5.28Y-5.6
X5.28Y-5.7
X5.28Y-5.8
X5.28Y-6.08
X5.28Y-6.18
X5.28Y-6.28
X5.28Y-6.38
X5.38Y-3.
X5.38Y-3.3
X5.3816Y-3.64
X5.3816Y-4.22
X5.3816Y-4.8
X5.3816Y-5.38
X5.3816Y-5.96
X5.42Y-2.78
X5.48Y-3.
X5.48Y-3.3
X5.48Y-3.64
X5.48Y-4.22
X5.48Y-4.8
X5.48Y-5.38
X5.48Y-5.96
X5.545Y-3.49
X5.58Y-3.76
X5.58Y-3.86
X5.58Y-3.96
X5.58Y-4.06
X5.58Y-4.34
X5.58Y-4.44
X5.58Y-4.54
X5.58Y-4.64
X5.58Y-4.92
X5.58Y-5.02
X5.58Y-5.12
X5.58Y-5.22
X5.58Y-5.5
X5.58Y-5.6
X5.58Y-5.7
X5.58Y-5.8
X5.58Y-6.08
X5.58Y-6.18
X5.58Y-6.28
X5.58Y-6.38
X5.64Y-3.
X5.64Y-3.3
X5.705Y-5.8
X5.705Y-6.2
X5.74Y-3.
X5.74Y-3.3
X5.84Y-3.
X5.84Y-3.3
T4
X3.38Y-4.87
X3.38Y-4.97
X3.38Y-5.17
X3.38Y-5.27
T5
X0.96Y-4.5731
X0.96Y-4.77
X1.2Y-3.11
X1.2Y-3.31
X1.4Y-3.11
X1.4Y-3.31
X1.44Y-2.6
X1.54Y-2.6
X1.64Y-2.6
X1.98Y-2.6
X2.08Y-2.6
X2.18Y-2.6
X2.52Y-2.6
X2.62Y-2.6
X2.66Y-5.75
X2.72Y-2.6
X2.76Y-5.75
X2.86Y-5.75
X2.96Y-5.75
X3.06Y-2.6
X3.06Y-5.75
X3.16Y-2.6
X3.16Y-5.75
X3.26Y-2.6
X3.6Y-2.6
X3.7Y-2.6
X3.8Y-2.6
X3.9291Y-4.585
X3.9291Y-4.685
X4.0291Y-4.585
X4.0291Y-4.685
X4.1291Y-4.585
X4.1291Y-4.685
X4.14Y-2.6
X4.18Y-4.26
X4.2291Y-4.585
X4.2291Y-4.685
X4.24Y-2.6
X4.28Y-4.26
X4.3291Y-4.585
X4.3291Y-4.685
X4.34Y-2.6
X4.38Y-4.26
X4.4291Y-4.585
X4.4291Y-4.685
X4.48Y-4.26
X4.58Y-4.26
X4.68Y-2.6
X4.68Y-4.26
X4.78Y-2.6
X4.88Y-2.6
X5.Y-4.32
X5.Y-4.42
X5.Y-4.52
X5.Y-4.62
X5.Y-4.72
X5.Y-4.82
X5.Y-5.12
X5.Y-5.22
X5.Y-5.32
X5.Y-5.42
X5.Y-5.52
X5.Y-5.62
X5.Y-5.92
X5.Y-6.02
X5.Y-6.12
X5.Y-6.22
X5.Y-6.32
X5.Y-6.42
X5.22Y-2.6
X5.32Y-2.6
X5.42Y-2.6
X5.84Y-3.52
X5.84Y-3.62
X5.84Y-3.72
X5.84Y-3.82
X5.84Y-3.92
X5.84Y-4.02
X5.84Y-4.22
X5.84Y-4.32
X5.84Y-4.42
X5.84Y-4.52
X5.84Y-4.62
X5.84Y-4.72
X5.84Y-4.92
X5.84Y-5.02
X5.84Y-5.12
X5.84Y-5.22
X5.84Y-5.32
X5.84Y-5.42
X5.84Y-5.62
X5.84Y-5.72
X5.84Y-5.82
X5.84Y-5.92
X5.84Y-6.02
X5.84Y-6.12
T6
X0.9Y-5.5141
X0.9Y-5.77
X1.0772Y-5.5141
X1.0772Y-5.77
X1.28Y-5.5141
X1.28Y-5.77
X1.28Y-6.0541
X1.28Y-6.31
X1.4572Y-5.5141
X1.4572Y-5.77
X1.4572Y-6.0541
X1.4572Y-6.31
X1.66Y-5.5141
X1.66Y-5.77
X1.66Y-6.0541
X1.66Y-6.31
X1.8372Y-5.5141
X1.8372Y-5.77
X1.8372Y-6.0541
X1.8372Y-6.31
X2.04Y-5.5141
X2.04Y-5.77
X2.2172Y-5.5141
X2.2172Y-5.77
T7
X0.9Y-3.1826
X0.9Y-3.3794
X0.9Y-3.7731
X0.9Y-3.97
X1.54Y-1.3
X1.54Y-1.4969
X1.54Y-1.8906
X1.54Y-2.0874
X2.08Y-1.3
X2.08Y-1.4969
X2.08Y-1.8906
X2.08Y-2.0874
X2.62Y-1.3
X2.62Y-1.4969
X2.62Y-1.8906
X2.62Y-2.0874
X3.16Y-1.3
X3.16Y-1.4969
X3.16Y-1.8906
X3.16Y-2.0874
X3.7Y-1.3
X3.7Y-1.4969
X3.7Y-1.8906
X3.7Y-2.0874
X4.24Y-1.3
X4.24Y-1.4969
X4.24Y-1.8906
X4.24Y-2.0874
X4.78Y-1.3
X4.78Y-1.4969
X4.78Y-1.8906
X4.78Y-2.0874
X5.32Y-1.3
X5.32Y-1.4969
X5.32Y-1.8906
X5.32Y-2.0874
T8
X3.48Y-4.28
X3.6729Y-4.28
T9
X0.9Y-1.62
X0.9Y-1.82
X1.44Y-0.96
X1.64Y-0.96
X1.98Y-0.96
X2.18Y-0.96
X2.52Y-0.96
X2.72Y-0.96
X3.06Y-0.96
X3.26Y-0.96
X3.6Y-0.96
X3.8Y-0.96
X4.14Y-0.96
X4.34Y-0.96
X4.68Y-0.96
X4.88Y-0.96
X5.22Y-0.96
X5.42Y-0.96
T0
M30
