M48
;DRILL file {KiCad 4.0.7} date 06/18/18 16:48:22
;FORMAT={-:-/ absolute / inch / decimal}
FMAT,2
INCH,TZ
T1C0.016
T2C0.030
T3C0.031
T4C0.035
T5C0.039
T6C0.043
T7C0.053
T8C0.059
T9C0.060
%
G90
G05
M72
T1
X2.15Y-3.625
X2.15Y-3.975
X2.2Y-2.4
X2.2Y-2.55
X2.225Y-3.625
X2.225Y-3.975
X2.3Y-2.775
X2.3Y-3.15
X2.35Y-2.4
X2.35Y-2.55
X2.575Y-2.725
X2.675Y-2.725
X3.45Y-4.275
X3.475Y-3.225
X3.7Y-2.15
X3.7Y-2.55
X3.7Y-2.625
X3.75Y-2.675
X3.775Y-4.625
X3.825Y-4.275
X3.85Y-3.275
X3.9Y-3.125
X4.025Y-4.625
X4.1Y-2.975
X4.1Y-3.075
X4.15Y-3.225
X4.2Y-2.625
X4.2Y-3.275
X4.25Y-3.125
X4.3Y-2.675
X4.425Y-4.125
X4.5Y-2.425
X4.5Y-2.775
X4.5Y-2.875
X4.5Y-3.075
X4.55Y-2.175
X4.55Y-2.425
X4.55Y-2.525
X4.55Y-3.625
X4.6Y-2.575
X4.6Y-3.675
X4.625Y-1.975
X4.7Y-1.925
X4.725Y-4.075
X4.725Y-4.175
X4.725Y-4.525
X4.725Y-4.675
X4.75Y-1.975
X4.75Y-2.025
X4.85Y-4.075
X4.9Y-1.925
X4.9Y-2.025
X4.9Y-3.9
X4.9Y-4.05
X4.9Y-4.125
X5.1Y-2.175
X5.1Y-2.475
X5.1Y-4.175
X5.175Y-4.9175
X5.2Y-4.45
X5.25Y-4.025
X5.25Y-4.375
X5.3Y-4.075
X5.3Y-4.225
X5.3Y-4.45
X5.375Y-4.125
X5.375Y-4.375
X5.4Y-2.75
X5.525Y-3.675
X5.525Y-3.85
X5.525Y-4.125
X5.575Y-3.725
X5.6Y-2.75
X5.675Y-2.55
X5.675Y-2.8
X5.675Y-2.925
X5.675Y-3.025
X5.675Y-4.125
X5.725Y-2.35
X5.725Y-2.7
X5.725Y-4.075
X5.725Y-4.4
X5.8Y-2.825
X5.8Y-3.025
X5.825Y-1.975
X5.825Y-3.525
X5.825Y-3.625
X5.875Y-3.675
X5.875Y-3.725
X5.8775Y-4.9175
X5.95Y-3.85
X6.175Y-2.5
X6.175Y-2.775
X6.2Y-1.975
X6.225Y-2.975
X6.225Y-3.525
X6.275Y-2.775
X6.35Y-2.5
X6.375Y-3.875
X6.375Y-4.35
X6.45Y-2.95
X6.45Y-3.05
X6.45Y-3.3
X6.45Y-3.6
X6.625Y-3.825
X6.625Y-4.2
T2
X1.Y-4.45
X1.2Y-3.3
X1.4Y-3.3
X1.6Y-4.45
T3
X1.4Y-2.5
X1.4Y-3.
X1.8Y-2.5
X1.8Y-2.65
X1.8Y-2.75
X1.8Y-2.85
X1.8Y-3.
X1.825Y-1.675
X1.825Y-1.775
X1.825Y-2.075
X1.825Y-2.2
X1.875Y-4.3
X1.875Y-4.7
X1.875Y-4.8
X1.875Y-5.2
X1.925Y-1.775
X1.925Y-2.075
X2.Y-4.3
X2.Y-4.7
X2.Y-4.8
X2.Y-5.2
X2.025Y-1.775
X2.025Y-2.075
X2.1Y-2.65
X2.1Y-2.75
X2.1Y-2.85
X2.2Y-2.75
X2.2Y-3.15
X2.225Y-1.675
X2.225Y-2.2
X2.425Y-2.2
X2.425Y-2.3
X2.425Y-2.4
X2.425Y-2.5
X2.45Y-2.875
X2.45Y-3.175
X2.45Y-3.35
X2.45Y-3.95
X2.525Y-2.6
X2.55Y-2.875
X2.55Y-3.175
X2.55Y-3.35
X2.55Y-3.95
X2.6234Y-2.6
X2.625Y-4.875
X2.625Y-5.
X2.65Y-2.875
X2.65Y-3.175
X2.65Y-3.35
X2.65Y-3.95
X2.725Y-2.2
X2.725Y-2.3
X2.725Y-2.4
X2.725Y-2.5
X2.75Y-2.875
X2.75Y-3.175
X2.75Y-3.35
X2.75Y-3.95
X2.85Y-2.875
X2.85Y-3.175
X2.85Y-3.35
X2.85Y-3.95
X2.95Y-2.875
X2.95Y-3.175
X2.95Y-3.35
X2.95Y-3.95
X3.025Y-4.875
X3.025Y-5.
X3.05Y-2.875
X3.05Y-3.175
X3.05Y-3.35
X3.05Y-3.95
X3.075Y-4.35
X3.075Y-4.75
X3.15Y-2.875
X3.15Y-3.175
X3.15Y-3.35
X3.15Y-3.95
X3.2Y-4.35
X3.2Y-4.75
X3.225Y-1.675
X3.225Y-1.775
X3.225Y-2.075
X3.25Y-3.35
X3.25Y-3.95
X3.325Y-1.775
X3.325Y-2.075
X3.325Y-2.55
X3.325Y-2.65
X3.325Y-2.75
X3.325Y-2.85
X3.325Y-2.95
X3.325Y-3.05
X3.325Y-3.15
X3.325Y-4.35
X3.325Y-4.75
X3.35Y-3.35
X3.35Y-3.95
X3.425Y-1.775
X3.425Y-2.075
X3.45Y-3.35
X3.45Y-3.7
X3.45Y-3.95
X3.45Y-4.35
X3.45Y-4.75
X3.5484Y-3.7
X3.55Y-3.35
X3.55Y-3.95
X3.575Y-4.6
X3.575Y-4.6984
X3.625Y-1.675
X3.625Y-2.55
X3.625Y-2.65
X3.625Y-2.75
X3.625Y-2.85
X3.625Y-2.95
X3.625Y-3.05
X3.625Y-3.15
X3.65Y-3.35
X3.65Y-3.95
X3.675Y-1.975
X3.675Y-4.6
X3.675Y-4.6984
X3.75Y-3.35
X3.75Y-3.95
X3.85Y-3.35
X3.85Y-3.95
X3.95Y-3.35
X3.95Y-3.95
X4.05Y-3.35
X4.05Y-3.95
X4.075Y-1.975
X4.15Y-3.35
X4.15Y-3.95
X4.25Y-1.775
X4.25Y-1.875
X4.25Y-1.975
X4.25Y-2.075
X4.25Y-3.35
X4.25Y-3.95
X4.25Y-4.7
X4.325Y-4.2
X4.325Y-4.5
X4.35Y-2.175
X4.35Y-3.35
X4.35Y-3.95
X4.425Y-4.2
X4.425Y-4.5
X4.4484Y-2.175
X4.525Y-4.2
X4.525Y-4.5
X4.55Y-1.775
X4.55Y-1.875
X4.55Y-1.975
X4.55Y-2.075
X4.575Y-5.2
X4.625Y-4.2
X4.625Y-4.5
X4.65Y-4.7
X4.725Y-4.3016
X4.725Y-4.4
X4.775Y-3.625
X4.775Y-3.7234
X4.775Y-4.75
X4.775Y-5.05
X4.875Y-3.525
X4.875Y-3.825
X4.875Y-4.75
X4.875Y-5.05
X4.975Y-3.525
X4.975Y-3.825
X4.975Y-4.75
X4.975Y-5.05
X4.975Y-5.2
X5.075Y-1.7
X5.075Y-1.8
X5.075Y-2.1
X5.075Y-3.525
X5.075Y-3.825
X5.175Y-1.8
X5.175Y-2.1
X5.175Y-3.525
X5.175Y-3.825
X5.275Y-1.8
X5.275Y-2.1
X5.3875Y-4.5375
X5.3875Y-4.6375
X5.3875Y-4.7375
X5.3875Y-4.8375
X5.475Y-1.7
X5.5016Y-4.425
X5.575Y-2.075
X5.575Y-2.475
X5.6Y-4.425
X5.6875Y-4.5375
X5.6875Y-4.6375
X5.6875Y-4.7375
X5.6875Y-4.8375
X5.7Y-3.2
X5.7Y-3.2984
X5.8Y-2.4
X5.8Y-2.5
X5.8Y-2.6
X5.8Y-2.7
X5.8Y-3.1
X5.8Y-3.4
X5.85Y-4.05
X5.85Y-4.1484
X5.9Y-2.8
X5.9Y-3.1
X5.9Y-3.4
X5.95Y-3.95
X5.95Y-4.25
X5.9984Y-2.8
X6.Y-3.1
X6.Y-3.4
X6.05Y-3.95
X6.05Y-4.25
X6.1Y-2.4
X6.1Y-2.5
X6.1Y-2.6
X6.1Y-2.7
X6.1Y-3.1
X6.1Y-3.4
X6.15Y-3.95
X6.15Y-4.25
X6.2Y-4.45
X6.25Y-3.95
X6.25Y-4.25
X6.425Y-1.6
X6.425Y-1.875
X6.425Y-2.275
X6.55Y-1.725
X6.55Y-2.025
X6.6Y-4.45
X6.65Y-1.725
X6.65Y-2.025
X6.725Y-3.5
X6.725Y-3.9
X6.75Y-1.725
X6.75Y-2.025
X6.775Y-4.775
X6.825Y-1.6
X6.825Y-2.2
X6.825Y-2.6
X6.85Y-4.275
X6.85Y-4.375
X6.85Y-4.475
X6.95Y-2.2
X6.95Y-2.3
X6.95Y-2.4
X6.95Y-3.525
X6.95Y-3.75
X6.95Y-3.85
X6.95Y-3.95
X7.1Y-1.975
X7.15Y-4.275
X7.15Y-4.375
X7.15Y-4.475
X7.175Y-4.775
X7.25Y-2.2
X7.25Y-2.3
X7.25Y-2.4
X7.25Y-3.75
X7.25Y-3.85
X7.25Y-3.95
X7.35Y-3.525
X7.5Y-1.975
T4
X3.15Y-4.15
X3.15Y-4.25
X3.35Y-4.15
X3.35Y-4.25
T5
X1.4Y-4.9
X1.45Y-2.65
X1.45Y-2.85
X1.5969Y-4.9
X1.65Y-2.65
X1.65Y-2.85
X2.025Y-3.4
X2.025Y-3.5
X2.025Y-3.6
X2.025Y-3.7
X2.025Y-3.8
X2.025Y-3.9
X2.325Y-2.
X2.425Y-2.
X2.475Y-1.4
X2.475Y-1.5
X2.475Y-1.6
X2.525Y-2.
X2.625Y-2.
X2.725Y-2.
X2.825Y-2.
X3.275Y-5.3
X3.375Y-5.3
X3.475Y-5.3
X3.85Y-1.45
X3.85Y-1.55
X3.85Y-1.65
X3.9Y-2.775
X3.9Y-2.875
X4.Y-2.775
X4.Y-2.875
X4.1Y-2.775
X4.1Y-2.875
X4.125Y-4.2
X4.125Y-4.3
X4.125Y-4.4
X4.125Y-4.5
X4.125Y-4.6
X4.125Y-4.7
X4.2Y-2.775
X4.2Y-2.875
X4.225Y-1.575
X4.3Y-2.775
X4.3Y-2.875
X4.325Y-1.575
X4.4Y-2.775
X4.4Y-2.875
X4.425Y-1.575
X4.525Y-1.575
X4.625Y-1.575
X4.7Y-2.775
X4.7Y-2.875
X4.725Y-1.575
X4.8Y-2.775
X4.8Y-2.875
X4.9Y-2.775
X4.9Y-2.875
X5.Y-2.775
X5.Y-2.875
X5.1Y-2.775
X5.1Y-2.875
X5.275Y-5.
X5.325Y-2.675
X5.325Y-2.775
X5.325Y-2.875
X5.375Y-5.
X5.425Y-3.5
X5.425Y-3.6
X5.425Y-3.7
X5.425Y-3.8
X5.425Y-3.9
X5.425Y-4.
X5.475Y-5.
X5.575Y-5.
X5.675Y-5.
X5.7Y-2.175
X5.725Y-1.4
X5.725Y-1.5
X5.725Y-1.6
X5.775Y-5.
X5.8Y-2.175
X5.9Y-2.175
X6.Y-2.175
X6.1Y-2.175
X6.2Y-2.175
X6.25Y-4.775
X6.325Y-2.9
X6.325Y-3.
X6.325Y-3.1
X6.325Y-3.2
X6.325Y-3.3
X6.325Y-3.4
X6.35Y-4.775
X6.45Y-4.775
X6.5Y-3.8
X6.5Y-3.9
X6.5Y-4.
X6.5Y-4.1
X6.5Y-4.2
X6.5Y-4.3
X7.075Y-1.4
X7.075Y-1.5
X7.075Y-1.6
X7.35Y-2.775
X7.4Y-4.225
X7.45Y-2.775
X7.5Y-4.225
X7.55Y-2.775
X7.6Y-4.225
T6
X2.1441Y-4.2728
X2.1441Y-4.45
X2.1441Y-4.5728
X2.1441Y-4.75
X2.1441Y-4.8728
X2.1441Y-5.05
X2.1441Y-5.1728
X2.1441Y-5.35
X2.4Y-4.2728
X2.4Y-4.45
X2.4Y-4.5728
X2.4Y-4.75
X2.4Y-4.8728
X2.4Y-5.05
X2.4Y-5.1728
X2.4Y-5.35
X2.6941Y-4.2728
X2.6941Y-4.45
X2.6941Y-4.5728
X2.6941Y-4.75
X2.95Y-4.2728
X2.95Y-4.45
X2.95Y-4.5728
X2.95Y-4.75
T7
X1.1Y-2.1126
X1.1Y-2.3094
X1.1Y-2.7031
X1.1Y-2.9
X1.575Y-0.95
X1.575Y-1.1469
X1.575Y-1.5406
X1.575Y-1.7374
X2.975Y-0.95
X2.975Y-1.1469
X2.975Y-1.5406
X2.975Y-1.7374
X4.05Y-1.175
X4.2469Y-1.175
X4.6406Y-1.175
X4.8374Y-1.175
X5.1626Y-5.3
X5.3594Y-5.3
X5.7531Y-5.3
X5.95Y-5.3
X6.175Y-0.95
X6.175Y-1.1469
X6.175Y-1.5406
X6.175Y-1.7374
X6.9376Y-3.225
X6.9376Y-5.075
X7.1344Y-3.225
X7.1344Y-5.075
X7.5Y-0.95
X7.5Y-1.1469
X7.5Y-1.5406
X7.5Y-1.7374
X7.5281Y-3.225
X7.5281Y-5.075
X7.725Y-3.225
X7.725Y-5.075
T8
X3.6321Y-4.45
X3.825Y-4.45
T9
X1.1Y-1.5
X1.1Y-1.7
X1.9Y-1.275
X2.1Y-1.275
X3.3Y-1.275
X3.5Y-1.275
X4.025Y-5.25
X4.225Y-5.25
X5.15Y-1.275
X5.35Y-1.275
X6.4Y-5.175
X6.5Y-1.275
X6.6Y-5.175
X6.7Y-1.275
X7.7Y-2.225
X7.7Y-2.425
X7.7Y-3.675
X7.7Y-3.875
T0
M30
