%TF.GenerationSoftware,KiCad,Pcbnew,4.0.7*%
%TF.CreationDate,2018-08-12T17:37:47+01:00*%
%TF.ProjectId,dmx-eth-dimmer,646D782D6574682D64696D6D65722E6B,rev?*%
%TF.FileFunction,Soldermask,Bot*%
%FSLAX46Y46*%
G04 Gerber Fmt 4.6, Leading zero omitted, Abs format (unit mm)*
G04 Created by KiCad (PCBNEW 4.0.7) date 08/12/18 17:37:47*
%MOMM*%
%LPD*%
G01*
G04 APERTURE LIST*
%ADD10C,0.150000*%
%ADD11C,0.100000*%
%ADD12R,1.600000X1.600000*%
%ADD13O,1.600000X1.600000*%
%ADD14C,1.600000*%
%ADD15C,3.200000*%
%ADD16C,1.524000*%
%ADD17R,2.000000X2.000000*%
%ADD18C,2.000000*%
%ADD19R,1.800000X1.800000*%
%ADD20C,1.800000*%
%ADD21O,1.800000X1.800000*%
%ADD22C,2.350000*%
%ADD23R,3.000000X3.000000*%
%ADD24C,3.000000*%
%ADD25R,1.700000X1.700000*%
%ADD26O,1.700000X1.700000*%
%ADD27C,2.300000*%
%ADD28O,2.000000X2.000000*%
%ADD29C,4.300000*%
G04 APERTURE END LIST*
D10*
D11*
X93980000Y-168910000D02*
X17780000Y-168910000D01*
X97790000Y-143510000D02*
X97790000Y-165100000D01*
X113030000Y-142240000D02*
X99060000Y-142240000D01*
X114300000Y-165100000D02*
X114300000Y-143510000D01*
X156210000Y-168910000D02*
X118110000Y-168910000D01*
X114300000Y-143510000D02*
G75*
G03X113030000Y-142240000I-1270000J0D01*
G01*
X99060000Y-142240000D02*
G75*
G03X97790000Y-143510000I0J-1270000D01*
G01*
X114300000Y-165100000D02*
G75*
G03X118110000Y-168910000I3810000J0D01*
G01*
X93980000Y-168910000D02*
G75*
G03X97790000Y-165100000I0J3810000D01*
G01*
X161290000Y-17780000D02*
X161290000Y-163830000D01*
X17780000Y-12700000D02*
X156210000Y-12700000D01*
X12700000Y-163830000D02*
X12700000Y-17780000D01*
X156210000Y-168910000D02*
G75*
G03X161290000Y-163830000I0J5080000D01*
G01*
X161290000Y-17780000D02*
G75*
G03X156210000Y-12700000I-5080000J0D01*
G01*
X12700000Y-163830000D02*
G75*
G03X17780000Y-168910000I5080000J0D01*
G01*
X17780000Y-12700000D02*
G75*
G03X12700000Y-17780000I0J-5080000D01*
G01*
D12*
X134112000Y-95504000D03*
D13*
X141732000Y-103124000D03*
X134112000Y-98044000D03*
X141732000Y-100584000D03*
X134112000Y-100584000D03*
X141732000Y-98044000D03*
X134112000Y-103124000D03*
X141732000Y-95504000D03*
D14*
X137668000Y-70612000D03*
D13*
X127508000Y-70612000D03*
D15*
X92500000Y-161686000D03*
X92500000Y-117686000D03*
X119500000Y-161686000D03*
D16*
X43688000Y-109474000D03*
X58928000Y-109474000D03*
X53848000Y-80264000D03*
X48768000Y-80264000D03*
D14*
X98044000Y-110236000D03*
X100544000Y-110236000D03*
X98044000Y-107188000D03*
X100544000Y-107188000D03*
D17*
X24384000Y-121158000D03*
D18*
X24384000Y-116158000D03*
D14*
X76708000Y-115570000D03*
X76708000Y-113070000D03*
X86360000Y-95504000D03*
X86360000Y-98004000D03*
X101092000Y-95504000D03*
X101092000Y-98004000D03*
X115824000Y-95504000D03*
X115824000Y-98004000D03*
X139192000Y-92456000D03*
X136692000Y-92456000D03*
X139192000Y-107188000D03*
X136692000Y-107188000D03*
X139192000Y-121920000D03*
X136692000Y-121920000D03*
X139192000Y-136652000D03*
X136692000Y-136652000D03*
X139192000Y-151384000D03*
X136692000Y-151384000D03*
D19*
X85852000Y-133858000D03*
D20*
X85852000Y-131318000D03*
D19*
X85852000Y-126238000D03*
D20*
X85852000Y-123698000D03*
D19*
X36576000Y-66040000D03*
D21*
X39116000Y-66040000D03*
X41656000Y-66040000D03*
D19*
X50292000Y-66040000D03*
D21*
X52832000Y-66040000D03*
X55372000Y-66040000D03*
D19*
X64008000Y-66040000D03*
D21*
X66548000Y-66040000D03*
X69088000Y-66040000D03*
D19*
X77724000Y-66040000D03*
D21*
X80264000Y-66040000D03*
X82804000Y-66040000D03*
D19*
X91440000Y-66040000D03*
D21*
X93980000Y-66040000D03*
X96520000Y-66040000D03*
D19*
X105156000Y-66040000D03*
D21*
X107696000Y-66040000D03*
X110236000Y-66040000D03*
D19*
X118872000Y-66040000D03*
D21*
X121412000Y-66040000D03*
X123952000Y-66040000D03*
D19*
X132588000Y-66040000D03*
D21*
X135128000Y-66040000D03*
X137668000Y-66040000D03*
D22*
X22860000Y-85838000D03*
X22860000Y-80838000D03*
X22860000Y-95838000D03*
X22860000Y-100838000D03*
X39116000Y-48020000D03*
X39116000Y-53020000D03*
X39116000Y-38020000D03*
X39116000Y-33020000D03*
X52832000Y-48020000D03*
X52832000Y-53020000D03*
X52832000Y-38020000D03*
X52832000Y-33020000D03*
X66548000Y-48020000D03*
X66548000Y-53020000D03*
X66548000Y-38020000D03*
X66548000Y-33020000D03*
X80264000Y-48020000D03*
X80264000Y-53020000D03*
X80264000Y-38020000D03*
X80264000Y-33020000D03*
X93980000Y-48020000D03*
X93980000Y-53020000D03*
X93980000Y-38020000D03*
X93980000Y-33020000D03*
X107696000Y-48020000D03*
X107696000Y-53020000D03*
X107696000Y-38020000D03*
X107696000Y-33020000D03*
X121412000Y-48020000D03*
X121412000Y-53020000D03*
X121412000Y-38020000D03*
X121412000Y-33020000D03*
X135128000Y-48020000D03*
X135128000Y-53020000D03*
X135128000Y-38020000D03*
X135128000Y-33020000D03*
D23*
X22860000Y-46228000D03*
D24*
X22860000Y-41148000D03*
D25*
X80264000Y-146050000D03*
D26*
X77724000Y-146050000D03*
X75184000Y-146050000D03*
X72644000Y-146050000D03*
X70104000Y-146050000D03*
X67564000Y-146050000D03*
D25*
X106172000Y-108204000D03*
D26*
X108712000Y-108204000D03*
X111252000Y-108204000D03*
X113792000Y-108204000D03*
X116332000Y-108204000D03*
X118872000Y-108204000D03*
D23*
X36576000Y-24384000D03*
D24*
X41656000Y-24384000D03*
D25*
X127000000Y-122428000D03*
D26*
X127000000Y-119888000D03*
X127000000Y-117348000D03*
X127000000Y-114808000D03*
X127000000Y-112268000D03*
X127000000Y-109728000D03*
D23*
X50292000Y-24384000D03*
D24*
X55372000Y-24384000D03*
D25*
X127000000Y-142748000D03*
D26*
X127000000Y-140208000D03*
X127000000Y-137668000D03*
X127000000Y-135128000D03*
X127000000Y-132588000D03*
X127000000Y-130048000D03*
D23*
X64008000Y-24384000D03*
D24*
X69088000Y-24384000D03*
D25*
X148336000Y-102108000D03*
D26*
X148336000Y-99568000D03*
X148336000Y-97028000D03*
X148336000Y-94488000D03*
X148336000Y-91948000D03*
X148336000Y-89408000D03*
D23*
X77724000Y-24384000D03*
D24*
X82804000Y-24384000D03*
D25*
X148336000Y-119888000D03*
D26*
X148336000Y-117348000D03*
X148336000Y-114808000D03*
X148336000Y-112268000D03*
X148336000Y-109728000D03*
X148336000Y-107188000D03*
D23*
X91440000Y-24384000D03*
D24*
X96520000Y-24384000D03*
D25*
X148336000Y-137668000D03*
D26*
X148336000Y-135128000D03*
X148336000Y-132588000D03*
X148336000Y-130048000D03*
X148336000Y-127508000D03*
X148336000Y-124968000D03*
D23*
X105156000Y-24384000D03*
D24*
X110236000Y-24384000D03*
D25*
X148336000Y-155448000D03*
D26*
X148336000Y-152908000D03*
X148336000Y-150368000D03*
X148336000Y-147828000D03*
X148336000Y-145288000D03*
X148336000Y-142748000D03*
D23*
X118872000Y-24384000D03*
D24*
X123952000Y-24384000D03*
D25*
X127000000Y-163068000D03*
D26*
X127000000Y-160528000D03*
X127000000Y-157988000D03*
X127000000Y-155448000D03*
X127000000Y-152908000D03*
X127000000Y-150368000D03*
D23*
X132588000Y-24384000D03*
D24*
X137668000Y-24384000D03*
D14*
X67056000Y-150114000D03*
D13*
X67056000Y-160274000D03*
D14*
X70612000Y-150114000D03*
D13*
X70612000Y-160274000D03*
D14*
X74168000Y-150114000D03*
D13*
X74168000Y-160274000D03*
D14*
X88392000Y-150876000D03*
D13*
X88392000Y-140716000D03*
D14*
X84836000Y-150876000D03*
D13*
X84836000Y-140716000D03*
D14*
X91948000Y-150876000D03*
D13*
X91948000Y-140716000D03*
D14*
X84328000Y-153924000D03*
D13*
X94488000Y-153924000D03*
D14*
X77724000Y-150114000D03*
D13*
X77724000Y-160274000D03*
D14*
X63500000Y-150114000D03*
D13*
X63500000Y-160274000D03*
D14*
X59944000Y-150114000D03*
D13*
X59944000Y-160274000D03*
D14*
X42164000Y-116078000D03*
D13*
X32004000Y-116078000D03*
D14*
X94488000Y-88646000D03*
D13*
X84328000Y-88646000D03*
D14*
X41656000Y-70612000D03*
D13*
X31496000Y-70612000D03*
D14*
X109220000Y-88646000D03*
D13*
X99060000Y-88646000D03*
D14*
X55372000Y-70612000D03*
D13*
X45212000Y-70612000D03*
D14*
X123952000Y-88646000D03*
D13*
X113792000Y-88646000D03*
D14*
X69088000Y-70612000D03*
D13*
X58928000Y-70612000D03*
D14*
X140843000Y-88646000D03*
D13*
X130683000Y-88646000D03*
D14*
X82804000Y-70612000D03*
D13*
X72644000Y-70612000D03*
D14*
X130048000Y-103124000D03*
D13*
X130048000Y-92964000D03*
D14*
X96520000Y-70612000D03*
D13*
X86360000Y-70612000D03*
D14*
X130175000Y-125476000D03*
D13*
X130175000Y-115316000D03*
D14*
X110236000Y-70612000D03*
D13*
X100076000Y-70612000D03*
D14*
X130175000Y-142748000D03*
D13*
X130175000Y-132588000D03*
D14*
X123952000Y-70612000D03*
D13*
X113792000Y-70612000D03*
D14*
X144907000Y-157480000D03*
D13*
X144907000Y-147320000D03*
D14*
X35052000Y-89154000D03*
D13*
X35052000Y-99314000D03*
D14*
X31750000Y-99314000D03*
D13*
X31750000Y-89154000D03*
D14*
X81280000Y-150114000D03*
D13*
X81280000Y-160274000D03*
D12*
X49784000Y-125730000D03*
D13*
X32004000Y-133350000D03*
X47244000Y-125730000D03*
X34544000Y-133350000D03*
X44704000Y-125730000D03*
X37084000Y-133350000D03*
X42164000Y-125730000D03*
X39624000Y-133350000D03*
X39624000Y-125730000D03*
X42164000Y-133350000D03*
X37084000Y-125730000D03*
X44704000Y-133350000D03*
X34544000Y-125730000D03*
X47244000Y-133350000D03*
X32004000Y-125730000D03*
X49784000Y-133350000D03*
D12*
X81788000Y-140970000D03*
D13*
X66548000Y-92710000D03*
X81788000Y-138430000D03*
X66548000Y-95250000D03*
X81788000Y-135890000D03*
X66548000Y-97790000D03*
X81788000Y-133350000D03*
X66548000Y-100330000D03*
X81788000Y-130810000D03*
X66548000Y-102870000D03*
X81788000Y-128270000D03*
X66548000Y-105410000D03*
X81788000Y-125730000D03*
X66548000Y-107950000D03*
X81788000Y-123190000D03*
X66548000Y-110490000D03*
X81788000Y-120650000D03*
X66548000Y-113030000D03*
X81788000Y-118110000D03*
X66548000Y-115570000D03*
X81788000Y-115570000D03*
X66548000Y-118110000D03*
X81788000Y-113030000D03*
X66548000Y-120650000D03*
X81788000Y-110490000D03*
X66548000Y-123190000D03*
X81788000Y-107950000D03*
X66548000Y-125730000D03*
X81788000Y-105410000D03*
X66548000Y-128270000D03*
X81788000Y-102870000D03*
X66548000Y-130810000D03*
X81788000Y-100330000D03*
X66548000Y-133350000D03*
X81788000Y-97790000D03*
X66548000Y-135890000D03*
X81788000Y-95250000D03*
X66548000Y-138430000D03*
X81788000Y-92710000D03*
X66548000Y-140970000D03*
D12*
X112776000Y-128016000D03*
D13*
X97536000Y-135636000D03*
X110236000Y-128016000D03*
X100076000Y-135636000D03*
X107696000Y-128016000D03*
X102616000Y-135636000D03*
X105156000Y-128016000D03*
X105156000Y-135636000D03*
X102616000Y-128016000D03*
X107696000Y-135636000D03*
X100076000Y-128016000D03*
X110236000Y-135636000D03*
X97536000Y-128016000D03*
X112776000Y-135636000D03*
D12*
X34544000Y-104394000D03*
D13*
X29464000Y-112014000D03*
X32004000Y-104394000D03*
X32004000Y-112014000D03*
X29464000Y-104394000D03*
X34544000Y-112014000D03*
D12*
X89408000Y-100584000D03*
D13*
X97028000Y-92964000D03*
X91948000Y-100584000D03*
X94488000Y-92964000D03*
X94488000Y-100584000D03*
X91948000Y-92964000D03*
X97028000Y-100584000D03*
X89408000Y-92964000D03*
D12*
X65024000Y-83820000D03*
D13*
X70104000Y-76200000D03*
X67564000Y-83820000D03*
X67564000Y-76200000D03*
X70104000Y-83820000D03*
X65024000Y-76200000D03*
D12*
X104140000Y-100584000D03*
D13*
X111760000Y-92964000D03*
X106680000Y-100584000D03*
X109220000Y-92964000D03*
X109220000Y-100584000D03*
X106680000Y-92964000D03*
X111760000Y-100584000D03*
X104140000Y-92964000D03*
D12*
X74168000Y-83820000D03*
D13*
X79248000Y-76200000D03*
X76708000Y-83820000D03*
X76708000Y-76200000D03*
X79248000Y-83820000D03*
X74168000Y-76200000D03*
D12*
X118872000Y-100584000D03*
D13*
X126492000Y-92964000D03*
X121412000Y-100584000D03*
X123952000Y-92964000D03*
X123952000Y-100584000D03*
X121412000Y-92964000D03*
X126492000Y-100584000D03*
X118872000Y-92964000D03*
D12*
X91440000Y-83820000D03*
D13*
X96520000Y-76200000D03*
X93980000Y-83820000D03*
X93980000Y-76200000D03*
X96520000Y-83820000D03*
X91440000Y-76200000D03*
D12*
X100584000Y-83820000D03*
D13*
X105664000Y-76200000D03*
X103124000Y-83820000D03*
X103124000Y-76200000D03*
X105664000Y-83820000D03*
X100584000Y-76200000D03*
D12*
X134112000Y-110236000D03*
D13*
X141732000Y-117856000D03*
X134112000Y-112776000D03*
X141732000Y-115316000D03*
X134112000Y-115316000D03*
X141732000Y-112776000D03*
X134112000Y-117856000D03*
X141732000Y-110236000D03*
D12*
X109728000Y-83820000D03*
D13*
X114808000Y-76200000D03*
X112268000Y-83820000D03*
X112268000Y-76200000D03*
X114808000Y-83820000D03*
X109728000Y-76200000D03*
D12*
X134112000Y-124968000D03*
D13*
X141732000Y-132588000D03*
X134112000Y-127508000D03*
X141732000Y-130048000D03*
X134112000Y-130048000D03*
X141732000Y-127508000D03*
X134112000Y-132588000D03*
X141732000Y-124968000D03*
D12*
X120904000Y-83820000D03*
D13*
X125984000Y-76200000D03*
X123444000Y-83820000D03*
X123444000Y-76200000D03*
X125984000Y-83820000D03*
X120904000Y-76200000D03*
D12*
X134112000Y-139700000D03*
D13*
X141732000Y-147320000D03*
X134112000Y-142240000D03*
X141732000Y-144780000D03*
X134112000Y-144780000D03*
X141732000Y-142240000D03*
X134112000Y-147320000D03*
X141732000Y-139700000D03*
D12*
X132080000Y-83820000D03*
D13*
X137160000Y-76200000D03*
X134620000Y-83820000D03*
X134620000Y-76200000D03*
X137160000Y-83820000D03*
X132080000Y-76200000D03*
D12*
X134112000Y-154432000D03*
D13*
X141732000Y-162052000D03*
X134112000Y-156972000D03*
X141732000Y-159512000D03*
X134112000Y-159512000D03*
X141732000Y-156972000D03*
X134112000Y-162052000D03*
X141732000Y-154432000D03*
D12*
X143256000Y-83820000D03*
D13*
X148336000Y-76200000D03*
X145796000Y-83820000D03*
X145796000Y-76200000D03*
X148336000Y-83820000D03*
X143256000Y-76200000D03*
D27*
X88392000Y-108712000D03*
X93292000Y-108712000D03*
D28*
X35560000Y-84074000D03*
X30480000Y-78994000D03*
X30480000Y-84074000D03*
D17*
X35560000Y-78994000D03*
D18*
X27360000Y-146558000D03*
X22860000Y-146558000D03*
X27360000Y-140058000D03*
X22860000Y-140058000D03*
X37012000Y-146558000D03*
X32512000Y-146558000D03*
X37012000Y-140058000D03*
X32512000Y-140058000D03*
X46664000Y-146558000D03*
X42164000Y-146558000D03*
X46664000Y-140058000D03*
X42164000Y-140058000D03*
X56316000Y-146558000D03*
X51816000Y-146558000D03*
X56316000Y-140058000D03*
X51816000Y-140058000D03*
X37012000Y-160274000D03*
X32512000Y-160274000D03*
X37012000Y-153774000D03*
X32512000Y-153774000D03*
X46664000Y-160274000D03*
X42164000Y-160274000D03*
X46664000Y-153774000D03*
X42164000Y-153774000D03*
D25*
X99750000Y-118936000D03*
D26*
X99750000Y-116396000D03*
X102290000Y-118936000D03*
X102290000Y-116396000D03*
X104830000Y-118936000D03*
X104830000Y-116396000D03*
X107370000Y-118936000D03*
X107370000Y-116396000D03*
X109910000Y-118936000D03*
X109910000Y-116396000D03*
X112450000Y-118936000D03*
X112450000Y-116396000D03*
D15*
X119500000Y-117686000D03*
D29*
X20320000Y-20320000D03*
X153670000Y-20320000D03*
X153670000Y-161290000D03*
X20320000Y-161290000D03*
X85344000Y-80264000D03*
M02*
