%TF.GenerationSoftware,KiCad,Pcbnew,4.0.7*%
%TF.CreationDate,2018-08-12T17:37:47+01:00*%
%TF.ProjectId,dmx-eth-dimmer,646D782D6574682D64696D6D65722E6B,rev?*%
%TF.FileFunction,Copper,L1,Top,Signal*%
%FSLAX46Y46*%
G04 Gerber Fmt 4.6, Leading zero omitted, Abs format (unit mm)*
G04 Created by KiCad (PCBNEW 4.0.7) date 08/12/18 17:37:47*
%MOMM*%
%LPD*%
G01*
G04 APERTURE LIST*
%ADD10C,0.150000*%
%ADD11C,0.100000*%
%ADD12R,1.600000X1.600000*%
%ADD13O,1.600000X1.600000*%
%ADD14C,1.600000*%
%ADD15C,1.524000*%
%ADD16R,2.000000X2.000000*%
%ADD17C,2.000000*%
%ADD18R,1.800000X1.800000*%
%ADD19C,1.800000*%
%ADD20O,1.800000X1.800000*%
%ADD21C,2.350000*%
%ADD22R,3.000000X3.000000*%
%ADD23C,3.000000*%
%ADD24R,1.700000X1.700000*%
%ADD25O,1.700000X1.700000*%
%ADD26C,2.300000*%
%ADD27O,2.000000X2.000000*%
%ADD28C,0.600000*%
%ADD29C,0.500000*%
%ADD30C,1.000000*%
%ADD31C,2.000000*%
%ADD32C,4.000000*%
%ADD33C,0.300000*%
G04 APERTURE END LIST*
D10*
D11*
X93980000Y-168910000D02*
X17780000Y-168910000D01*
X97790000Y-143510000D02*
X97790000Y-165100000D01*
X113030000Y-142240000D02*
X99060000Y-142240000D01*
X114300000Y-165100000D02*
X114300000Y-143510000D01*
X156210000Y-168910000D02*
X118110000Y-168910000D01*
X114300000Y-143510000D02*
G75*
G03X113030000Y-142240000I-1270000J0D01*
G01*
X99060000Y-142240000D02*
G75*
G03X97790000Y-143510000I0J-1270000D01*
G01*
X114300000Y-165100000D02*
G75*
G03X118110000Y-168910000I3810000J0D01*
G01*
X93980000Y-168910000D02*
G75*
G03X97790000Y-165100000I0J3810000D01*
G01*
X161290000Y-17780000D02*
X161290000Y-163830000D01*
X17780000Y-12700000D02*
X156210000Y-12700000D01*
X12700000Y-163830000D02*
X12700000Y-17780000D01*
X156210000Y-168910000D02*
G75*
G03X161290000Y-163830000I0J5080000D01*
G01*
X161290000Y-17780000D02*
G75*
G03X156210000Y-12700000I-5080000J0D01*
G01*
X12700000Y-163830000D02*
G75*
G03X17780000Y-168910000I5080000J0D01*
G01*
X17780000Y-12700000D02*
G75*
G03X12700000Y-17780000I0J-5080000D01*
G01*
D12*
X134112000Y-95504000D03*
D13*
X141732000Y-103124000D03*
X134112000Y-98044000D03*
X141732000Y-100584000D03*
X134112000Y-100584000D03*
X141732000Y-98044000D03*
X134112000Y-103124000D03*
X141732000Y-95504000D03*
D14*
X137668000Y-70612000D03*
D13*
X127508000Y-70612000D03*
D15*
X43688000Y-109474000D03*
X58928000Y-109474000D03*
X53848000Y-80264000D03*
X48768000Y-80264000D03*
D14*
X98044000Y-110236000D03*
X100544000Y-110236000D03*
X98044000Y-107188000D03*
X100544000Y-107188000D03*
D16*
X24384000Y-121158000D03*
D17*
X24384000Y-116158000D03*
D14*
X76708000Y-115570000D03*
X76708000Y-113070000D03*
X86360000Y-95504000D03*
X86360000Y-98004000D03*
X101092000Y-95504000D03*
X101092000Y-98004000D03*
X115824000Y-95504000D03*
X115824000Y-98004000D03*
X139192000Y-92456000D03*
X136692000Y-92456000D03*
X139192000Y-107188000D03*
X136692000Y-107188000D03*
X139192000Y-121920000D03*
X136692000Y-121920000D03*
X139192000Y-136652000D03*
X136692000Y-136652000D03*
X139192000Y-151384000D03*
X136692000Y-151384000D03*
D18*
X85852000Y-133858000D03*
D19*
X85852000Y-131318000D03*
D18*
X85852000Y-126238000D03*
D19*
X85852000Y-123698000D03*
D18*
X36576000Y-66040000D03*
D20*
X39116000Y-66040000D03*
X41656000Y-66040000D03*
D18*
X50292000Y-66040000D03*
D20*
X52832000Y-66040000D03*
X55372000Y-66040000D03*
D18*
X64008000Y-66040000D03*
D20*
X66548000Y-66040000D03*
X69088000Y-66040000D03*
D18*
X77724000Y-66040000D03*
D20*
X80264000Y-66040000D03*
X82804000Y-66040000D03*
D18*
X91440000Y-66040000D03*
D20*
X93980000Y-66040000D03*
X96520000Y-66040000D03*
D18*
X105156000Y-66040000D03*
D20*
X107696000Y-66040000D03*
X110236000Y-66040000D03*
D18*
X118872000Y-66040000D03*
D20*
X121412000Y-66040000D03*
X123952000Y-66040000D03*
D18*
X132588000Y-66040000D03*
D20*
X135128000Y-66040000D03*
X137668000Y-66040000D03*
D21*
X22860000Y-85838000D03*
X22860000Y-80838000D03*
X22860000Y-95838000D03*
X22860000Y-100838000D03*
X39116000Y-48020000D03*
X39116000Y-53020000D03*
X39116000Y-38020000D03*
X39116000Y-33020000D03*
X52832000Y-48020000D03*
X52832000Y-53020000D03*
X52832000Y-38020000D03*
X52832000Y-33020000D03*
X66548000Y-48020000D03*
X66548000Y-53020000D03*
X66548000Y-38020000D03*
X66548000Y-33020000D03*
X80264000Y-48020000D03*
X80264000Y-53020000D03*
X80264000Y-38020000D03*
X80264000Y-33020000D03*
X93980000Y-48020000D03*
X93980000Y-53020000D03*
X93980000Y-38020000D03*
X93980000Y-33020000D03*
X107696000Y-48020000D03*
X107696000Y-53020000D03*
X107696000Y-38020000D03*
X107696000Y-33020000D03*
X121412000Y-48020000D03*
X121412000Y-53020000D03*
X121412000Y-38020000D03*
X121412000Y-33020000D03*
X135128000Y-48020000D03*
X135128000Y-53020000D03*
X135128000Y-38020000D03*
X135128000Y-33020000D03*
D22*
X22860000Y-46228000D03*
D23*
X22860000Y-41148000D03*
D24*
X80264000Y-146050000D03*
D25*
X77724000Y-146050000D03*
X75184000Y-146050000D03*
X72644000Y-146050000D03*
X70104000Y-146050000D03*
X67564000Y-146050000D03*
D24*
X106172000Y-108204000D03*
D25*
X108712000Y-108204000D03*
X111252000Y-108204000D03*
X113792000Y-108204000D03*
X116332000Y-108204000D03*
X118872000Y-108204000D03*
D22*
X36576000Y-24384000D03*
D23*
X41656000Y-24384000D03*
D24*
X127000000Y-122428000D03*
D25*
X127000000Y-119888000D03*
X127000000Y-117348000D03*
X127000000Y-114808000D03*
X127000000Y-112268000D03*
X127000000Y-109728000D03*
D22*
X50292000Y-24384000D03*
D23*
X55372000Y-24384000D03*
D24*
X127000000Y-142748000D03*
D25*
X127000000Y-140208000D03*
X127000000Y-137668000D03*
X127000000Y-135128000D03*
X127000000Y-132588000D03*
X127000000Y-130048000D03*
D22*
X64008000Y-24384000D03*
D23*
X69088000Y-24384000D03*
D24*
X148336000Y-102108000D03*
D25*
X148336000Y-99568000D03*
X148336000Y-97028000D03*
X148336000Y-94488000D03*
X148336000Y-91948000D03*
X148336000Y-89408000D03*
D22*
X77724000Y-24384000D03*
D23*
X82804000Y-24384000D03*
D24*
X148336000Y-119888000D03*
D25*
X148336000Y-117348000D03*
X148336000Y-114808000D03*
X148336000Y-112268000D03*
X148336000Y-109728000D03*
X148336000Y-107188000D03*
D22*
X91440000Y-24384000D03*
D23*
X96520000Y-24384000D03*
D24*
X148336000Y-137668000D03*
D25*
X148336000Y-135128000D03*
X148336000Y-132588000D03*
X148336000Y-130048000D03*
X148336000Y-127508000D03*
X148336000Y-124968000D03*
D22*
X105156000Y-24384000D03*
D23*
X110236000Y-24384000D03*
D24*
X148336000Y-155448000D03*
D25*
X148336000Y-152908000D03*
X148336000Y-150368000D03*
X148336000Y-147828000D03*
X148336000Y-145288000D03*
X148336000Y-142748000D03*
D22*
X118872000Y-24384000D03*
D23*
X123952000Y-24384000D03*
D24*
X127000000Y-163068000D03*
D25*
X127000000Y-160528000D03*
X127000000Y-157988000D03*
X127000000Y-155448000D03*
X127000000Y-152908000D03*
X127000000Y-150368000D03*
D22*
X132588000Y-24384000D03*
D23*
X137668000Y-24384000D03*
D14*
X67056000Y-150114000D03*
D13*
X67056000Y-160274000D03*
D14*
X70612000Y-150114000D03*
D13*
X70612000Y-160274000D03*
D14*
X74168000Y-150114000D03*
D13*
X74168000Y-160274000D03*
D14*
X88392000Y-150876000D03*
D13*
X88392000Y-140716000D03*
D14*
X84836000Y-150876000D03*
D13*
X84836000Y-140716000D03*
D14*
X91948000Y-150876000D03*
D13*
X91948000Y-140716000D03*
D14*
X84328000Y-153924000D03*
D13*
X94488000Y-153924000D03*
D14*
X77724000Y-150114000D03*
D13*
X77724000Y-160274000D03*
D14*
X63500000Y-150114000D03*
D13*
X63500000Y-160274000D03*
D14*
X59944000Y-150114000D03*
D13*
X59944000Y-160274000D03*
D14*
X42164000Y-116078000D03*
D13*
X32004000Y-116078000D03*
D14*
X94488000Y-88646000D03*
D13*
X84328000Y-88646000D03*
D14*
X41656000Y-70612000D03*
D13*
X31496000Y-70612000D03*
D14*
X109220000Y-88646000D03*
D13*
X99060000Y-88646000D03*
D14*
X55372000Y-70612000D03*
D13*
X45212000Y-70612000D03*
D14*
X123952000Y-88646000D03*
D13*
X113792000Y-88646000D03*
D14*
X69088000Y-70612000D03*
D13*
X58928000Y-70612000D03*
D14*
X140843000Y-88646000D03*
D13*
X130683000Y-88646000D03*
D14*
X82804000Y-70612000D03*
D13*
X72644000Y-70612000D03*
D14*
X130048000Y-103124000D03*
D13*
X130048000Y-92964000D03*
D14*
X96520000Y-70612000D03*
D13*
X86360000Y-70612000D03*
D14*
X130175000Y-125476000D03*
D13*
X130175000Y-115316000D03*
D14*
X110236000Y-70612000D03*
D13*
X100076000Y-70612000D03*
D14*
X130175000Y-142748000D03*
D13*
X130175000Y-132588000D03*
D14*
X123952000Y-70612000D03*
D13*
X113792000Y-70612000D03*
D14*
X144907000Y-157480000D03*
D13*
X144907000Y-147320000D03*
D14*
X35052000Y-89154000D03*
D13*
X35052000Y-99314000D03*
D14*
X31750000Y-99314000D03*
D13*
X31750000Y-89154000D03*
D14*
X81280000Y-150114000D03*
D13*
X81280000Y-160274000D03*
D12*
X49784000Y-125730000D03*
D13*
X32004000Y-133350000D03*
X47244000Y-125730000D03*
X34544000Y-133350000D03*
X44704000Y-125730000D03*
X37084000Y-133350000D03*
X42164000Y-125730000D03*
X39624000Y-133350000D03*
X39624000Y-125730000D03*
X42164000Y-133350000D03*
X37084000Y-125730000D03*
X44704000Y-133350000D03*
X34544000Y-125730000D03*
X47244000Y-133350000D03*
X32004000Y-125730000D03*
X49784000Y-133350000D03*
D12*
X81788000Y-140970000D03*
D13*
X66548000Y-92710000D03*
X81788000Y-138430000D03*
X66548000Y-95250000D03*
X81788000Y-135890000D03*
X66548000Y-97790000D03*
X81788000Y-133350000D03*
X66548000Y-100330000D03*
X81788000Y-130810000D03*
X66548000Y-102870000D03*
X81788000Y-128270000D03*
X66548000Y-105410000D03*
X81788000Y-125730000D03*
X66548000Y-107950000D03*
X81788000Y-123190000D03*
X66548000Y-110490000D03*
X81788000Y-120650000D03*
X66548000Y-113030000D03*
X81788000Y-118110000D03*
X66548000Y-115570000D03*
X81788000Y-115570000D03*
X66548000Y-118110000D03*
X81788000Y-113030000D03*
X66548000Y-120650000D03*
X81788000Y-110490000D03*
X66548000Y-123190000D03*
X81788000Y-107950000D03*
X66548000Y-125730000D03*
X81788000Y-105410000D03*
X66548000Y-128270000D03*
X81788000Y-102870000D03*
X66548000Y-130810000D03*
X81788000Y-100330000D03*
X66548000Y-133350000D03*
X81788000Y-97790000D03*
X66548000Y-135890000D03*
X81788000Y-95250000D03*
X66548000Y-138430000D03*
X81788000Y-92710000D03*
X66548000Y-140970000D03*
D12*
X112776000Y-128016000D03*
D13*
X97536000Y-135636000D03*
X110236000Y-128016000D03*
X100076000Y-135636000D03*
X107696000Y-128016000D03*
X102616000Y-135636000D03*
X105156000Y-128016000D03*
X105156000Y-135636000D03*
X102616000Y-128016000D03*
X107696000Y-135636000D03*
X100076000Y-128016000D03*
X110236000Y-135636000D03*
X97536000Y-128016000D03*
X112776000Y-135636000D03*
D12*
X34544000Y-104394000D03*
D13*
X29464000Y-112014000D03*
X32004000Y-104394000D03*
X32004000Y-112014000D03*
X29464000Y-104394000D03*
X34544000Y-112014000D03*
D12*
X89408000Y-100584000D03*
D13*
X97028000Y-92964000D03*
X91948000Y-100584000D03*
X94488000Y-92964000D03*
X94488000Y-100584000D03*
X91948000Y-92964000D03*
X97028000Y-100584000D03*
X89408000Y-92964000D03*
D12*
X65024000Y-83820000D03*
D13*
X70104000Y-76200000D03*
X67564000Y-83820000D03*
X67564000Y-76200000D03*
X70104000Y-83820000D03*
X65024000Y-76200000D03*
D12*
X104140000Y-100584000D03*
D13*
X111760000Y-92964000D03*
X106680000Y-100584000D03*
X109220000Y-92964000D03*
X109220000Y-100584000D03*
X106680000Y-92964000D03*
X111760000Y-100584000D03*
X104140000Y-92964000D03*
D12*
X74168000Y-83820000D03*
D13*
X79248000Y-76200000D03*
X76708000Y-83820000D03*
X76708000Y-76200000D03*
X79248000Y-83820000D03*
X74168000Y-76200000D03*
D12*
X118872000Y-100584000D03*
D13*
X126492000Y-92964000D03*
X121412000Y-100584000D03*
X123952000Y-92964000D03*
X123952000Y-100584000D03*
X121412000Y-92964000D03*
X126492000Y-100584000D03*
X118872000Y-92964000D03*
D12*
X91440000Y-83820000D03*
D13*
X96520000Y-76200000D03*
X93980000Y-83820000D03*
X93980000Y-76200000D03*
X96520000Y-83820000D03*
X91440000Y-76200000D03*
D12*
X100584000Y-83820000D03*
D13*
X105664000Y-76200000D03*
X103124000Y-83820000D03*
X103124000Y-76200000D03*
X105664000Y-83820000D03*
X100584000Y-76200000D03*
D12*
X134112000Y-110236000D03*
D13*
X141732000Y-117856000D03*
X134112000Y-112776000D03*
X141732000Y-115316000D03*
X134112000Y-115316000D03*
X141732000Y-112776000D03*
X134112000Y-117856000D03*
X141732000Y-110236000D03*
D12*
X109728000Y-83820000D03*
D13*
X114808000Y-76200000D03*
X112268000Y-83820000D03*
X112268000Y-76200000D03*
X114808000Y-83820000D03*
X109728000Y-76200000D03*
D12*
X134112000Y-124968000D03*
D13*
X141732000Y-132588000D03*
X134112000Y-127508000D03*
X141732000Y-130048000D03*
X134112000Y-130048000D03*
X141732000Y-127508000D03*
X134112000Y-132588000D03*
X141732000Y-124968000D03*
D12*
X120904000Y-83820000D03*
D13*
X125984000Y-76200000D03*
X123444000Y-83820000D03*
X123444000Y-76200000D03*
X125984000Y-83820000D03*
X120904000Y-76200000D03*
D12*
X134112000Y-139700000D03*
D13*
X141732000Y-147320000D03*
X134112000Y-142240000D03*
X141732000Y-144780000D03*
X134112000Y-144780000D03*
X141732000Y-142240000D03*
X134112000Y-147320000D03*
X141732000Y-139700000D03*
D12*
X132080000Y-83820000D03*
D13*
X137160000Y-76200000D03*
X134620000Y-83820000D03*
X134620000Y-76200000D03*
X137160000Y-83820000D03*
X132080000Y-76200000D03*
D12*
X134112000Y-154432000D03*
D13*
X141732000Y-162052000D03*
X134112000Y-156972000D03*
X141732000Y-159512000D03*
X134112000Y-159512000D03*
X141732000Y-156972000D03*
X134112000Y-162052000D03*
X141732000Y-154432000D03*
D12*
X143256000Y-83820000D03*
D13*
X148336000Y-76200000D03*
X145796000Y-83820000D03*
X145796000Y-76200000D03*
X148336000Y-83820000D03*
X143256000Y-76200000D03*
D26*
X88392000Y-108712000D03*
X93292000Y-108712000D03*
D27*
X35560000Y-84074000D03*
X30480000Y-78994000D03*
X30480000Y-84074000D03*
D16*
X35560000Y-78994000D03*
D17*
X27360000Y-146558000D03*
X22860000Y-146558000D03*
X27360000Y-140058000D03*
X22860000Y-140058000D03*
X37012000Y-146558000D03*
X32512000Y-146558000D03*
X37012000Y-140058000D03*
X32512000Y-140058000D03*
X46664000Y-146558000D03*
X42164000Y-146558000D03*
X46664000Y-140058000D03*
X42164000Y-140058000D03*
X56316000Y-146558000D03*
X51816000Y-146558000D03*
X56316000Y-140058000D03*
X51816000Y-140058000D03*
X37012000Y-160274000D03*
X32512000Y-160274000D03*
X37012000Y-153774000D03*
X32512000Y-153774000D03*
X46664000Y-160274000D03*
X42164000Y-160274000D03*
X46664000Y-153774000D03*
X42164000Y-153774000D03*
D24*
X99750000Y-118936000D03*
D25*
X99750000Y-116396000D03*
X102290000Y-118936000D03*
X102290000Y-116396000D03*
X104830000Y-118936000D03*
X104830000Y-116396000D03*
X107370000Y-118936000D03*
X107370000Y-116396000D03*
X109910000Y-118936000D03*
X109910000Y-116396000D03*
X112450000Y-118936000D03*
X112450000Y-116396000D03*
D28*
X130175000Y-149479000D03*
X130175000Y-157988000D03*
X146050000Y-110236000D03*
X146050000Y-114808000D03*
X117348000Y-122936000D03*
X139192000Y-139700000D03*
X139192000Y-95504000D03*
X118872000Y-95504000D03*
X139192000Y-85852000D03*
X89408000Y-95504000D03*
X86360000Y-85852000D03*
X123444000Y-85852000D03*
X61976000Y-118110000D03*
X131191000Y-160528000D03*
X131191000Y-151384000D03*
X146050000Y-120650000D03*
X146050000Y-117348000D03*
X136652000Y-104521000D03*
X136652000Y-119888000D03*
X136652000Y-139700000D03*
X136652000Y-95504000D03*
X120142000Y-95504000D03*
X118872000Y-98044000D03*
X104140000Y-112014000D03*
X104140000Y-98044000D03*
X73660000Y-112268000D03*
X74676000Y-112268000D03*
X97028000Y-105410000D03*
X113792000Y-104775000D03*
X93218000Y-104775000D03*
X94488000Y-99187000D03*
X98298000Y-99187000D03*
X98298000Y-103505000D03*
X116332000Y-103505000D03*
X121920000Y-122174000D03*
X106680000Y-91059000D03*
X107950000Y-105410000D03*
X125222000Y-105410000D03*
X124587000Y-112268000D03*
X124587000Y-102235000D03*
X110490000Y-102235000D03*
X123317000Y-102870000D03*
X126492000Y-102870000D03*
X123190000Y-135128000D03*
X121412000Y-90424000D03*
X123825000Y-132588000D03*
X143002000Y-92075000D03*
X72644000Y-107950000D03*
X143764000Y-115316000D03*
X143764000Y-111252000D03*
X131445000Y-114046000D03*
X140081000Y-134747000D03*
X142240000Y-137668000D03*
X83947000Y-129540000D03*
X80391000Y-125095000D03*
X139954000Y-126238000D03*
X79248000Y-125095000D03*
X83947000Y-132588000D03*
X83947000Y-136271000D03*
X78105000Y-125095000D03*
X50292000Y-149352000D03*
X49530000Y-148590000D03*
X124714000Y-98806000D03*
X132080000Y-144780000D03*
X132080000Y-130048000D03*
X132080000Y-100584000D03*
X132080000Y-115316000D03*
X123952000Y-104140000D03*
X109220000Y-104140000D03*
X94488000Y-104140000D03*
X78740000Y-104140000D03*
X60325000Y-114300000D03*
X65024000Y-88646000D03*
X74168000Y-87249000D03*
X91440000Y-86614000D03*
X100584000Y-86614000D03*
X111252000Y-88011000D03*
X117094000Y-89662000D03*
X117094000Y-92964000D03*
X128905000Y-85090000D03*
X140462000Y-91313000D03*
X95758000Y-103505000D03*
X85090000Y-103505000D03*
X132715000Y-142240000D03*
X132715000Y-98044000D03*
X132715000Y-112776000D03*
X122047000Y-98044000D03*
X121412000Y-102870000D03*
X91948000Y-102870000D03*
X51054000Y-144526000D03*
X49530000Y-141732000D03*
D29*
X67564000Y-85852000D02*
X65786000Y-85852000D01*
X63754000Y-104648000D02*
X58928000Y-109474000D01*
X63754000Y-87884000D02*
X63754000Y-104648000D01*
X65786000Y-85852000D02*
X63754000Y-87884000D01*
X93980000Y-83820000D02*
X93980000Y-85852000D01*
X103124000Y-83820000D02*
X103124000Y-85852000D01*
X76708000Y-83820000D02*
X76708000Y-85852000D01*
X145796000Y-83820000D02*
X143764000Y-85852000D01*
X143764000Y-85852000D02*
X139192000Y-85852000D01*
X134620000Y-83820000D02*
X134620000Y-85852000D01*
X112268000Y-83820000D02*
X112268000Y-85852000D01*
X67564000Y-83820000D02*
X67564000Y-85852000D01*
X104140000Y-92964000D02*
X104140000Y-95504000D01*
X127000000Y-157988000D02*
X130175000Y-157988000D01*
X137287000Y-149479000D02*
X139192000Y-151384000D01*
X130175000Y-149479000D02*
X137287000Y-149479000D01*
X148336000Y-150368000D02*
X140208000Y-150368000D01*
X140208000Y-150368000D02*
X139192000Y-151384000D01*
X139192000Y-136652000D02*
X137922000Y-135382000D01*
X129286000Y-135382000D02*
X127000000Y-137668000D01*
X137922000Y-135382000D02*
X129286000Y-135382000D01*
X148336000Y-132588000D02*
X144018000Y-132588000D01*
X144018000Y-132588000D02*
X139954000Y-136652000D01*
X139954000Y-136652000D02*
X139192000Y-136652000D01*
X148336000Y-114808000D02*
X146050000Y-114808000D01*
X146050000Y-110236000D02*
X141732000Y-110236000D01*
X141732000Y-95504000D02*
X146812000Y-95504000D01*
X146812000Y-95504000D02*
X148336000Y-97028000D01*
X127000000Y-117348000D02*
X125476000Y-117348000D01*
X119888000Y-122936000D02*
X117348000Y-122936000D01*
X125476000Y-117348000D02*
X119888000Y-122936000D01*
X141732000Y-139700000D02*
X139192000Y-139700000D01*
X141732000Y-95504000D02*
X139192000Y-95504000D01*
X115824000Y-95504000D02*
X118872000Y-95504000D01*
X101092000Y-95504000D02*
X104140000Y-95504000D01*
X104140000Y-95504000D02*
X115824000Y-95504000D01*
X86360000Y-95504000D02*
X89408000Y-95504000D01*
X89408000Y-95504000D02*
X101092000Y-95504000D01*
X139192000Y-85852000D02*
X134620000Y-85852000D01*
X134620000Y-85852000D02*
X123444000Y-85852000D01*
X123444000Y-85852000D02*
X112268000Y-85852000D01*
X112268000Y-85852000D02*
X103124000Y-85852000D01*
X103124000Y-85852000D02*
X93980000Y-85852000D01*
X93980000Y-85852000D02*
X86360000Y-85852000D01*
X86360000Y-85852000D02*
X76708000Y-85852000D01*
X76708000Y-85852000D02*
X67564000Y-85852000D01*
D30*
X32512000Y-160274000D02*
X32512000Y-159154000D01*
X32512000Y-159154000D02*
X35202000Y-156464000D01*
X22860000Y-140058000D02*
X22860000Y-146558000D01*
X22860000Y-146558000D02*
X30076000Y-153774000D01*
X30076000Y-153774000D02*
X32512000Y-153774000D01*
X22860000Y-140058000D02*
X22860000Y-137414000D01*
X22860000Y-137414000D02*
X29464000Y-130810000D01*
X84328000Y-153924000D02*
X57912000Y-153924000D01*
X57912000Y-153924000D02*
X55372000Y-156464000D01*
X55372000Y-156464000D02*
X35202000Y-156464000D01*
X35202000Y-156464000D02*
X32512000Y-153774000D01*
X84328000Y-153924000D02*
X84836000Y-153416000D01*
X84836000Y-153416000D02*
X84836000Y-150876000D01*
X29464000Y-119126000D02*
X60960000Y-119126000D01*
X60960000Y-119126000D02*
X61976000Y-118110000D01*
X24384000Y-116158000D02*
X29464000Y-116158000D01*
X29464000Y-116158000D02*
X29464000Y-116078000D01*
X29464000Y-119126000D02*
X29464000Y-130810000D01*
X29464000Y-130810000D02*
X32004000Y-133350000D01*
X29464000Y-119126000D02*
X29464000Y-116078000D01*
X29464000Y-116078000D02*
X29464000Y-112014000D01*
D29*
X148336000Y-99568000D02*
X149352000Y-99568000D01*
X148717000Y-104521000D02*
X136652000Y-104521000D01*
X149860000Y-103378000D02*
X148717000Y-104521000D01*
X149860000Y-100076000D02*
X149860000Y-103378000D01*
X149352000Y-99568000D02*
X149860000Y-100076000D01*
X89408000Y-100584000D02*
X89408000Y-98004000D01*
X136692000Y-151384000D02*
X131191000Y-151384000D01*
X131191000Y-160528000D02*
X127000000Y-160528000D01*
X148336000Y-152908000D02*
X138216000Y-152908000D01*
X138216000Y-152908000D02*
X136692000Y-151384000D01*
X127000000Y-140208000D02*
X127508000Y-139700000D01*
X127508000Y-139700000D02*
X134112000Y-139700000D01*
X148336000Y-135128000D02*
X142875000Y-135128000D01*
X138089000Y-138049000D02*
X136692000Y-136652000D01*
X139954000Y-138049000D02*
X138089000Y-138049000D01*
X142875000Y-135128000D02*
X139954000Y-138049000D01*
X148336000Y-117348000D02*
X146050000Y-117348000D01*
X141097000Y-119888000D02*
X136652000Y-119888000D01*
X141859000Y-120650000D02*
X141097000Y-119888000D01*
X146050000Y-120650000D02*
X141859000Y-120650000D01*
X127000000Y-119888000D02*
X136652000Y-119888000D01*
X134112000Y-139700000D02*
X136652000Y-139700000D01*
X134112000Y-95504000D02*
X136652000Y-95504000D01*
X134112000Y-95504000D02*
X120142000Y-95504000D01*
X118832000Y-98004000D02*
X115824000Y-98004000D01*
X118872000Y-98044000D02*
X118832000Y-98004000D01*
X104140000Y-112014000D02*
X108712000Y-112014000D01*
X112450000Y-118936000D02*
X114300000Y-117086000D01*
X114300000Y-117086000D02*
X114300000Y-115824000D01*
X114300000Y-115824000D02*
X113030000Y-114554000D01*
X113030000Y-114554000D02*
X111252000Y-114554000D01*
X111252000Y-114554000D02*
X108712000Y-112014000D01*
X108712000Y-112014000D02*
X108712000Y-108204000D01*
X104140000Y-98044000D02*
X104140000Y-98004000D01*
X104140000Y-98004000D02*
X104140000Y-98044000D01*
X104140000Y-98044000D02*
X104140000Y-98004000D01*
X101092000Y-98004000D02*
X104140000Y-98004000D01*
X104140000Y-98004000D02*
X115824000Y-98004000D01*
X86360000Y-98004000D02*
X89408000Y-98004000D01*
X89408000Y-98004000D02*
X101092000Y-98004000D01*
D30*
X91948000Y-150876000D02*
X88392000Y-150876000D01*
X88392000Y-150876000D02*
X84328000Y-146812000D01*
X84328000Y-146812000D02*
X84328000Y-144780000D01*
X84328000Y-144780000D02*
X82804000Y-143256000D01*
X82804000Y-143256000D02*
X79248000Y-143256000D01*
X79248000Y-143256000D02*
X77724000Y-144780000D01*
X77724000Y-144780000D02*
X77724000Y-146050000D01*
D31*
X36576000Y-66040000D02*
X34544000Y-64008000D01*
X34544000Y-26416000D02*
X36576000Y-24384000D01*
X34544000Y-64008000D02*
X34544000Y-26416000D01*
D29*
X70104000Y-76200000D02*
X68326000Y-74422000D01*
X43434000Y-67818000D02*
X41656000Y-66040000D01*
X43434000Y-72136000D02*
X43434000Y-67818000D01*
X45720000Y-74422000D02*
X43434000Y-72136000D01*
X68326000Y-74422000D02*
X45720000Y-74422000D01*
D31*
X50292000Y-66040000D02*
X48260000Y-64008000D01*
X48260000Y-26416000D02*
X50292000Y-24384000D01*
X48260000Y-64008000D02*
X48260000Y-26416000D01*
D29*
X79248000Y-76200000D02*
X77470000Y-74422000D01*
X77470000Y-74422000D02*
X70104000Y-74422000D01*
X70104000Y-74422000D02*
X69342000Y-73660000D01*
X69342000Y-73660000D02*
X58674000Y-73660000D01*
X58674000Y-73660000D02*
X57150000Y-72136000D01*
X57150000Y-72136000D02*
X57150000Y-67818000D01*
X57150000Y-67818000D02*
X55372000Y-66040000D01*
D31*
X64008000Y-66040000D02*
X61976000Y-64008000D01*
X61976000Y-26416000D02*
X64008000Y-24384000D01*
X61976000Y-64008000D02*
X61976000Y-26416000D01*
D29*
X96520000Y-76200000D02*
X93726000Y-73406000D01*
X70866000Y-67818000D02*
X69088000Y-66040000D01*
X70866000Y-71120000D02*
X70866000Y-67818000D01*
X72136000Y-72390000D02*
X70866000Y-71120000D01*
X82550000Y-72390000D02*
X72136000Y-72390000D01*
X83566000Y-73406000D02*
X82550000Y-72390000D01*
X93726000Y-73406000D02*
X83566000Y-73406000D01*
D31*
X77724000Y-66040000D02*
X75692000Y-64008000D01*
X75692000Y-26416000D02*
X77724000Y-24384000D01*
X75692000Y-64008000D02*
X75692000Y-26416000D01*
D29*
X105664000Y-76200000D02*
X102870000Y-73406000D01*
X84582000Y-67818000D02*
X82804000Y-66040000D01*
X84582000Y-70866000D02*
X84582000Y-67818000D01*
X86106000Y-72390000D02*
X84582000Y-70866000D01*
X97028000Y-72390000D02*
X86106000Y-72390000D01*
X98044000Y-73406000D02*
X97028000Y-72390000D01*
X102870000Y-73406000D02*
X98044000Y-73406000D01*
D31*
X91440000Y-24384000D02*
X89408000Y-26416000D01*
X89408000Y-64008000D02*
X91440000Y-66040000D01*
X89408000Y-26416000D02*
X89408000Y-64008000D01*
D29*
X114808000Y-76200000D02*
X110998000Y-72390000D01*
X98298000Y-67818000D02*
X96520000Y-66040000D01*
X98298000Y-71628000D02*
X98298000Y-67818000D01*
X99060000Y-72390000D02*
X98298000Y-71628000D01*
X110998000Y-72390000D02*
X99060000Y-72390000D01*
D31*
X105156000Y-66040000D02*
X103124000Y-64008000D01*
X103124000Y-26416000D02*
X105156000Y-24384000D01*
X103124000Y-64008000D02*
X103124000Y-26416000D01*
D29*
X125984000Y-76200000D02*
X122174000Y-72390000D01*
X112014000Y-67818000D02*
X110236000Y-66040000D01*
X112014000Y-71120000D02*
X112014000Y-67818000D01*
X113284000Y-72390000D02*
X112014000Y-71120000D01*
X122174000Y-72390000D02*
X113284000Y-72390000D01*
D31*
X118872000Y-24384000D02*
X116840000Y-26416000D01*
X116840000Y-64008000D02*
X118872000Y-66040000D01*
X116840000Y-26416000D02*
X116840000Y-64008000D01*
D29*
X137160000Y-76200000D02*
X135382000Y-74422000D01*
X125730000Y-67818000D02*
X123952000Y-66040000D01*
X125730000Y-72136000D02*
X125730000Y-67818000D01*
X128016000Y-74422000D02*
X125730000Y-72136000D01*
X135382000Y-74422000D02*
X128016000Y-74422000D01*
D31*
X132588000Y-66040000D02*
X130556000Y-64008000D01*
X130556000Y-26416000D02*
X132588000Y-24384000D01*
X130556000Y-64008000D02*
X130556000Y-26416000D01*
D29*
X148336000Y-76200000D02*
X147828000Y-76200000D01*
X147828000Y-76200000D02*
X137668000Y-66040000D01*
D31*
X30480000Y-78994000D02*
X27940000Y-76454000D01*
X25908000Y-41148000D02*
X22860000Y-41148000D01*
X27940000Y-43180000D02*
X25908000Y-41148000D01*
X27940000Y-76454000D02*
X27940000Y-43180000D01*
D32*
X137668000Y-24384000D02*
X137668000Y-17780000D01*
X137668000Y-17780000D02*
X123952000Y-17780000D01*
X123952000Y-24384000D02*
X123952000Y-17780000D01*
X123952000Y-17780000D02*
X110236000Y-17780000D01*
X110236000Y-24384000D02*
X110236000Y-17780000D01*
X110236000Y-17780000D02*
X96520000Y-17780000D01*
X96520000Y-24384000D02*
X96520000Y-17780000D01*
X96520000Y-17780000D02*
X82804000Y-17780000D01*
X82804000Y-24384000D02*
X82804000Y-17780000D01*
X82804000Y-17780000D02*
X69088000Y-17780000D01*
X69088000Y-24384000D02*
X69088000Y-17780000D01*
X69088000Y-17780000D02*
X55372000Y-17780000D01*
X55372000Y-24384000D02*
X55372000Y-17780000D01*
X55372000Y-17780000D02*
X41656000Y-17780000D01*
X22860000Y-41148000D02*
X22860000Y-36576000D01*
X34544000Y-17780000D02*
X41656000Y-17780000D01*
X32004000Y-20320000D02*
X34544000Y-17780000D01*
X32004000Y-24006250D02*
X32004000Y-20320000D01*
X31043998Y-24966252D02*
X32004000Y-24006250D01*
X31043998Y-28392002D02*
X31043998Y-24966252D01*
X22860000Y-36576000D02*
X31043998Y-28392002D01*
X41656000Y-17780000D02*
X41656000Y-24384000D01*
D33*
X110236000Y-128016000D02*
X110236000Y-119262000D01*
X110236000Y-119262000D02*
X109910000Y-118936000D01*
X112776000Y-128016000D02*
X110236000Y-128016000D01*
X105156000Y-128016000D02*
X105156000Y-129032000D01*
X108966000Y-120532000D02*
X107370000Y-118936000D01*
X108966000Y-129032000D02*
X108966000Y-120532000D01*
X108458000Y-129540000D02*
X108966000Y-129032000D01*
X105664000Y-129540000D02*
X108458000Y-129540000D01*
X105156000Y-129032000D02*
X105664000Y-129540000D01*
X102616000Y-128016000D02*
X105156000Y-128016000D01*
X104830000Y-118936000D02*
X104830000Y-120214000D01*
X73660000Y-115769110D02*
X73660000Y-112268000D01*
X77270890Y-119380000D02*
X73660000Y-115769110D01*
X87122000Y-119380000D02*
X77270890Y-119380000D01*
X90162002Y-122420002D02*
X87122000Y-119380000D01*
X102623998Y-122420002D02*
X90162002Y-122420002D01*
X104830000Y-120214000D02*
X102623998Y-122420002D01*
X104830000Y-116396000D02*
X104830000Y-114990000D01*
X69088000Y-100330000D02*
X66548000Y-100330000D01*
X70604002Y-101846002D02*
X69088000Y-100330000D01*
X70604002Y-109212002D02*
X70604002Y-101846002D01*
X72136000Y-110744000D02*
X70604002Y-109212002D01*
X78486000Y-110744000D02*
X72136000Y-110744000D01*
X79502000Y-111760000D02*
X78486000Y-110744000D01*
X101600000Y-111760000D02*
X79502000Y-111760000D01*
X104830000Y-114990000D02*
X101600000Y-111760000D01*
X102290000Y-118936000D02*
X102290000Y-120324000D01*
X74676000Y-116078000D02*
X74676000Y-112268000D01*
X75692000Y-117094000D02*
X74676000Y-116078000D01*
X78232000Y-117094000D02*
X75692000Y-117094000D01*
X78486000Y-116840000D02*
X78232000Y-117094000D01*
X86868000Y-116840000D02*
X78486000Y-116840000D01*
X87884000Y-117856000D02*
X86868000Y-116840000D01*
X87884000Y-119380000D02*
X87884000Y-117856000D01*
X90424000Y-121920000D02*
X87884000Y-119380000D01*
X100694000Y-121920000D02*
X90424000Y-121920000D01*
X102290000Y-120324000D02*
X100694000Y-121920000D01*
X102290000Y-116396000D02*
X102290000Y-114482000D01*
X69088000Y-105410000D02*
X66548000Y-105410000D01*
X70104000Y-106426000D02*
X69088000Y-105410000D01*
X70104000Y-109474000D02*
X70104000Y-106426000D01*
X71882000Y-111252000D02*
X70104000Y-109474000D01*
X77978000Y-111252000D02*
X71882000Y-111252000D01*
X81026000Y-114300000D02*
X77978000Y-111252000D01*
X83566000Y-114300000D02*
X81026000Y-114300000D01*
X84836000Y-113030000D02*
X83566000Y-114300000D01*
X100838000Y-113030000D02*
X84836000Y-113030000D01*
X102290000Y-114482000D02*
X100838000Y-113030000D01*
X70104000Y-146050000D02*
X70104000Y-140462000D01*
X68072000Y-138430000D02*
X66548000Y-138430000D01*
X70104000Y-140462000D02*
X68072000Y-138430000D01*
X106172000Y-108204000D02*
X103378000Y-105410000D01*
X97028000Y-105410000D02*
X103378000Y-105410000D01*
X91948000Y-94234000D02*
X82804000Y-94234000D01*
X91948000Y-92964000D02*
X91948000Y-94234000D01*
X82804000Y-94234000D02*
X81788000Y-95250000D01*
X93218000Y-104775000D02*
X113792000Y-104775000D01*
X94488000Y-99187000D02*
X98298000Y-99187000D01*
X98298000Y-103505000D02*
X116332000Y-103505000D01*
X127000000Y-122428000D02*
X122174000Y-122428000D01*
X122174000Y-122428000D02*
X121920000Y-122174000D01*
X106680000Y-91059000D02*
X83439000Y-91059000D01*
X83439000Y-91059000D02*
X81788000Y-92710000D01*
X107950000Y-105410000D02*
X125222000Y-105410000D01*
X124587000Y-112268000D02*
X127000000Y-112268000D01*
X110490000Y-102235000D02*
X124587000Y-102235000D01*
X126492000Y-102870000D02*
X123317000Y-102870000D01*
X123190000Y-135128000D02*
X127000000Y-135128000D01*
X68834000Y-90424000D02*
X66548000Y-92710000D01*
X121412000Y-90424000D02*
X68834000Y-90424000D01*
X127000000Y-132588000D02*
X123825000Y-132588000D01*
X134112000Y-103124000D02*
X139954000Y-103124000D01*
X141224000Y-101854000D02*
X148082000Y-101854000D01*
X139954000Y-103124000D02*
X141224000Y-101854000D01*
X148082000Y-101854000D02*
X148336000Y-102108000D01*
X66548000Y-95250000D02*
X67818000Y-96520000D01*
X140462000Y-96774000D02*
X141732000Y-98044000D01*
X85344000Y-96774000D02*
X140462000Y-96774000D01*
X85090000Y-96520000D02*
X85344000Y-96774000D01*
X67818000Y-96520000D02*
X85090000Y-96520000D01*
X141732000Y-98044000D02*
X141986000Y-98298000D01*
X141986000Y-98298000D02*
X148844000Y-98298000D01*
X148844000Y-98298000D02*
X149606000Y-97536000D01*
X149606000Y-97536000D02*
X149606000Y-95758000D01*
X149606000Y-95758000D02*
X148336000Y-94488000D01*
X148336000Y-91948000D02*
X148209000Y-92075000D01*
X148209000Y-92075000D02*
X143002000Y-92075000D01*
X134112000Y-117856000D02*
X140081000Y-117856000D01*
X142113000Y-119888000D02*
X148336000Y-119888000D01*
X140081000Y-117856000D02*
X142113000Y-119888000D01*
X137922000Y-108966000D02*
X133985000Y-108966000D01*
X127000000Y-101981000D02*
X133985000Y-108966000D01*
X125603000Y-101981000D02*
X127000000Y-101981000D01*
X125222000Y-101600000D02*
X125603000Y-101981000D01*
X125222000Y-100203000D02*
X125222000Y-101600000D01*
X124206000Y-99187000D02*
X125222000Y-100203000D01*
X114681000Y-99187000D02*
X124206000Y-99187000D01*
X114300000Y-98806000D02*
X114681000Y-99187000D01*
X103251000Y-98806000D02*
X114300000Y-98806000D01*
X99822000Y-102235000D02*
X103251000Y-98806000D01*
X84328000Y-102235000D02*
X99822000Y-102235000D01*
X83820000Y-101727000D02*
X84328000Y-102235000D01*
X79375000Y-101727000D02*
X83820000Y-101727000D01*
X73152000Y-107950000D02*
X79375000Y-101727000D01*
X72644000Y-107950000D02*
X73152000Y-107950000D01*
X137922000Y-108966000D02*
X141732000Y-112776000D01*
X148336000Y-112268000D02*
X142240000Y-112268000D01*
X142240000Y-112268000D02*
X141732000Y-112776000D01*
X148336000Y-109728000D02*
X146812000Y-111252000D01*
X143764000Y-115316000D02*
X141732000Y-115316000D01*
X146812000Y-111252000D02*
X143764000Y-111252000D01*
X141732000Y-115316000D02*
X136017000Y-115316000D01*
X134747000Y-114046000D02*
X131445000Y-114046000D01*
X136017000Y-115316000D02*
X134747000Y-114046000D01*
X148336000Y-137668000D02*
X142240000Y-137668000D01*
X136271000Y-134747000D02*
X134112000Y-132588000D01*
X140081000Y-134747000D02*
X136271000Y-134747000D01*
X141732000Y-127508000D02*
X145796000Y-127508000D01*
X145796000Y-127508000D02*
X148336000Y-130048000D01*
X66548000Y-110490000D02*
X68580000Y-110490000D01*
X140462000Y-128778000D02*
X141732000Y-127508000D01*
X116840000Y-128778000D02*
X140462000Y-128778000D01*
X115570000Y-130048000D02*
X116840000Y-128778000D01*
X95377000Y-130048000D02*
X115570000Y-130048000D01*
X94869000Y-129540000D02*
X95377000Y-130048000D01*
X83947000Y-129540000D02*
X94869000Y-129540000D01*
X80137000Y-125095000D02*
X80391000Y-125095000D01*
X71628000Y-116586000D02*
X80137000Y-125095000D01*
X71628000Y-113538000D02*
X71628000Y-116586000D01*
X68580000Y-110490000D02*
X71628000Y-113538000D01*
X148336000Y-127508000D02*
X149733000Y-128905000D01*
X146558000Y-130048000D02*
X141732000Y-130048000D01*
X147828000Y-131318000D02*
X146558000Y-130048000D01*
X149098000Y-131318000D02*
X147828000Y-131318000D01*
X149733000Y-130683000D02*
X149098000Y-131318000D01*
X149733000Y-128905000D02*
X149733000Y-130683000D01*
X130175000Y-125476000D02*
X130937000Y-126238000D01*
X130937000Y-126238000D02*
X139954000Y-126238000D01*
X134112000Y-147320000D02*
X139446000Y-147320000D01*
X149606000Y-154178000D02*
X148336000Y-155448000D01*
X149606000Y-149860000D02*
X149606000Y-154178000D01*
X148844000Y-149098000D02*
X149606000Y-149860000D01*
X141224000Y-149098000D02*
X148844000Y-149098000D01*
X139446000Y-147320000D02*
X141224000Y-149098000D01*
X143002000Y-142240000D02*
X143002000Y-138938000D01*
X70231000Y-113030000D02*
X71120000Y-113919000D01*
X71120000Y-113919000D02*
X71120000Y-116840000D01*
X71120000Y-116840000D02*
X79248000Y-124968000D01*
X79248000Y-124968000D02*
X79248000Y-125095000D01*
X83947000Y-132588000D02*
X83947000Y-135382000D01*
X83947000Y-135382000D02*
X84201000Y-135636000D01*
X84201000Y-135636000D02*
X92583000Y-135636000D01*
X92583000Y-135636000D02*
X96012000Y-132207000D01*
X96012000Y-132207000D02*
X111633000Y-132207000D01*
X111633000Y-132207000D02*
X118364000Y-138938000D01*
X118364000Y-138938000D02*
X132461000Y-138938000D01*
X132461000Y-138938000D02*
X132969000Y-138430000D01*
X132969000Y-138430000D02*
X137414000Y-138430000D01*
X137414000Y-138430000D02*
X137922000Y-138938000D01*
X137922000Y-138938000D02*
X140589000Y-138938000D01*
X140589000Y-138938000D02*
X141097000Y-138430000D01*
X141097000Y-138430000D02*
X142494000Y-138430000D01*
X142494000Y-138430000D02*
X143002000Y-138938000D01*
X70231000Y-113030000D02*
X66548000Y-113030000D01*
X141732000Y-142240000D02*
X143002000Y-142240000D01*
X143002000Y-142240000D02*
X145669000Y-142240000D01*
X149606000Y-146558000D02*
X148336000Y-147828000D01*
X149606000Y-144780000D02*
X149606000Y-146558000D01*
X148844000Y-144018000D02*
X149606000Y-144780000D01*
X147447000Y-144018000D02*
X148844000Y-144018000D01*
X145669000Y-142240000D02*
X147447000Y-144018000D01*
X141732000Y-144780000D02*
X142240000Y-145288000D01*
X142240000Y-145288000D02*
X148336000Y-145288000D01*
X130175000Y-142748000D02*
X130937000Y-143510000D01*
X140462000Y-143510000D02*
X141732000Y-144780000D01*
X130937000Y-143510000D02*
X140462000Y-143510000D01*
X127000000Y-163068000D02*
X133096000Y-163068000D01*
X133096000Y-163068000D02*
X134112000Y-162052000D01*
X66548000Y-115570000D02*
X68961000Y-115570000D01*
X124841000Y-153289000D02*
X127000000Y-155448000D01*
X124841000Y-146812000D02*
X124841000Y-153289000D01*
X115951000Y-137922000D02*
X124841000Y-146812000D01*
X85598000Y-137922000D02*
X115951000Y-137922000D01*
X83947000Y-136271000D02*
X85598000Y-137922000D01*
X78105000Y-124714000D02*
X78105000Y-125095000D01*
X68961000Y-115570000D02*
X78105000Y-124714000D01*
X127000000Y-155448000D02*
X127254000Y-155702000D01*
X127254000Y-155702000D02*
X138176000Y-155702000D01*
X138176000Y-155702000D02*
X139446000Y-156972000D01*
X139446000Y-156972000D02*
X141732000Y-156972000D01*
X127000000Y-152908000D02*
X137033000Y-152908000D01*
X143129000Y-155702000D02*
X144907000Y-157480000D01*
X139827000Y-155702000D02*
X143129000Y-155702000D01*
X137033000Y-152908000D02*
X139827000Y-155702000D01*
X141732000Y-159512000D02*
X142875000Y-159512000D01*
X142875000Y-159512000D02*
X144907000Y-157480000D01*
X81788000Y-138430000D02*
X69342000Y-138430000D01*
X50292000Y-143455110D02*
X50292000Y-149352000D01*
X51015106Y-142732004D02*
X50292000Y-143455110D01*
X57564216Y-142732004D02*
X51015106Y-142732004D01*
X59182000Y-141114220D02*
X57564216Y-142732004D01*
X59182000Y-137668000D02*
X59182000Y-141114220D01*
X59690000Y-137160000D02*
X59182000Y-137668000D01*
X68072000Y-137160000D02*
X59690000Y-137160000D01*
X69342000Y-138430000D02*
X68072000Y-137160000D01*
X81788000Y-135890000D02*
X69342000Y-135890000D01*
X49530000Y-143510000D02*
X49530000Y-148590000D01*
X50807998Y-142232002D02*
X49530000Y-143510000D01*
X57357108Y-142232002D02*
X50807998Y-142232002D01*
X58666002Y-140923108D02*
X57357108Y-142232002D01*
X58666002Y-136659998D02*
X58666002Y-140923108D01*
X60706000Y-134620000D02*
X58666002Y-136659998D01*
X68072000Y-134620000D02*
X60706000Y-134620000D01*
X69342000Y-135890000D02*
X68072000Y-134620000D01*
X63500000Y-150114000D02*
X60960000Y-152654000D01*
X60960000Y-152654000D02*
X48760002Y-152654000D01*
X81788000Y-128270000D02*
X69342000Y-128270000D01*
X38686000Y-155448000D02*
X37012000Y-153774000D01*
X47752000Y-155448000D02*
X38686000Y-155448000D01*
X48760002Y-154439998D02*
X47752000Y-155448000D01*
X48760002Y-136659998D02*
X48760002Y-152654000D01*
X48760002Y-152654000D02*
X48760002Y-154439998D01*
X49530000Y-135890000D02*
X48760002Y-136659998D01*
X54610000Y-135890000D02*
X49530000Y-135890000D01*
X63500000Y-127000000D02*
X54610000Y-135890000D01*
X68072000Y-127000000D02*
X63500000Y-127000000D01*
X69342000Y-128270000D02*
X68072000Y-127000000D01*
X132080000Y-100584000D02*
X130302000Y-98806000D01*
X124714000Y-98806000D02*
X130302000Y-98806000D01*
X132080000Y-144780000D02*
X134112000Y-144780000D01*
X132080000Y-130048000D02*
X134112000Y-130048000D01*
X134112000Y-100584000D02*
X132080000Y-100584000D01*
X132080000Y-115316000D02*
X134112000Y-115316000D01*
X109220000Y-104140000D02*
X123952000Y-104140000D01*
X94488000Y-104140000D02*
X109220000Y-104140000D01*
X32004000Y-116078000D02*
X38608000Y-116078000D01*
X78740000Y-104140000D02*
X94488000Y-104140000D01*
X40386000Y-114300000D02*
X60325000Y-114300000D01*
X38608000Y-116078000D02*
X40386000Y-114300000D01*
X84328000Y-88646000D02*
X65024000Y-88646000D01*
X99060000Y-88646000D02*
X97663000Y-87249000D01*
X97663000Y-87249000D02*
X74168000Y-87249000D01*
X99822000Y-87249000D02*
X99187000Y-86614000D01*
X99187000Y-86614000D02*
X91440000Y-86614000D01*
X112395000Y-87249000D02*
X99822000Y-87249000D01*
X112395000Y-87249000D02*
X113792000Y-88646000D01*
X128651000Y-86614000D02*
X100584000Y-86614000D01*
X128651000Y-86614000D02*
X130683000Y-88646000D01*
X130048000Y-92964000D02*
X128778000Y-94234000D01*
X113157000Y-89916000D02*
X111252000Y-88011000D01*
X116840000Y-89916000D02*
X113157000Y-89916000D01*
X117094000Y-89662000D02*
X116840000Y-89916000D01*
X118364000Y-94234000D02*
X117094000Y-92964000D01*
X128778000Y-94234000D02*
X118364000Y-94234000D01*
X122174000Y-85090000D02*
X120904000Y-83820000D01*
X128905000Y-85090000D02*
X122174000Y-85090000D01*
X100076000Y-128016000D02*
X100076000Y-127000000D01*
X65278000Y-97790000D02*
X66548000Y-97790000D01*
X64516000Y-98552000D02*
X65278000Y-97790000D01*
X64516000Y-108204000D02*
X64516000Y-98552000D01*
X65532000Y-109220000D02*
X64516000Y-108204000D01*
X68072000Y-109220000D02*
X65532000Y-109220000D01*
X72136000Y-113284000D02*
X68072000Y-109220000D01*
X72136000Y-116332000D02*
X72136000Y-113284000D01*
X80264000Y-124460000D02*
X72136000Y-116332000D01*
X83312000Y-124460000D02*
X80264000Y-124460000D01*
X83820000Y-124968000D02*
X83312000Y-124460000D01*
X83820000Y-127508000D02*
X83820000Y-124968000D01*
X84328000Y-128016000D02*
X83820000Y-127508000D01*
X87884000Y-128016000D02*
X84328000Y-128016000D01*
X89916000Y-125984000D02*
X87884000Y-128016000D01*
X99060000Y-125984000D02*
X89916000Y-125984000D01*
X100076000Y-127000000D02*
X99060000Y-125984000D01*
X107696000Y-128016000D02*
X107696000Y-127000000D01*
X65024000Y-104394000D02*
X66548000Y-102870000D01*
X65024000Y-106172000D02*
X65024000Y-104394000D01*
X65532000Y-106680000D02*
X65024000Y-106172000D01*
X69088000Y-106680000D02*
X65532000Y-106680000D01*
X69596000Y-107188000D02*
X69088000Y-106680000D01*
X69596000Y-109728000D02*
X69596000Y-107188000D01*
X72644000Y-112776000D02*
X69596000Y-109728000D01*
X72644000Y-115824000D02*
X72644000Y-112776000D01*
X78740000Y-121920000D02*
X72644000Y-115824000D01*
X88954890Y-121920000D02*
X78740000Y-121920000D01*
X89970890Y-122936000D02*
X88954890Y-121920000D01*
X103632000Y-122936000D02*
X89970890Y-122936000D01*
X107696000Y-127000000D02*
X103632000Y-122936000D01*
X126873000Y-91313000D02*
X126492000Y-91694000D01*
X140462000Y-91313000D02*
X126873000Y-91313000D01*
X126492000Y-92964000D02*
X126492000Y-91694000D01*
X126492000Y-91694000D02*
X111760000Y-91694000D01*
X97028000Y-92964000D02*
X98298000Y-91694000D01*
X111760000Y-91694000D02*
X111760000Y-92964000D01*
X98298000Y-91694000D02*
X111760000Y-91694000D01*
X85090000Y-103505000D02*
X95758000Y-103505000D01*
X106680000Y-100584000D02*
X106680000Y-102870000D01*
X132715000Y-142240000D02*
X134112000Y-142240000D01*
X134112000Y-112776000D02*
X132715000Y-112776000D01*
X122047000Y-98044000D02*
X132715000Y-98044000D01*
X132715000Y-98044000D02*
X134112000Y-98044000D01*
X121412000Y-102870000D02*
X106680000Y-102870000D01*
X91948000Y-102870000D02*
X106680000Y-102870000D01*
X81788000Y-102870000D02*
X91948000Y-102870000D01*
X74168000Y-150114000D02*
X72644000Y-150114000D01*
X56642000Y-144526000D02*
X51054000Y-144526000D01*
X58173998Y-146057998D02*
X56642000Y-144526000D01*
X64015998Y-146057998D02*
X58173998Y-146057998D01*
X66802000Y-148844000D02*
X64015998Y-146057998D01*
X71374000Y-148844000D02*
X66802000Y-148844000D01*
X72644000Y-150114000D02*
X71374000Y-148844000D01*
X81788000Y-133350000D02*
X69342000Y-133350000D01*
X57150000Y-141732000D02*
X49530000Y-141732000D01*
X58166000Y-140716000D02*
X57150000Y-141732000D01*
X58166000Y-133858000D02*
X58166000Y-140716000D01*
X59944000Y-132080000D02*
X58166000Y-133858000D01*
X68072000Y-132080000D02*
X59944000Y-132080000D01*
X69342000Y-133350000D02*
X68072000Y-132080000D01*
X77724000Y-150114000D02*
X77470000Y-150114000D01*
X77470000Y-150114000D02*
X75946000Y-151638000D01*
X75946000Y-151638000D02*
X66294000Y-151638000D01*
X66294000Y-151638000D02*
X65278000Y-150622000D01*
X65278000Y-150622000D02*
X65278000Y-148082000D01*
X65278000Y-148082000D02*
X63754000Y-146558000D01*
X63754000Y-146558000D02*
X56316000Y-146558000D01*
X81788000Y-130810000D02*
X69342000Y-130810000D01*
X56316000Y-134946000D02*
X56316000Y-140058000D01*
X61722000Y-129540000D02*
X56316000Y-134946000D01*
X68072000Y-129540000D02*
X61722000Y-129540000D01*
X69342000Y-130810000D02*
X68072000Y-129540000D01*
X81788000Y-125730000D02*
X69342000Y-125730000D01*
X48260000Y-152178000D02*
X46664000Y-153774000D01*
X48260000Y-136398000D02*
X48260000Y-152178000D01*
X49276000Y-135382000D02*
X48260000Y-136398000D01*
X54356000Y-135382000D02*
X49276000Y-135382000D01*
X65278000Y-124460000D02*
X54356000Y-135382000D01*
X68072000Y-124460000D02*
X65278000Y-124460000D01*
X69342000Y-125730000D02*
X68072000Y-124460000D01*
M02*
