M48
;DRILL file {KiCad 4.0.7} date 06/21/18 20:46:41
;FORMAT={-:-/ absolute / metric / decimal}
FMAT,2
METRIC,TZ
T1C0.400
T2C0.762
T3C0.800
T4C0.900
T5C1.000
T6C1.100
T7C1.350
T8C1.500
T9C1.520
T10C4.300
%
G90
G05
M71
T1
X54.61Y-92.075
X54.61Y-100.965
X55.88Y-60.96
X55.88Y-64.77
X56.515Y-92.075
X56.515Y-100.965
X58.42Y-70.485
X58.42Y-80.01
X59.69Y-60.96
X59.69Y-64.77
X65.405Y-69.215
X67.945Y-69.215
X87.63Y-108.585
X88.265Y-81.915
X93.98Y-54.61
X93.98Y-64.77
X93.98Y-66.675
X95.25Y-67.945
X95.885Y-117.475
X97.155Y-108.585
X97.79Y-83.185
X99.06Y-79.375
X102.235Y-117.475
X104.14Y-75.565
X104.14Y-78.105
X105.41Y-81.915
X106.68Y-66.675
X106.68Y-83.185
X107.95Y-79.375
X109.22Y-67.945
X112.395Y-104.775
X114.3Y-61.595
X114.3Y-70.485
X114.3Y-73.025
X114.3Y-78.105
X115.57Y-55.245
X115.57Y-61.595
X115.57Y-64.135
X115.57Y-92.075
X116.84Y-65.405
X116.84Y-93.345
X117.475Y-50.165
X119.38Y-48.895
X120.015Y-103.505
X120.015Y-106.045
X120.015Y-114.935
X120.015Y-118.745
X120.65Y-50.165
X120.65Y-51.435
X123.19Y-103.505
X124.46Y-48.895
X124.46Y-51.435
X124.46Y-99.06
X124.46Y-102.87
X124.46Y-104.775
X129.54Y-55.245
X129.54Y-62.865
X129.54Y-106.045
X131.445Y-124.904
X132.08Y-113.03
X133.35Y-102.235
X133.35Y-111.125
X134.62Y-103.505
X134.62Y-107.315
X134.62Y-113.03
X136.525Y-104.775
X136.525Y-111.125
X137.16Y-69.85
X140.335Y-93.345
X140.335Y-97.79
X140.335Y-104.775
X141.605Y-94.615
X142.24Y-69.85
X144.145Y-64.77
X144.145Y-71.12
X144.145Y-74.295
X144.145Y-76.835
X144.145Y-104.775
X145.415Y-59.69
X145.415Y-68.58
X145.415Y-103.505
X145.415Y-111.76
X147.32Y-71.755
X147.32Y-76.835
X147.955Y-50.165
X147.955Y-89.535
X147.955Y-92.075
X149.225Y-93.345
X149.225Y-94.615
X149.288Y-124.904
X151.13Y-97.79
X156.845Y-63.5
X156.845Y-70.485
X157.48Y-50.165
X158.115Y-75.565
X158.115Y-89.535
X159.385Y-70.485
X161.29Y-63.5
X161.925Y-98.425
X161.925Y-110.49
X163.83Y-74.93
X163.83Y-77.47
X163.83Y-83.82
X163.83Y-91.44
X168.275Y-97.155
X168.275Y-106.68
T2
X25.4Y-113.03
X30.48Y-83.82
X35.56Y-83.82
X40.64Y-113.03
T3
X35.56Y-63.5
X35.56Y-76.2
X45.72Y-63.5
X45.72Y-67.31
X45.72Y-69.85
X45.72Y-72.39
X45.72Y-76.2
X46.355Y-42.545
X46.355Y-45.085
X46.355Y-52.705
X46.355Y-55.88
X47.625Y-109.22
X47.625Y-119.38
X47.625Y-121.92
X47.625Y-132.08
X48.895Y-45.085
X48.895Y-52.705
X50.8Y-109.22
X50.8Y-119.38
X50.8Y-121.92
X50.8Y-132.08
X51.435Y-45.085
X51.435Y-52.705
X53.34Y-67.31
X53.34Y-69.85
X53.34Y-72.39
X55.88Y-69.85
X55.88Y-80.01
X56.515Y-42.545
X56.515Y-55.88
X61.595Y-55.88
X61.595Y-58.42
X61.595Y-60.96
X61.595Y-63.5
X62.23Y-73.025
X62.23Y-80.645
X62.23Y-85.09
X62.23Y-100.33
X64.135Y-66.04
X64.77Y-73.025
X64.77Y-80.645
X64.77Y-85.09
X64.77Y-100.33
X66.635Y-66.04
X66.675Y-125.095
X66.675Y-128.27
X67.31Y-73.025
X67.31Y-80.645
X67.31Y-85.09
X67.31Y-100.33
X69.215Y-55.88
X69.215Y-58.42
X69.215Y-60.96
X69.215Y-63.5
X69.85Y-73.025
X69.85Y-80.645
X69.85Y-85.09
X69.85Y-100.33
X72.39Y-73.025
X72.39Y-80.645
X72.39Y-85.09
X72.39Y-100.33
X74.93Y-73.025
X74.93Y-80.645
X74.93Y-85.09
X74.93Y-100.33
X76.835Y-125.095
X76.835Y-128.27
X77.47Y-73.025
X77.47Y-80.645
X77.47Y-85.09
X77.47Y-100.33
X78.105Y-110.49
X78.105Y-120.65
X80.01Y-73.025
X80.01Y-80.645
X80.01Y-85.09
X80.01Y-100.33
X81.28Y-110.49
X81.28Y-120.65
X81.915Y-42.545
X81.915Y-45.085
X81.915Y-52.705
X82.55Y-85.09
X82.55Y-100.33
X84.455Y-45.085
X84.455Y-52.705
X84.455Y-64.77
X84.455Y-67.31
X84.455Y-69.85
X84.455Y-72.39
X84.455Y-74.93
X84.455Y-77.47
X84.455Y-80.01
X84.455Y-110.49
X84.455Y-120.65
X85.09Y-85.09
X85.09Y-100.33
X86.995Y-45.085
X86.995Y-52.705
X87.63Y-85.09
X87.63Y-93.98
X87.63Y-100.33
X87.63Y-110.49
X87.63Y-120.65
X90.13Y-93.98
X90.17Y-85.09
X90.17Y-100.33
X90.805Y-116.84
X90.805Y-119.34
X92.075Y-42.545
X92.075Y-64.77
X92.075Y-67.31
X92.075Y-69.85
X92.075Y-72.39
X92.075Y-74.93
X92.075Y-77.47
X92.075Y-80.01
X92.71Y-85.09
X92.71Y-100.33
X93.345Y-50.165
X93.345Y-116.84
X93.345Y-119.34
X95.25Y-85.09
X95.25Y-100.33
X97.79Y-85.09
X97.79Y-100.33
X100.33Y-85.09
X100.33Y-100.33
X102.87Y-85.09
X102.87Y-100.33
X103.505Y-50.165
X105.41Y-85.09
X105.41Y-100.33
X107.95Y-45.085
X107.95Y-47.625
X107.95Y-50.165
X107.95Y-52.705
X107.95Y-85.09
X107.95Y-100.33
X107.95Y-119.38
X109.855Y-106.68
X109.855Y-114.3
X110.49Y-55.245
X110.49Y-85.09
X110.49Y-100.33
X112.395Y-106.68
X112.395Y-114.3
X112.99Y-55.245
X114.935Y-106.68
X114.935Y-114.3
X115.57Y-45.085
X115.57Y-47.625
X115.57Y-50.165
X115.57Y-52.705
X116.205Y-132.08
X117.475Y-106.68
X117.475Y-114.3
X118.11Y-119.38
X120.015Y-109.26
X120.015Y-111.76
X121.285Y-92.075
X121.285Y-94.575
X121.285Y-120.65
X121.285Y-128.27
X123.825Y-89.535
X123.825Y-97.155
X123.825Y-120.65
X123.825Y-128.27
X126.365Y-89.535
X126.365Y-97.155
X126.365Y-120.65
X126.365Y-128.27
X126.365Y-132.08
X128.905Y-43.18
X128.905Y-45.72
X128.905Y-53.34
X128.905Y-89.535
X128.905Y-97.155
X131.445Y-45.72
X131.445Y-53.34
X131.445Y-89.535
X131.445Y-97.155
X133.985Y-45.72
X133.985Y-53.34
X136.843Y-115.252
X136.843Y-117.792
X136.843Y-120.332
X136.843Y-122.872
X139.065Y-43.18
X139.74Y-112.395
X141.605Y-52.705
X141.605Y-62.865
X142.24Y-112.395
X144.463Y-115.252
X144.463Y-117.792
X144.463Y-120.332
X144.463Y-122.872
X144.78Y-81.28
X144.78Y-83.78
X147.32Y-60.96
X147.32Y-63.5
X147.32Y-66.04
X147.32Y-68.58
X147.32Y-78.74
X147.32Y-86.36
X148.59Y-102.87
X148.59Y-105.37
X149.86Y-71.12
X149.86Y-78.74
X149.86Y-86.36
X151.13Y-100.33
X151.13Y-107.95
X152.36Y-71.12
X152.4Y-78.74
X152.4Y-86.36
X153.67Y-100.33
X153.67Y-107.95
X154.94Y-60.96
X154.94Y-63.5
X154.94Y-66.04
X154.94Y-68.58
X154.94Y-78.74
X154.94Y-86.36
X156.21Y-100.33
X156.21Y-107.95
X158.75Y-100.33
X158.75Y-107.95
X159.385Y-113.03
X163.195Y-40.64
X163.195Y-47.625
X163.195Y-57.785
X166.37Y-43.815
X166.37Y-51.435
X168.91Y-43.815
X168.91Y-51.435
X169.545Y-113.03
X171.45Y-43.815
X171.45Y-51.435
X171.45Y-90.805
X171.45Y-100.965
X172.085Y-121.285
X173.355Y-40.64
X173.355Y-55.88
X173.355Y-66.04
X173.99Y-108.585
X173.99Y-111.125
X173.99Y-113.665
X176.53Y-55.88
X176.53Y-58.42
X176.53Y-60.96
X176.53Y-89.535
X176.53Y-95.25
X176.53Y-97.79
X176.53Y-100.33
X180.34Y-50.165
X181.61Y-108.585
X181.61Y-111.125
X181.61Y-113.665
X182.245Y-121.285
X184.15Y-55.88
X184.15Y-58.42
X184.15Y-60.96
X184.15Y-95.25
X184.15Y-97.79
X184.15Y-100.33
X186.69Y-89.535
X190.5Y-50.165
T4
X80.01Y-105.41
X80.01Y-107.95
X85.09Y-105.41
X85.09Y-107.95
T5
X35.56Y-124.46
X36.83Y-67.31
X36.83Y-72.39
X40.56Y-124.46
X41.91Y-67.31
X41.91Y-72.39
X51.435Y-86.36
X51.435Y-88.9
X51.435Y-91.44
X51.435Y-93.98
X51.435Y-96.52
X51.435Y-99.06
X59.055Y-50.8
X61.595Y-50.8
X62.865Y-35.56
X62.865Y-38.1
X62.865Y-40.64
X64.135Y-50.8
X66.675Y-50.8
X69.215Y-50.8
X71.755Y-50.8
X83.185Y-134.62
X85.725Y-134.62
X88.265Y-134.62
X97.79Y-36.83
X97.79Y-39.37
X97.79Y-41.91
X99.06Y-70.485
X99.06Y-73.025
X101.6Y-70.485
X101.6Y-73.025
X104.14Y-70.485
X104.14Y-73.025
X104.775Y-106.68
X104.775Y-109.22
X104.775Y-111.76
X104.775Y-114.3
X104.775Y-116.84
X104.775Y-119.38
X106.68Y-70.485
X106.68Y-73.025
X107.315Y-40.005
X109.22Y-70.485
X109.22Y-73.025
X109.855Y-40.005
X111.76Y-70.485
X111.76Y-73.025
X112.395Y-40.005
X114.935Y-40.005
X117.475Y-40.005
X119.38Y-70.485
X119.38Y-73.025
X120.015Y-40.005
X121.92Y-70.485
X121.92Y-73.025
X124.46Y-70.485
X124.46Y-73.025
X127.Y-70.485
X127.Y-73.025
X129.54Y-70.485
X129.54Y-73.025
X133.985Y-127.
X135.255Y-67.945
X135.255Y-70.485
X135.255Y-73.025
X136.525Y-127.
X137.795Y-88.9
X137.795Y-91.44
X137.795Y-93.98
X137.795Y-96.52
X137.795Y-99.06
X137.795Y-101.6
X139.065Y-127.
X141.605Y-127.
X144.145Y-127.
X144.78Y-55.245
X145.415Y-35.56
X145.415Y-38.1
X145.415Y-40.64
X146.685Y-127.
X147.32Y-55.245
X149.86Y-55.245
X152.4Y-55.245
X154.94Y-55.245
X157.48Y-55.245
X158.75Y-121.285
X160.655Y-73.66
X160.655Y-76.2
X160.655Y-78.74
X160.655Y-81.28
X160.655Y-83.82
X160.655Y-86.36
X161.29Y-121.285
X163.83Y-121.285
X165.1Y-96.52
X165.1Y-99.06
X165.1Y-101.6
X165.1Y-104.14
X165.1Y-106.68
X165.1Y-109.22
X179.705Y-35.56
X179.705Y-38.1
X179.705Y-40.64
X186.69Y-70.485
X187.96Y-107.315
X189.23Y-70.485
X190.5Y-107.315
X191.77Y-70.485
X193.04Y-107.315
T6
X54.46Y-106.625
X54.46Y-111.125
X54.46Y-115.515
X54.46Y-120.015
X54.46Y-124.405
X54.46Y-128.905
X54.46Y-133.295
X54.46Y-137.795
X60.96Y-106.625
X60.96Y-111.125
X60.96Y-115.515
X60.96Y-120.015
X60.96Y-124.405
X60.96Y-128.905
X60.96Y-133.295
X60.96Y-137.795
X68.43Y-108.53
X68.43Y-113.03
X68.43Y-117.42
X68.43Y-121.92
X74.93Y-108.53
X74.93Y-113.03
X74.93Y-117.42
X74.93Y-121.92
T7
X27.94Y-53.66
X27.94Y-58.66
X27.94Y-68.66
X27.94Y-73.66
X40.005Y-24.13
X40.005Y-29.13
X40.005Y-39.13
X40.005Y-44.13
X75.565Y-24.13
X75.565Y-29.13
X75.565Y-39.13
X75.565Y-44.13
X102.87Y-29.845
X107.87Y-29.845
X117.87Y-29.845
X122.87Y-29.845
X131.13Y-134.62
X136.13Y-134.62
X146.13Y-134.62
X151.13Y-134.62
X156.845Y-24.13
X156.845Y-29.13
X156.845Y-39.13
X156.845Y-44.13
X176.215Y-81.915
X176.215Y-128.905
X181.215Y-81.915
X181.215Y-128.905
X190.5Y-24.13
X190.5Y-29.13
X190.5Y-39.13
X190.5Y-44.13
X191.215Y-81.915
X191.215Y-128.905
X196.215Y-81.915
X196.215Y-128.905
T8
X92.255Y-113.03
X97.155Y-113.03
T9
X27.94Y-38.1
X27.94Y-43.18
X48.26Y-32.385
X53.34Y-32.385
X83.82Y-32.385
X88.9Y-32.385
X102.235Y-133.35
X107.315Y-133.35
X130.81Y-32.385
X135.89Y-32.385
X162.56Y-131.445
X165.1Y-32.385
X167.64Y-131.445
X170.18Y-32.385
X195.58Y-56.515
X195.58Y-61.595
X195.58Y-93.345
X195.58Y-98.425
T10
X25.4Y-25.4
X25.4Y-133.35
X210.82Y-25.4
X210.82Y-133.35
T0
M30
